<svg viewBox="0 0 330 200" xmlns="http://www.w3.org/2000/svg"><g><g><g><g><g><line x1="42.390625" y1="176" x2="37.390625" y2="176" style="visibility: inherit;" fill="rgb(0, 0, 0)" stroke="rgb(204, 204, 204)" stroke-width="1px"></line><line x1="42.390625" y1="160" x2="37.390625" y2="160" style="visibility: inherit;" fill="rgb(0, 0, 0)" stroke="rgb(204, 204, 204)" stroke-width="1px"></line><line x1="42.390625" y1="144" x2="37.390625" y2="144" style="visibility: inherit;" fill="rgb(0, 0, 0)" stroke="rgb(204, 204, 204)" stroke-width="1px"></line><line x1="42.390625" y1="128" x2="37.390625" y2="128" style="visibility: inherit;" fill="rgb(0, 0, 0)" stroke="rgb(204, 204, 204)" stroke-width="1px"></line><line x1="42.390625" y1="112" x2="37.390625" y2="112" style="visibility: inherit;" fill="rgb(0, 0, 0)" stroke="rgb(204, 204, 204)" stroke-width="1px"></line><line x1="42.390625" y1="96" x2="37.390625" y2="96" style="visibility: inherit;" fill="rgb(0, 0, 0)" stroke="rgb(204, 204, 204)" stroke-width="1px"></line><line x1="42.390625" y1="80" x2="37.390625" y2="80" style="visibility: inherit;" fill="rgb(0, 0, 0)" stroke="rgb(204, 204, 204)" stroke-width="1px"></line><line x1="42.390625" y1="64" x2="37.390625" y2="64" style="visibility: inherit;" fill="rgb(0, 0, 0)" stroke="rgb(204, 204, 204)" stroke-width="1px"></line><line x1="42.390625" y1="48" x2="37.390625" y2="48" style="visibility: inherit;" fill="rgb(0, 0, 0)" stroke="rgb(204, 204, 204)" stroke-width="1px"></line><line x1="42.390625" y1="31.999999999999993" x2="37.390625" y2="31.999999999999993" style="visibility: inherit;" fill="rgb(0, 0, 0)" stroke="rgb(204, 204, 204)" stroke-width="1px"></line><line x1="42.390625" y1="16.000000000000007" x2="37.390625" y2="16.000000000000007" style="visibility: inherit;" fill="rgb(0, 0, 0)" stroke="rgb(204, 204, 204)" stroke-width="1px"></line><line x1="42.390625" y1="0" x2="37.390625" y2="0" style="visibility: inherit;" fill="rgb(0, 0, 0)" stroke="rgb(204, 204, 204)" stroke-width="1px"></line></g><g transform="translate(32.390625, 0)"><text x="0" y="176" dx="0em" dy="0.3em" style="text-anchor: end; visibility: hidden; font-family: Roboto, sans-serif; font-size: 12px; font-weight: 200;" fill="rgb(33, 33, 33)" stroke="none" stroke-width="1px">3.5</text><text x="0" y="160" dx="0em" dy="0.3em" style="text-anchor: end; visibility: inherit; font-family: Roboto, sans-serif; font-size: 12px; font-weight: 200;" fill="rgb(33, 33, 33)" stroke="none" stroke-width="1px">4</text><text x="0" y="144" dx="0em" dy="0.3em" style="text-anchor: end; visibility: hidden; font-family: Roboto, sans-serif; font-size: 12px; font-weight: 200;" fill="rgb(33, 33, 33)" stroke="none" stroke-width="1px">4.5</text><text x="0" y="128" dx="0em" dy="0.3em" style="text-anchor: end; visibility: inherit; font-family: Roboto, sans-serif; font-size: 12px; font-weight: 200;" fill="rgb(33, 33, 33)" stroke="none" stroke-width="1px">5</text><text x="0" y="112" dx="0em" dy="0.3em" style="text-anchor: end; visibility: hidden; font-family: Roboto, sans-serif; font-size: 12px; font-weight: 200;" fill="rgb(33, 33, 33)" stroke="none" stroke-width="1px">5.5</text><text x="0" y="96" dx="0em" dy="0.3em" style="text-anchor: end; visibility: inherit; font-family: Roboto, sans-serif; font-size: 12px; font-weight: 200;" fill="rgb(33, 33, 33)" stroke="none" stroke-width="1px">6</text><text x="0" y="80" dx="0em" dy="0.3em" style="text-anchor: end; visibility: hidden; font-family: Roboto, sans-serif; font-size: 12px; font-weight: 200;" fill="rgb(33, 33, 33)" stroke="none" stroke-width="1px">6.5</text><text x="0" y="64" dx="0em" dy="0.3em" style="text-anchor: end; visibility: inherit; font-family: Roboto, sans-serif; font-size: 12px; font-weight: 200;" fill="rgb(33, 33, 33)" stroke="none" stroke-width="1px">7</text><text x="0" y="48" dx="0em" dy="0.3em" style="text-anchor: end; visibility: hidden; font-family: Roboto, sans-serif; font-size: 12px; font-weight: 200;" fill="rgb(33, 33, 33)" stroke="none" stroke-width="1px">7.5</text><text x="0" y="31.999999999999993" dx="0em" dy="0.3em" style="text-anchor: end; visibility: inherit; font-family: Roboto, sans-serif; font-size: 12px; font-weight: 200;" fill="rgb(33, 33, 33)" stroke="none" stroke-width="1px">8</text><text x="0" y="16.000000000000007" dx="0em" dy="0.3em" style="text-anchor: end; visibility: hidden; font-family: Roboto, sans-serif; font-size: 12px; font-weight: 200;" fill="rgb(33, 33, 33)" stroke="none" stroke-width="1px">8.5</text><text x="0" y="0" dx="0em" dy="0.3em" style="text-anchor: end; visibility: hidden; font-family: Roboto, sans-serif; font-size: 12px; font-weight: 200;" fill="rgb(33, 33, 33)" stroke="none" stroke-width="1px">9</text></g><line x1="42.390625" y1="0" x2="42.390625" y2="176" fill="rgb(0, 0, 0)" stroke="rgb(204, 204, 204)" stroke-width="1px"></line></g></g><g transform="translate(42, 0)" clip-path="url(#clip_0)"><clipPath id="clip_0"><rect width="287" height="176"></rect></clipPath><g><g><g><line x1="0" y1="0" x2="0" y2="176" fill="rgb(0, 0, 0)" stroke="rgb(66, 66, 66)" stroke-width="1px" opacity="0.25"></line><line x1="31.95659722222222" y1="0" x2="31.95659722222222" y2="176" fill="rgb(0, 0, 0)" stroke="rgb(66, 66, 66)" stroke-width="1px" opacity="0.25"></line><line x1="63.91319444444444" y1="0" x2="63.91319444444444" y2="176" fill="rgb(0, 0, 0)" stroke="rgb(66, 66, 66)" stroke-width="1px" opacity="0.25"></line><line x1="95.86979166666666" y1="0" x2="95.86979166666666" y2="176" fill="rgb(0, 0, 0)" stroke="rgb(66, 66, 66)" stroke-width="1px" opacity="0.25"></line><line x1="127.82638888888889" y1="0" x2="127.82638888888889" y2="176" fill="rgb(0, 0, 0)" stroke="rgb(66, 66, 66)" stroke-width="1px" opacity="0.25"></line><line x1="159.78298611111111" y1="0" x2="159.78298611111111" y2="176" fill="rgb(0, 0, 0)" stroke="rgb(66, 66, 66)" stroke-width="1px" opacity="0.25"></line><line x1="191.73958333333331" y1="0" x2="191.73958333333331" y2="176" fill="rgb(0, 0, 0)" stroke="rgb(66, 66, 66)" stroke-width="1px" opacity="0.25"></line><line x1="223.69618055555557" y1="0" x2="223.69618055555557" y2="176" fill="rgb(0, 0, 0)" stroke="rgb(66, 66, 66)" stroke-width="1px" opacity="0.25"></line><line x1="255.65277777777777" y1="0" x2="255.65277777777777" y2="176" fill="rgb(0, 0, 0)" stroke="rgb(66, 66, 66)" stroke-width="1px" opacity="0.25"></line><line x1="287.609375" y1="0" x2="287.609375" y2="176" fill="rgb(0, 0, 0)" stroke="rgb(66, 66, 66)" stroke-width="1px" opacity="0.25"></line></g><g><line x1="0" y1="176" x2="287.609375" y2="176" fill="rgb(0, 0, 0)" stroke="rgb(66, 66, 66)" stroke-width="1px" opacity="0.25"></line><line x1="0" y1="160" x2="287.609375" y2="160" fill="rgb(0, 0, 0)" stroke="rgb(66, 66, 66)" stroke-width="1px" opacity="0.25"></line><line x1="0" y1="144" x2="287.609375" y2="144" fill="rgb(0, 0, 0)" stroke="rgb(66, 66, 66)" stroke-width="1px" opacity="0.25"></line><line x1="0" y1="128" x2="287.609375" y2="128" fill="rgb(0, 0, 0)" stroke="rgb(66, 66, 66)" stroke-width="1px" opacity="0.25"></line><line x1="0" y1="112" x2="287.609375" y2="112" fill="rgb(0, 0, 0)" stroke="rgb(66, 66, 66)" stroke-width="1px" opacity="0.25"></line><line x1="0" y1="96" x2="287.609375" y2="96" fill="rgb(0, 0, 0)" stroke="rgb(66, 66, 66)" stroke-width="1px" opacity="0.25"></line><line x1="0" y1="80" x2="287.609375" y2="80" fill="rgb(0, 0, 0)" stroke="rgb(66, 66, 66)" stroke-width="1px" opacity="0.25"></line><line x1="0" y1="64" x2="287.609375" y2="64" fill="rgb(0, 0, 0)" stroke="rgb(66, 66, 66)" stroke-width="1px" opacity="0.25"></line><line x1="0" y1="48" x2="287.609375" y2="48" fill="rgb(0, 0, 0)" stroke="rgb(66, 66, 66)" stroke-width="1px" opacity="0.25"></line><line x1="0" y1="31.999999999999993" x2="287.609375" y2="31.999999999999993" fill="rgb(0, 0, 0)" stroke="rgb(66, 66, 66)" stroke-width="1px" opacity="0.25"></line><line x1="0" y1="16.000000000000007" x2="287.609375" y2="16.000000000000007" fill="rgb(0, 0, 0)" stroke="rgb(66, 66, 66)" stroke-width="1px" opacity="0.25"></line><line x1="0" y1="0" x2="287.609375" y2="0" fill="rgb(0, 0, 0)" stroke="rgb(66, 66, 66)" stroke-width="1px" opacity="0.25"></line></g></g></g><g><g><line x1="0" y1="288" x2="287.609375" y2="288" fill="rgb(0, 0, 0)" stroke="rgb(153, 153, 153)" stroke-width="1.5px"></line></g></g><g><g><line x1="31.95659722222222" y1="0" x2="31.95659722222222" y2="176" fill="rgb(0, 0, 0)" stroke="rgb(153, 153, 153)" stroke-width="1.5px"></line></g></g><g><g><g><g><g><path stroke="rgb(204, 51, 17)" stroke-width="2px" d="M49.031007118055555,-0.3930373350317353L49.12687690972222,0.5705383592417075L49.46242118055556,1.1966632674699955L49.63818246527777,2.3719623845041813L49.6701390625,3.5087610539015337L49.893835243055555,4.737531055317103L50.00568333333334,5.037180737159863L50.30927100694445,6.277511476535718L50.32524930555556,7.557837201970649L50.51698888888889,8.949385135346741L50.676771875,9.164926867310667L50.70872847222222,10.027545564309955L50.83655486111111,9.560071525239659L51.37981701388889,10.246672034378722L51.491665104166664,12.008772794657832L51.81762239583333,12.970533869072655L51.9134921875,13.809047468574303L51.945448784722224,14.743723381682232L51.99338368055556,16.29519785538048L52.057296875,17.15611586436774L52.15316666666667,17.74056836219478L52.21707986111111,18.379706622476526L52.64849392361111,19.168999944953953L53.07990798611111,19.915732741587924L53.39947395833334,21.150947853324162L53.70306163194445,21.74326221989963L53.878822916666664,22.085266741437067L53.894801215277774,22.444798901638993L54.549911458333334,23.243704099008482L54.901434027777775,23.825017206658856L55.18904340277778,23.842912038815772L55.20502170138889,24.22115573212482L55.77065347222222,24.505974915416566L55.89847986111111,24.93328575663662L56.02630625,25.720588298503916L56.074241145833334,26.436924675919393L56.63348159722222,27.085405941633095L56.68141649305555,27.951433892628078L56.905112673611114,28.374572907228867L56.95304756944444,29.078855616683946L57.0329390625,29.982877617349804L57.22467864583333,30.94717598524982L57.40043993055556,31.406346353711236L57.8957671875,31.46995779937157L58.02359357638889,32.41532066825684L58.58283402777778,32.629300635167766L58.822508506944445,33.45380148185362L59.09413958333333,34.031790618122805L59.12609618055556,34.66405943927857L59.17403107638889,34.332725538756655L59.23794427083333,34.985531855806535L60.25096840277778,35.64235929718365L60.282925000000006,35.94902172488013L60.47466458333333,35.99951621885242L60.522599479166665,36.165098359723174L61.40140590277778,36.84810515359991L61.60912378472222,37.72607046122801L61.720971875000004,38.45475345072982L62.232277430555555,38.87065518813689L62.28021232638889,39.3333415023676L62.37608211805556,40.068568196699665L62.392060416666666,40.92429019694037L62.82347447916667,41.483370716004714L62.88738767361111,41.814715549391224L62.96727916666667,42.57057316937767L62.99923576388889,42.93225397612725L63.20695364583333,43.70176731924357L63.22293194444445,43.90782297354613L63.50095434027778,43.86223271745223L64.95497951388889,44.473945904645895L65.09878420138888,45.1546525190301L65.25856718749999,45.4216113395928L65.43432847222222,46.04750783720672L65.67400295138889,46.1330900091363L65.73791614583334,46.840045459214515L66.05748211805556,47.403951490683816L66.93628854166666,47.81018626019863L67.17596302083334,48.24713130917733L67.2718328125,48.65597646982266L67.645725,48.988271353791156L67.72561649305555,49.66276475816693L68.92398888888889,50.14655805629433L69.29148975694444,50.309154819879126L69.56312083333333,50.68596907563321L70.12236128472222,51.05056089724935L70.7934498263889,51.41774885217351L70.87334131944444,51.73865050649231L71.08105920138888,51.758075977218425L71.20888559027777,52.19330114574217L71.25682048611111,52.82504968837662L71.56679947916666,52.97674894987707L71.77451736111111,53.42488512766479L71.85440885416666,54.1301273630784L72.07810503472223,54.21634408079304L72.11006163194445,54.99690114210054L72.28582291666667,55.291838172576945L73.03680295138888,55.60509090336311L73.05278125,56.022867646038456L73.38832552083333,56.51690852817839L73.83571788194445,56.75914055244726L73.96354427083332,57.012704292135226L74.09137065972223,57.324702218117885L74.52278472222223,57.830217009111315L74.58669791666668,58.63051469367113L74.69854600694445,58.8110517204303L74.74648090277778,59.372147999521836L74.89028559027778,59.866382754072276L75.12996006944445,60.36778342599973L75.2098515625,60.42529417174769L75.26417777777779,60.80844104592015L75.45591736111112,61.161166424335185L75.53580885416666,61.29520118562385L75.61570034722222,61.91470391000931L75.63167864583333,61.99491442891261L75.83939652777777,62.06261658771337L75.8553748263889,62.34463752989225L75.871353125,62.70093885057352L76.03113611111111,62.642211749596235L76.07907100694445,62.78756759000391L76.23885399305556,63.03667634693401L76.35070208333333,63.27673859529981L76.78211614583334,63.34658853664476L77.13363871527777,63.491359842438534L77.2934217013889,63.665044036673685L77.56505277777777,63.80029231502356L77.5810310763889,64.30118294384329L78.52375069444444,64.71904446049044L79.0190779513889,64.77698909203104L79.06701284722222,65.19780150209772L79.17886093749999,65.2877396128406L79.21720885416666,65.59355208446252L79.34503524305555,66.08936802203735L80.08003697916666,66.64278767007085L80.31971145833333,66.72112487247165L80.52742934027778,66.91783075568503L81.10264809027778,67.28870064109911L81.11862638888888,67.39899579673423L81.4222140625,67.71359591266668L81.4381923611111,67.87723679064719L81.45417065972222,67.66992263889584L81.67786684027779,68.02437027005666L81.69384513888889,67.79891323984313L81.7098234375,67.97969042572724L81.82167152777778,68.11793858480999L82.09330260416667,68.40091098583429L82.54069496527778,68.61088743241366L82.84428263888888,68.63690175549026L82.95613072916666,68.90081424633004L83.03602222222221,69.04233584388157L83.23415312499999,69.29424033139614L83.28208802083334,69.67469584546492L83.61763229166667,69.78542910535825L84.00111145833333,70.31847181213408L84.04904635416668,70.36395912298448L84.6562217013889,70.78365582117144L85.19948385416667,70.440423571987L85.45513663194444,70.7964337182803L85.74274600694444,71.07225475778777L85.91850729166667,71.5075580280268L86.04633368055555,71.68317226722345L86.22209496527778,72.0561878531314L86.44579114583333,72.18233678758926L87.12327100694444,72.18421996607621L87.47479357638889,72.54819635495599L87.49077187500001,72.7667824452955L87.60261996527778,73.10576551654636L87.6345765625,73.17118069980205L87.74642465277779,73.17469945559199L88.16186041666667,73.14827004422489L88.80099236111111,73.52761451187254L88.84892725694444,73.5225986332392L88.96077534722221,73.65834519719175L89.15251493055555,74.07454345958307L89.34425451388888,74.20564051484138L89.55197239583333,74.05773930661908L89.56795069444445,74.42116140833865L89.59990729166667,74.49825864746842L89.82360347222222,74.5981139559422L90.20708263888889,74.81774585413964L90.25501753472221,74.8086159256058L90.28697413194445,74.9783306071046L90.31893072916667,75.03508595475094L90.36686562499999,75.13864734973328L90.43077881944444,75.20480265684671L90.47871371527776,75.14881768288103L90.7823013888889,75.43941474904469L91.12423697916667,75.58941825228875L91.20412847222222,75.81799705693757L91.69945572916667,75.93284592176127L91.79532552083333,76.15491217603466L91.9071736111111,76.27658107683749L91.93913020833332,76.54065531068433L92.24271788194444,76.63908641934665L93.29728559027778,76.47966797865067L93.3292421875,76.57399183225438L93.6328298611111,76.82805013924195L94.16011371527777,77.10220564775057L94.30391840277778,77.60081529308292L94.36783159722224,77.81935061543629L94.46370138888888,78.11101330628696L94.65544097222222,78.11924045032913L94.70337586805556,78.24628185165196L95.17313784722222,78.51565461587066L95.31694253472222,78.92191270378058L95.41281232638889,79.22033746539023L95.90813958333334,79.51803329902927L95.94009618055554,79.94077470026767L96.08390086805555,80.1711165393636L96.25966215277778,80.38750082266685L96.35553194444445,80.19468959352159L96.46738003472223,80.31474024493791L97.05857708333335,80.359255283475L97.45803454861112,80.21051101673243L97.55390434027777,80.52227524629544L97.64977413194444,80.66663217519599L97.69770902777778,80.73748282160687L98.04923159722222,81.00810535453746L98.60847204861112,81.09176376322557L98.78423333333333,80.8973773562065L99.33388680555555,80.91529356352186L99.685409375,81.03272328863993L99.73334427083333,81.2350181956937L99.81323576388888,81.2457519487771L100.78791197916667,81.39155133507694L100.86780347222222,81.55973700157159L100.94769496527778,81.68675857326747L101.04356475694443,81.60633431473457L102.01824097222222,81.77967899338884L102.65737291666666,81.81633641817513L102.78519930555557,81.68406922631199L102.95137361111112,81.86930967845635L103.14311319444445,82.150758897063L103.5106140625,82.3287503491722L104.0858328125,82.38150408166719L104.2456157986111,82.40800366977749L104.30952899305555,82.59957115621589L104.70898645833333,82.79330607144624L104.77289965277778,82.8837854147765L104.86876944444445,83.03694992964058L105.42800989583333,83.19632297943863L105.47594479166668,83.24941851354299L106.06714184027778,83.60759755054883L106.22692482638888,83.57496702113006L106.5305125,83.28398333446935L106.65833888888888,83.38523354236237L106.72225208333333,83.52688801746083L106.75420868055555,83.60799098571357L106.84049149305557,83.64454209154334L106.98429618055556,83.70545150263922L107.35179704861112,83.79264742062956L107.4636451388889,83.91877706262764L107.81516770833333,84.16791258229517L107.92701579861111,84.24006463328985L108.02288559027778,84.22750579137411L108.08679878472222,84.53198323873468L108.10277708333334,84.83441661605687L108.58212604166667,85.11095197048806L108.94962690972221,85.10366412125038L108.98158350694445,85.22944237993528L109.02951840277777,85.4910974119519L109.04549670138888,85.63231192730552L109.17332309027778,85.76691382987028L109.7804984375,86.06917881550751L109.98821631944445,86.17937307680967L110.22789079861111,86.26822500033268L110.53147847222222,86.31461542346233L110.59539166666667,86.35888559493223L110.69765277777778,86.4530181920866L110.84145746527778,86.67149594029343L111.33678472222223,86.7448231610743L111.51254600694445,86.96816255659425L112.0238515625,87.07292745409234L112.40733072916666,87.24793238255819L112.71091840277778,87.31191748299284L112.91863628472223,87.37901795718972L112.93461458333333,87.4945416030323L113.06244097222223,87.6239947427937L113.09439756944444,87.8597569511185L113.76548611111112,88.1165356297145L113.82939930555555,88.27480244149349L113.89331250000001,88.43262297541044L114.06907378472224,88.54054905884004L114.08505208333334,88.49050197338087L114.11700868055556,88.54371591247265L114.13298697916666,88.59192038494157L114.63470555555554,88.62489823939346L114.81046684027777,88.74722088535916L114.8424234375,88.74868022980593L114.92231493055554,88.82908118470247L114.95427152777778,88.94226889991864L115.13003281249999,89.03677148769651L115.24188090277778,89.03639516833911L115.44959878472223,89.08967301677761L115.6892732638889,89.24992639410021L115.83307795138889,89.25345785090587L115.88101284722222,89.3438560059479L116.36036180555556,89.49118846278856L116.72786267361111,89.6458200671577L116.74384097222222,89.89268073750132L116.79177586805555,89.88331471541204L116.82373246527777,89.9437485593752L116.88764565972222,90.03357948335072L116.9835154513889,90.22144059331664L117.4309078125,90.29384320178144L117.5587342013889,90.30347028861358L117.92623506944445,90.45139815137458L118.08601805555556,90.674477992901L118.74751961805556,90.84992041649679L118.89132430555556,90.8547921981662L118.97121579861111,90.97093046756875L119.69023923611111,91.07579905592087L119.77013072916667,91.17802956022169L119.96187031250001,91.37637740443894L120.34534947916666,91.65889938705101L120.69687204861111,91.72735645586658L121.28806909722222,91.93914804376972L122.29470190972222,91.9656983900938L123.17989965277778,92.07523551899781L123.29174774305555,92.2243493705038L123.72316180555555,92.1353741973811L123.73914010416668,92.35540137613503L124.10664097222222,92.58333996335278L124.2344673611111,92.73869779697677L124.92153420138888,92.84974557547686L125.46479635416667,93.0070883218163L125.67251423611111,93.18067408532178L125.72044913194445,93.18779152337966L126.76542986111112,93.26615491365673L126.89325625,93.45414887131794L127.02108263888888,93.57851737737901L127.29271371527777,93.6894245711159L127.43651840277776,93.83341327390221L127.54836649305557,93.93007433250438L127.64423628472223,93.97764121595984L127.7401060763889,94.11469976701397L128.3153248263889,94.0479012383728L128.44315121527777,94.24105479225429L128.84260868055554,94.34046624548405L128.85858697916666,94.2619380885064L129.36989253472223,94.37966602387232L129.40184913194443,94.6583873618069L129.72141510416668,94.89327706917501L129.8013065972222,95.03291076523686L129.83326319444444,95.29521871547674L129.86521979166668,95.35282594581155L130.28065555555554,95.491482459998L130.862265625,95.60645808137744L131.18183159722224,95.64507208315963L131.46944097222223,95.67678996353585L132.04465972222224,95.89989041029378L132.07661631944444,96.03260078687605L132.38020399305555,96.10242288430933L132.8915095486111,96.15306544732218L132.92346614583334,96.40810075071347L133.13118402777778,96.54698639507299L133.3069453125,96.65084048652126L133.32292361111112,96.85035701660023L133.40281510416665,96.84590285586503L133.4827065972222,96.93749203546102L134.07390364583333,97.09569827499953L134.35192604166667,97.20740084480825L134.65551371527778,97.37397689128619L134.91116649305556,97.42484493003924L135.1348626736111,97.55243302821754L135.42247204861113,97.66443057858098L135.47040694444445,97.77166185168912L136.01366909722222,97.82780743877962L136.06160399305554,97.89415697143676L136.20540868055556,98.0148118215291L136.30127847222224,98.08840834717486L136.38116996527776,98.3422588751076L136.58888784722222,98.41660595197152L136.66877934027778,98.59105464229336L136.92443211805556,98.7222831385913L137.00432361111112,98.78885234952533L137.08421510416667,98.94654837663846L137.1481282986111,98.80113913337809L137.4037810763889,98.85006252322798L137.94704322916667,98.87424913204552L138.32093541666666,98.9547194218038L138.99202395833333,99.18829553311264L139.0719154513889,99.37718585629732L139.2316984375,99.41278022721359L139.29561163194444,99.50292206989593L139.55126440972222,99.63354537309216L139.72702569444445,99.64551737770982L140.1105048611111,99.71666743440015L140.38213593749998,99.70384580119105L140.68572361111111,99.76643171389406L141.02126788194445,99.84746266711366L141.14909427083333,100.12247785688893L141.29289895833332,100.26313922257717L141.5485517361111,100.3699476201599L142.17170538194443,100.44230098760987L142.194075,100.57349487628645L142.24200989583332,100.69552040480724L142.41777118055555,100.85315652822192L142.52961927083334,100.95994005619629L143.13679461805555,100.93429271064034L143.39244739583333,100.9724521596544L143.47233888888888,100.84960920582174L143.50429548611112,100.80426736455271L143.82386145833334,100.8961277735676L143.99962274305557,101.01998905143118L144.23929722222223,100.9586520730337L144.39908020833334,101.08154296475679L145.40571302083336,101.21216900863578L145.45364791666668,101.28867142325751L145.54951770833333,101.35497501128151L146.14710607638887,101.49006526614691L146.35482395833333,101.68334778523749L146.37080225694447,101.6677139683903L146.40275885416668,101.69061844104758L146.49862864583332,101.8521609415784L146.83417291666666,101.94658353141575L147.12178229166665,101.9639938033208L147.56917465277778,102.19824628985309L147.7609142361111,102.42933376222919L147.9047189236111,102.51777737686868L148.44798107638888,102.72216669211097L148.86341684027778,102.91999214311626L148.92733003472222,103.00090861774513L148.95928663194442,103.06168570831699L149.16700451388888,103.15215245669276L149.24689600694444,103.18668516211429L149.39070069444443,103.29614826747155L149.67831006944445,103.42201035322897L150.2918767361111,103.57617503975492L150.46763802083333,103.60814535030595L150.48361631944445,103.820442976467L150.93100868055555,103.7887704577604L150.99492187500002,103.81834245064704L151.02687847222222,103.98960897992674L151.21861805555557,104.12780358861347L151.60209722222223,104.15126406440291L151.79383680555557,104.23302146450615L151.92166319444445,104.22472647782628L152.01753298611112,104.26475991661535L152.19329427083335,104.36241550594788L152.32112065972223,104.33042727937887L152.35307725694443,104.39076253460293L152.4489470486111,104.3924055501938L152.99220920138887,104.45445505530387L153.1360138888889,104.55519841543624L153.1679704861111,104.7048046215834L153.21590538194445,104.70087111261083L153.7112326388889,104.82839278867934L153.80710243055557,104.86070651792309L154.05316822916666,104.93059978443559L154.06914652777778,104.73309997278677L155.1237142361111,104.84467729334385L155.17164913194443,104.84264855857163L155.58708489583336,105.00309013828786L155.66697638888888,105.0897390777954L156.19426024305557,105.28009458567567L156.21023854166668,105.33210797194593L156.62567430555558,105.30419781153529L156.89730538194445,105.3525724412424L156.9612185763889,105.40324437658708L157.08904496527776,105.48020467891004L157.16893645833332,105.533635985743L157.18491475694444,105.66844392559963L157.2807845486111,105.67187458282586L157.60035052083336,105.84270382508385L157.8080684027778,106.02232517876912L157.90393819444444,106.04105785511479L158.29380868055554,106.24869414986105L158.34174357638886,106.24416317067904L159.25250659722224,106.36498517315161L159.98750833333335,106.50046842808342L160.2112045138889,106.67724941079133L160.33903090277778,106.70298335655792L160.70653177083332,106.76844088696686L160.72251006944444,106.92652330079181L161.01011944444446,107.03731525764425L161.42555520833335,107.12492087079363L161.77707777777778,107.24284116962274L162.0710784722222,107.27266516863389L162.08705677083333,107.15800697517437L162.53444913194443,107.31433211050782L162.66227552083333,107.44487747669581L162.67825381944445,107.43170666449L162.91792829861112,107.37478800281896L163.12564618055555,107.43496007469483L163.54108194444444,107.42865677532372L163.8926045138889,107.37960834730175L163.98847430555557,107.47792748980999L164.11630069444445,107.5008869641269L164.1961921875,107.56166125427545L164.27608368055556,107.59906204644568L165.0430420138889,107.65568226550522L165.09097690972223,107.65362199250457L165.26673819444446,107.6528751052956L165.490434375,107.82003163085251L165.81000034722223,107.86348537511674L166.0241095486111,107.89111154393038L166.10400104166666,107.9230329975443L166.75911128472225,108.00111505135231L166.82302447916666,108.07528584994233L167.3023734375,108.20124291223625L167.51009131944443,108.25052651877618L167.78172239583336,108.24794025908551L167.92552708333332,108.28047048623385L168.21313645833334,108.33875841448398L168.30900625,108.43418278710051L168.4528109375,108.4765503103146L169.13987777777777,108.54910856830905L169.3316173611111,108.7176977890009L169.36357395833332,108.78504221249516L169.4754220486111,108.8620246782245L169.977140625,108.96113602168214L170.04105381944444,109.04042981638689L170.5363810763889,109.13709301140915L170.63225086805556,109.24755795044359L170.91986024305555,109.38105664221298L171.01573003472222,109.25548493318256L171.46312239583332,109.28955193936882L171.49507899305556,109.37077759339611L171.8466015625,109.4203217465236L171.87855815972222,109.4966338303627L172.03834114583333,109.48162783624183L172.21410243055556,109.57609822106723L172.59758159722224,109.62046150564026L172.75736458333333,109.55329982317717L173.2686701388889,109.62630325497291L173.34856163194445,109.70045207110692L173.46040972222224,109.78637019750272L173.63617100694447,109.79680977608335L173.72245381944444,109.93774352458925L174.08995468749998,110.11928215469388L174.15386788194442,110.27268288692073L174.87289131944445,110.4178955841937L175.08060920138888,110.3589505706585L175.17647899305558,110.47386247759218L175.2563704861111,110.52726192148293L175.5120232638889,110.63665894222616L175.94343732638887,110.72927305916619L176.1990901041667,110.81039356337631L176.34289479166665,110.92544399209694L176.45474288194444,110.99832943409892L176.534634375,111.11651988879004L177.28561440972223,111.25287299174724L177.34952760416667,111.27531481189686L177.83526788194445,111.39289882659783L178.0270074652778,111.49822802229082L178.44244322916666,111.44194410420462L178.490378125,111.56676938877823L178.6022262152778,111.57157475660836L178.65016111111112,111.5472902987263L178.73005260416664,111.6120567179897L178.7939657986111,111.73044105092663L178.95374878472222,111.81902838435809L179.01766197916666,111.95171942853749L179.14548836805554,111.95423904155871L179.43309774305555,112.01849684198248L180.05625138888888,112.01792869000106L180.24799097222223,112.11865468666203L180.27994756944443,112.12651832085665L180.39179565972225,112.11186354757506L180.55157864583333,112.23800956852071L180.56755694444442,112.23717528671716L180.6314701388889,112.21677879465938L180.72733993055556,112.2261394883804L180.77527482638888,112.28557838136751L180.91907951388887,112.27149318251186L181.03092760416666,112.3522538514855L181.14277569444442,112.4560217652841L181.23864548611112,112.4193621920962L181.25462378472224,112.39697031698913L181.35049357638889,112.42530978175729L181.43038506944444,112.48071220936853L181.5805810763889,112.46897042614071L182.07590833333333,112.61138428511254L182.4434092013889,112.62712443426857L182.4753657986111,112.63102545364086L182.68308368055554,112.71961345566635L182.90677986111112,112.74625517555923L182.93873645833332,112.78356203096547L183.19438923611114,112.90369599800741L183.21036753472222,112.9780627002252L183.22634583333334,113.11900551964894L183.9933041666667,113.16555738997455L184.13710885416666,113.28485204486074L184.28091354166668,113.28746594691592L184.4406965277778,113.27578802436678L184.87211059027777,113.14610718480549L184.99993697916668,113.27416299993845L185.09580677083332,113.35441784906523L185.30352465277778,113.35775898109837L185.8212215277778,113.3954260771516L186.10883090277778,113.49134610867974L186.12480920138887,113.48882015090686L186.17274409722222,113.46882725824062L186.44437517361112,113.47418003290387L186.63611475694444,113.523119854173L186.65209305555555,113.5766868848975L186.76394114583331,113.63286584058771L187.14742031249997,113.64920508932116L187.17937690972224,113.6645696416054L187.4190513888889,113.76259729156298L187.4350296875,113.77396619174493L187.72263906249998,113.85229997713367L187.9782918402778,113.86141060574377L188.13807482638887,113.91405191011526L188.37774930555554,113.97684235560303L188.55351059027777,113.99070971225476L188.7612284722222,114.12749126353529L188.96894635416666,114.17893345420765L189.24057743055556,114.16693670994407L189.35242552083332,114.32412707560155L189.6624045138889,114.34459370111206L189.8221875,114.50826948446465L190.01392708333333,114.43848130253967L190.02990538194445,114.41753866238943L190.52523263888887,114.49235139121461L190.54121093749998,114.59054203384679L190.5571892361111,114.68768190445387L190.7169722222222,114.74624025750816L190.92469010416667,114.75931713192787L191.02055989583334,114.86613277363784L191.14838628472222,114.82685915004842L191.2442560763889,115.03306272437248L192.36273697916664,115.09716520250271L192.79415104166668,115.0477473690087L193.2894782986111,115.06079325174477L193.36936979166666,115.0628353859422L193.55152239583336,115.06321414805151L194.36641562499997,115.1256131683026L194.39837222222224,115.16788859172215L194.6700032986111,115.2931676032795L194.7818513888889,115.28059393407896L194.94163437499998,115.38049917131941L195.6446795138889,115.39069553185254L195.82044079861112,115.3497741487711L196.0760935763889,115.39333033939832L196.81109531250002,115.37110388263993L196.85903020833334,115.36718126918004L196.87500850694445,115.5260122774402L197.64835815972222,115.61461232065963L197.79216284722224,115.60810917904823L197.96792413194444,115.60668551218792L198.44727309027778,115.6367250416815L198.54314288194442,115.67701812417044L198.55912118055554,115.7770441042538L198.65499097222224,115.79156374549059L199.3420578125,115.86800049335176L199.6136888888889,115.97784829220309L200.14097274305556,116.00222879632676L200.30075572916667,116.15930700581909L200.4924953125,116.34066327380705L200.6203217013889,116.46392501339847L200.85999618055556,116.54191091619337L201.14760555555554,116.59341130869628L201.44160625,116.69532061397628L201.60138923611112,116.76170338099294L201.63334583333332,116.718665598332L202.62400034722222,116.68933445937608L202.78378333333333,116.81191696875746L202.8956314236111,116.9580938714274L202.97552291666668,116.96887086696508L203.23117569444446,116.87946696008275L203.34302378472222,116.9488695477889L203.3590020833333,117.05031050825383L203.55074166666665,117.03645553387943L203.64661145833333,117.1393821969904L204.25378680555556,117.12963607060388L204.78107065972225,117.16234686494278L205.65029010416666,117.32487635456836L205.7142032986111,117.47343513730947L206.91257569444443,117.55301653600293L207.1202935763889,117.59416240199846L207.64757743055557,117.64779893165048L207.66355572916666,117.6700813409115L207.74344722222222,117.69743895831402L207.87127361111112,117.72063979414068L208.1588829861111,117.69467652233934L208.79801493055558,117.42687573813221L209.17190711805557,117.42381263057598L209.26777690972222,117.42798988533399L209.28375520833333,117.4735681576824L209.41158159722224,117.55872131606515L209.8270173611111,117.55725395210752L210.00277864583333,117.62638086439898L210.60995399305557,117.73798246701703L210.6738671875,117.77595373555062L210.76973697916668,117.66512562689391L210.88158506944444,117.68520152407754L210.89756336805556,117.63352432220547L211.08930295138887,117.73975783045674L211.3769123263889,117.7898111706624L211.82430468750002,117.86277983373974L212.00006597222225,117.99096800388358L212.35158854166664,118.01028988841476L212.5593064236111,118.04747743519647L212.57528472222225,118.13726269497083L212.7031111111111,118.13222880166842L212.89485069444444,118.18659390835882L213.0929815972222,118.25038912610982L213.57233055555557,118.17730458269679L213.73211354166665,118.1140219153305L213.81200503472223,118.21408206624898L214.35526718749998,118.25884196367063L214.43515868055556,118.2420250468713L214.46711527777776,118.23782568272789L214.59494166666667,118.33659370175306L214.6428765625,118.32847726353792L214.67483315972223,118.2144948909315L214.73874635416666,118.27588197612175L215.074290625,118.43481249662385L215.1062472222222,118.44866907005374L215.31396510416667,118.56153630689388L215.6814659722222,118.68698548650667L215.69744427083333,118.63824643139608L216.16081493055555,118.6740958092432L216.38451111111112,118.63387262146584L216.5123375,118.57061388274991L217.030034375,118.66254013739456L217.54133993055558,118.59842001281496L218.38818975694446,118.70148784469404L218.65982083333333,118.73505082707854L219.0273217013889,118.79651165527862L219.25101788194445,118.90374610216159L219.3468876736111,118.83378543163423L219.49069236111112,118.86962802602613L219.79428003472222,118.9471796892274L219.82623663194445,119.03102747778844L220.32156388888887,119.07241395417401L220.3535204861111,119.04618949437966L220.41743368055558,119.11922572898895L220.6251515625,119.22108798703235L220.75297795138889,119.29956899197295L220.80091284722224,119.34393383341816L220.86482604166667,119.45473990552681L221.11089184027776,119.50597186627685L221.25469652777778,119.59277849029702L221.35056631944445,119.6226153702845L221.4304578125,119.64268367375627L221.94176336805555,119.73507127957463L222.0216548611111,119.76216771566584L222.2932859375,119.86038579071675L222.51698211805555,119.90038404667001L222.53296041666667,120.01137599642986L222.75665659722225,120.05488875768665L222.78861319444445,120.04288211148138L222.8685046875,120.07900896285014L223.15611406250002,120.13764394299884L223.4277451388889,120.14764380849428L223.66741961805556,120.24836852880702L223.98698559027778,120.31713479583533L224.14676857638887,120.34859880309696L224.24263836805557,120.33324147406299L224.3225298611111,120.34930219685023L224.45035625,120.4018485401942L225.3834888888889,120.47137689847375L225.71903315972222,120.44433359605488L225.91077274305556,120.41955771937836L226.02262083333335,120.41054315538715L226.08653402777776,120.46749904316243L226.58186128472224,120.51985231221313L226.98131875,120.48389955784928L227.02925364583334,120.49737496720769L227.15708003472224,120.49446705605831L227.4127328125,120.60491574589295L227.5565375,120.67538740053693L228.05186475694444,120.78375372551325L228.08382135416667,120.82615078682686L228.1477345486111,120.86047505242145L228.24360434027778,120.8467379468098L228.2755609375,120.88960287107105L228.2915392361111,120.92093855349435L228.7389315972222,121.03642505315642L228.87314930555556,121.13523524082845L228.9530407986111,121.11605215817437L229.06488888888887,121.18630925262005L229.1288020833333,121.26144429188804L229.51228125,121.29502151646412L229.57619444444447,121.39584816674497L229.60815104166667,121.3314327025005L229.94369531249998,121.4537149137968L229.95967361111113,121.47040680909703L229.97565190972225,121.54706687722415L230.1993480902778,121.60882470787844L230.29521788194444,121.64133977892254L230.3910876736111,121.71453440994667L230.82250173611112,121.8389814412666L230.85445833333333,121.86588538741867L230.88641493055556,122.00095081927827L231.5575034722222,122.0424344533806L232.06880902777777,122.11154848364772L232.81020208333334,122.1486551830005L233.4653123263889,122.22227480085799L233.56118211805557,122.24879563513159L233.64107361111112,122.31946451391812L233.70498680555554,122.38053125290199L234.056509375,122.39603623474537L234.5198800347222,122.44765086326457L234.82346770833334,122.47316570699724L235.70227413194445,122.57680075546763L235.84607881944444,122.61943449299524L236.73127656250003,122.58377759745244L236.9070378472222,122.53536274558063L237.5941046875,122.59328545908318L237.65801788194443,122.59069468031466L237.92964895833333,122.64399568190214L238.2811715277778,122.64635442911845L238.72856388888889,122.6613210590577L238.79247708333335,122.64886840416774L238.82443368055556,122.7603451743607L238.87236857638888,122.80597953758492L239.12802135416666,122.83818259135849L239.3357392361111,122.84763431882463L239.463565625,122.84249359290358L239.52747881944444,122.90830232293558L239.55943541666664,122.96724819159398L239.6233486111111,122.97539103827125L239.751175,122.98118328486754L239.76715329861113,123.04812190793233L239.83106649305557,123.10813022981581L239.92693628472222,123.1634514613709L239.94291458333333,123.26621376898987L240.58204652777778,123.31764925357568L240.63637274305555,123.37327034393141L242.17028940972224,123.43294706099377L242.33007239583333,123.42083038354829L242.52181197916664,123.46713723887652L242.79344305555557,123.49167307015182L242.90529114583333,123.57067114520544L243.04909583333333,123.65298484040382L243.1609439236111,123.71414891960632L243.3367052083333,123.72717093977226L243.8799673611111,123.75724495091683L244.0237720486111,123.7687294388417L244.73320850694446,123.83207988538167L245.3563621527778,123.86612070925791L245.58005833333334,123.96179223318927L245.83571111111112,124.04692088850166L246.42690815972222,124.10413138404343L247.01810520833334,124.17043056131433L247.49745416666667,124.2077001746542L247.64125885416667,124.21037650764498L247.65723715277778,124.17047957135168L247.94484652777777,124.25505372393454L248.07267291666668,124.34462498688025L248.3602822916667,124.45025103457456L248.54243489583334,124.45610286328214L248.60634809027778,124.45486799405971L249.10167534722223,124.53474215221706L249.40526302083333,124.56012221810273L249.43721961805556,124.6270993582823L249.46917621527777,124.75199515938772L249.4851545138889,124.6609069092095L249.69287239583332,124.71814627261413L250.36396093750002,124.7641482005645L250.58765711805557,124.80380551496606L250.90722309027777,124.87265865849555L251.27472395833334,124.93617332531693L251.6262465277778,124.92705203646935L251.96179079861113,124.91697837379898L252.42516145833335,124.90585649297125L252.70318385416667,125.0035119734932L252.99079322916668,125.04226884401285L253.10264131944444,125.06581990600907L253.35829409722223,125.13923573286698L253.5979685763889,125.19093490493682L253.77372986111112,125.28647788778127L253.99742604166667,125.34203927595719L254.4927532986111,125.45510284337368L254.65253628472223,125.565204919422L254.79634097222223,125.6588327199442L255.21177673611112,125.65668368480681L255.67514739583333,125.6402276696825L255.85090868055556,125.78624562588865L256.38458385416664,125.79093837919149L256.43251875,125.82469075848576L256.7361064236111,125.90239996180178L256.9118677083333,126.02959194379869L256.95980260416667,126.02883680610458L257.1355638888889,126.0365470604215L257.2314336805556,126.10034215551123L257.32730347222224,126.18666990654471L257.34328177083336,126.2628311769291L257.63089114583335,126.25333209187968L257.93447881944445,126.26537629445205L257.99839201388886,126.26168538544239L258.1102401041667,126.28812927815271L258.2061098958333,126.3831942580705L258.39784947916667,126.28670174411198L258.44578437499996,126.40050131284116L258.5736107638889,126.49230783032453L258.6694805555556,126.55545529911267L258.68545885416665,126.57138741052127L259.22872100694445,126.6319551507813L259.3405690972222,126.72157136096632L259.91578784722225,126.74580098007517L260.5453328125,126.8419506248583L260.6731592013889,126.88238963156631L260.7530506944444,126.9214160047238L260.86489878472224,126.98473673314545L260.94479027777777,126.9871599099234L260.9607685763889,127.04721818866837L261.08859496527776,127.06958514237239L261.2963128472222,127.12365874635621L261.47207413194445,127.15852780006475L261.48805243055557,127.1986718602447L261.5679439236111,127.1698822465936L261.7916401041667,127.18510558780903L261.91946649305555,127.20617660820409L261.93544479166667,127.25023642426713L262.06327118055555,127.3037468069875L262.9900125,127.4079128908787L263.0219690972222,127.45786559330473L263.4054482638889,127.50341542863832L263.64512274305554,127.44411868703871L263.66110104166665,127.457365208761L263.852840625,127.50106735715443L264.30662430555554,127.59876304294073L265.0416260416667,127.6475007594711L265.3931486111111,127.72096013266413L266.2399984375,127.76134528358084L266.6234776041667,127.80840862377238L266.84717378472226,127.81548964389735L266.9909784722222,127.86037497975212L267.2306529513889,127.82828020501132L267.50228402777776,127.96474265563056L267.63011041666664,127.98096878693735L268.02956788194444,128.09113565406724L268.17337256944444,128.15990199339248L268.1797638888889,128.16550392086944" style="fill: none;" fill="none"></path></g><g><path style="fill: none;" fill="none" stroke="none" stroke-width="1px"></path></g></g></g></g><g opacity="0.2"><g><g><g><path stroke="rgb(204, 51, 17)" stroke-width="2px" d="M35.871280381944445,-9.801452636718746L36.08538958333333,10.003112792968754L36.45289045138889,-72.40853881835939L36.99615260416666,-110.46105957031251L37.044087499999996,57.035293579101555L37.4755015625,62.25019836425781L37.66724114583334,52.43310546874999L37.79506753472222,13.936676025390616L37.98680711805555,-30.33779907226561L38.11463350694445,33.19720458984374L38.370286284722226,4.94058227539063L38.578004166666666,11.609283447265625L38.9135484375,87.37429809570311L38.929526736111114,37.02143859863281L39.073331423611116,50.21784973144532L39.313005902777775,-22.829650878906264L39.37691909722223,49.427276611328125L39.53670208333333,8.777404785156241L39.632571875000004,-0.7058715820312571L40.08635555555555,71.75143432617188L40.453856423611114,32.73829650878907L40.53374791666666,21.181701660156254L40.56570451388889,34.041534423828125L40.821357291666665,89.66192626953125L40.91722708333334,45.02783203125L41.36461944444444,39.9857177734375L41.42853263888889,62.68951416015625L41.460489236111115,-23.071472167968768L42.22744756944444,-13.381744384765625L42.45114375,145.52313232421875L42.5949484375,161.18560791015625L42.72277482638889,93.39920043945312L43.4577765625,136.47982788085938L43.52168975694445,107.52790832519531L44.13525642361112,61.765899658203125L44.31101770833333,61.58479309082031L44.42286579861111,103.44300842285156L44.51873559027778,17.479248046874993L44.774388368055554,111.71273803710939L45.22178072916667,29.842346191406246L45.621238194444445,66.23641967773438L45.765042881944446,21.949981689453125L46.08460885416667,52.13870239257812L46.97939357638889,67.22390747070314L47.88056961805555,39.45474243164062L47.96046111111111,81.57250976562499L48.136222395833336,2.187622070312507L48.24807048611111,95.64350891113281L48.31198368055556,84.94711303710938L48.34394027777778,-27.91000366210938L48.487744965277784,30.170135498046868L48.79133263888888,49.82478332519531L49.031007118055555,15.077453613281254L49.12687690972222,68.37031555175781L49.46242118055556,45.83393859863281L49.63818246527777,87.2509307861328L49.6701390625,86.66082763671875L49.893835243055555,95.75457763671875L50.00568333333334,27.509887695312493L50.30927100694445,100.4441680908203L50.32524930555556,105.94277954101561L50.51698888888889,117.16427612304688L50.676771875,26.125274658203125L50.70872847222222,78.6983642578125L50.83655486111111,-28.0841064453125L51.37981701388889,66.16702270507812L51.491665104166664,157.1403350830078L51.81762239583333,93.06546020507811L51.9134921875,84.4078369140625L51.945448784722224,94.29396057128906L51.99338368055556,149.75901794433594L52.057296875,92.00160217285155L52.15316666666667,69.08407592773438L52.21707986111111,75.10964965820312L52.64849392361111,89.94515991210939L53.07990798611111,87.55450439453126L53.39947395833334,134.15835571289062L53.70306163194445,76.47047424316405L53.878822916666664,53.99502563476562L53.894801215277774,56.31555175781251L54.549911458333334,99.22969055175781L54.901434027777775,79.64068603515625L55.18904340277778,25.577270507812504L55.20502170138889,61.22155761718749L55.77065347222222,52.62411499023437L55.89847986111111,67.5032958984375L56.02630625,104.86215209960938L56.074241145833334,99.08840942382812L56.63348159722222,93.43702697753905L56.68141649305555,117.33865356445312L56.905112673611114,72.427978515625L56.95304756944444,103.03265380859374L57.0329390625,125.71865844726564L57.22467864583333,133.92742919921875L57.40043993055556,80.8521728515625L57.8957671875,38.376663208007805L58.02359357638889,135.9012451171875L58.58283402777778,56.24336242675781L58.822508506944445,125.17544555664062L59.09413958333333,98.84333801269531L59.12609618055556,106.1228790283203L59.17403107638889,-3.4080810546875036L59.23794427083333,109.92166137695312L60.25096840277778,111.620849609375L60.282925000000006,71.69306945800781L60.47466458333333,41.92962646484376L60.522599479166665,55.75715637207031L61.40140590277778,118.26454162597656L61.60912378472222,143.15457153320312L61.720971875000004,126.59747314453125L62.232277430555555,89.54400634765626L62.28021232638889,96.11276245117188L62.37608211805556,130.93756103515625L62.392060416666666,147.43478393554688L62.82347447916667,111.56025695800781L62.88738767361111,83.635986328125L62.96727916666667,138.63217163085938L62.99923576388889,89.21345520019531L63.20695364583333,142.840087890625L63.22293194444445,70.6337890625L63.50095434027778,37.90942382812501L64.95497951388889,124.87776184082031L65.09878420138888,135.21754455566406L65.25856718749999,80.9737548828125L65.43432847222222,129.94296264648438L65.67400295138889,57.67858886718749L65.73791614583334,142.8230438232422L66.05748211805556,124.45198059082031L66.93628854166666,103.6654815673828L67.17596302083334,108.70137023925781L67.2718328125,105.57427978515625L67.645725,95.53515624999999L67.72561649305555,144.72314453125L68.92398888888889,118.74555969238281L69.29148975694444,73.50378417968749L69.56312083333333,104.76167297363281L70.12236128472222,103.68415832519531L70.7934498263889,104.73994445800781L70.87334131944444,98.61323547363281L71.08105920138888,54.612152099609375L71.20888559027777,116.50935363769531L71.25682048611111,146.72039794921875L71.56679947916666,75.6524658203125L71.77451736111111,120.79212951660156L71.85440885416666,160.74603271484375L72.07810503472223,67.3233642578125L72.11006163194445,174.3215103149414L72.28582291666667,100.62873840332031L73.03680295138888,104.022216796875L73.05278125,120.94827270507811L73.38832552083333,133.7110595703125L73.83571788194445,94.81216430664062L73.96354427083332,97.05934143066408L74.09137065972223,106.86256408691406L74.52278472222223,138.51870727539062L74.58669791666668,187.04296875L74.69854600694445,87.9306640625L74.74648090277778,150.3438720703125L74.89028559027778,140.41131591796875L75.12996006944445,142.49972534179688L75.2098515625,69.89387512207031L75.26417777777779,124.20950317382812L75.45591736111112,119.82225036621095L75.53580885416666,83.6978759765625L75.61570034722222,165.97421264648438L75.63167864583333,75.53474426269531L75.83939652777777,73.54719543457033L75.8553748263889,110.41883850097656L75.871353125,123.732421875L76.03113611111111,52.53413391113282L76.07907100694445,87.92633056640625L76.23885399305556,106.32490539550781L76.35070208333333,105.19104003906249L76.78211614583334,75.59980773925781L77.13363871527777,89.00666809082031L77.2934217013889,94.41902160644531L77.56505277777777,87.85964965820314L77.5810310763889,153.81605529785156L78.52375069444444,139.73843383789062L79.0190779513889,75.22737121582031L79.06701284722222,141.43630981445312L79.17886093749999,81.65536499023439L79.21720885416666,121.49749755859375L79.34503524305555,157.1315155029297L80.08003697916666,168.7134246826172L80.31971145833333,81.233154296875L80.52742934027778,103.517822265625L81.10264809027778,136.59593200683594L81.11862638888888,88.10025024414062L81.4222140625,127.01600646972656L81.4381923611111,98.8563232421875L81.45417065972222,28.255126953124993L81.67786684027779,135.6990509033203L81.69384513888889,24.570220947265618L81.7098234375,102.78749084472658L81.82167152777778,94.84846496582033L82.09330260416667,123.34210205078124L82.54069496527778,109.54837036132812L82.84428263888888,73.72962951660156L82.95613072916666,120.77796936035158L83.03602222222221,96.97473144531249L83.23415312499999,119.21505737304688L83.28208802083334,145.3756103515625L83.61763229166667,91.90710449218749L84.00111145833333,177.23280334472656L84.04904635416668,79.52383422851562L84.6562217013889,155.6336212158203L85.19948385416667,0.7757568359375089L85.45513663194444,143.33798217773438L85.74274600694444,127.49360656738281L85.91850729166667,160.8980712890625L86.04633368055555,107.88533020019533L86.22209496527778,149.24757385253906L86.44579114583333,98.38735961914062L87.12327100694444,72.576904296875L87.47479357638889,148.7330322265625L87.49077187500001,118.69221496582031L87.60261996527778,144.59429931640625L87.6345765625,87.01821899414062L87.74642465277779,73.92231750488281L88.16186041666667,67.51211547851562L88.80099236111111,154.72207641601562L88.84892725694444,72.445068359375L88.96077534722221,102.9263916015625L89.15251493055555,164.13626861572266L89.34425451388888,102.676513671875L89.55197239583333,41.821807861328125L89.56795069444445,153.91497802734375L89.59990729166667,91.42242431640626L89.82360347222222,96.5959014892578L90.20708263888889,123.37294006347656L90.25501753472221,72.78311157226562L90.28697413194445,112.76197814941406L90.31893072916667,87.71461486816406L90.36686562499999,98.35528564453126L90.43077881944444,90.0869140625L90.47871371527776,62.511260986328125L90.7823013888889,141.26095581054688L91.12423697916667,109.6817626953125L91.20412847222222,127.94509887695312L91.69945572916667,102.2125244140625L91.79532552083333,127.13906860351562L91.9071736111111,104.30413818359374L91.93913020833332,137.57557678222656L92.24271788194444,99.46484375L93.29728559027778,39.388916015625L93.3292421875,98.59193420410155L93.6328298611111,136.32717895507812L94.16011371527777,141.51766967773438L94.30391840277778,195.1348876953125L94.36783159722224,129.50009155273438L94.46370138888888,147.3078155517578L94.65544097222222,80.077392578125L94.70337586805556,108.58023071289062L95.17313784722222,143.03915405273438L95.31694253472222,176.54241943359378L95.41281232638889,151.15579223632812L95.90813958333334,151.50341796875L95.94009618055554,182.48333740234375L96.08390086805555,136.2183837890625L96.25966215277778,133.2021026611328L96.35553194444445,32.988189697265625L96.46738003472223,109.79760742187501L97.05857708333335,91.32510375976562L97.45803454861112,43.45684814453125L97.55390434027777,157.79144287109375L97.64977413194444,116.55319213867188L97.69770902777778,98.40383911132814L98.04923159722222,148.6897430419922L98.60847204861112,102.07705688476562L98.78423333333333,31.991088867187507L99.33388680555555,85.43627929687501L99.685409375,110.752685546875L99.73334427083333,132.58416748046875L99.81323576388888,83.97833251953125L100.78791197916667,118.61744689941408L100.86780347222222,124.62643432617188L100.94769496527778,114.3070831298828L101.04356475694443,60.89294433593751L102.01824097222222,126.55339050292967L102.65737291666666,91.31184387207031L102.78519930555557,47.32453918457031L102.95137361111112,130.1268310546875L103.14311319444445,155.67974853515625L103.5106140625,128.9605712890625L104.0858328125,96.2412872314453L104.2456157986111,89.3896484375L104.30952899305555,133.2113037109375L104.70898645833333,134.12002563476562L104.77289965277778,106.921142578125L104.86876944444445,123.83999633789064L105.42800989583333,125.77008056640625L105.47594479166668,97.47183227539062L106.06714184027778,179.81295776367188L106.22692482638888,74.78671264648438L106.5305125,4.702148437499993L106.65833888888888,110.80224609375L106.72225208333333,121.98791503906249L106.75420868055555,105.68750000000001L106.84049149305557,93.62179565429688L106.98429618055556,100.37594604492188L107.35179704861112,107.72082519531249L107.4636451388889,118.6224822998047L107.81516770833333,152.89617919921875L107.92701579861111,104.19660949707031L108.02288559027778,80.74478149414062L108.08679878472222,169.1871337890625L108.10277708333334,169.13928985595703L108.58212604166667,162.39579010009766L108.94962690972221,83.06164550781249L108.98158350694445,120.56228637695314L109.02951840277777,159.18148803710938L109.04549670138888,125.50411987304688L109.17332309027778,123.86811828613281L109.7804984375,171.8464813232422L109.98821631944445,117.52931213378906L110.22789079861111,111.60981750488281L110.53147847222222,99.57881164550781L110.59539166666667,99.04841613769531L110.69765277777778,113.50209045410155L110.84145746527778,149.60671997070312L111.33678472222223,107.91976928710938L111.51254600694445,151.62124633789062L112.0238515625,117.4749755859375L112.40733072916666,138.15719604492188L112.71091840277778,105.97061157226562L112.91863628472223,106.99365234375L112.93461458333333,121.3457489013672L113.06244097222223,125.64826965332031L113.09439756944444,157.27647399902344L113.76548611111112,163.90216064453125L113.82939930555555,135.0970458984375L113.89331250000001,135.2338104248047L114.06907378472224,120.62150573730469L114.08505208333334,73.57891845703126L114.11700868055556,104.43617248535156L114.13298697916666,103.02204895019531L114.63470555555554,98.5199737548828L114.81046684027777,125.535888671875L114.8424234375,89.1885986328125L114.92231493055554,113.12197875976564L114.95427152777778,123.22045898437499L115.13003281249999,117.72207641601562L115.24188090277778,88.92190551757812L115.44959878472223,105.33569335937501L115.6892732638889,138.22723388671875L115.83307795138889,90.335205078125L115.88101284722222,117.09701538085938L116.36036180555556,134.82571411132812L116.72786267361111,137.3332061767578L116.74384097222222,166.19339752197266L116.79177586805555,86.98196411132812L116.82373246527777,108.70623779296875L116.88764565972222,117.98463439941406L116.9835154513889,148.80398559570312L117.4309078125,112.92160034179688L117.5587342013889,93.31880187988281L117.92623506944445,136.8858184814453L118.08601805555556,160.85186767578125L118.74751961805556,146.16140747070312L118.89132430555556,92.39404296875001L118.97121579861111,127.74441528320312L119.69023923611111,124.35246276855469L119.77013072916667,123.68727111816406L119.96187031250001,154.58595275878906L120.34534947916666,181.8853302001953L120.69687204861111,113.63638305664064L121.28806909722222,159.86480712890625L122.29470190972222,100.49891662597656L123.17989965277778,127.35443115234375L123.29174774305555,140.35116577148438L123.72316180555555,63.35827636718751L123.73914010416668,163.66708374023438L124.10664097222222,166.61297607421875L124.2344673611111,143.30038452148438L124.92153420138888,129.0653839111328L125.46479635416667,144.42662048339844L125.67251423611111,150.0251007080078L125.72044913194445,95.52333068847656L126.76542986111112,119.03314208984374L126.89325625,155.39520263671875L127.02108263888888,134.63925170898438L127.29271371527777,130.38003540039062L127.43651840277776,141.56434631347656L127.54836649305557,126.03684997558594L127.64423628472223,109.80909729003906L127.7401060763889,139.82254028320312L128.3153248263889,71.72671508789062L128.44315121527777,158.91305541992188L128.84260868055554,127.69160461425781L128.85858697916666,67.86474609375001L129.36989253472223,134.03187561035156L129.40184913194443,188.71971130371094L129.72141510416668,174.31793212890625L129.8013065972222,142.34036254882812L129.83326319444444,184.33749389648438L129.86521979166668,114.94599914550781L130.28065555555554,142.74221801757812L130.862265625,134.86300659179688L131.18183159722224,108.85458374023436L131.46944097222223,106.54803466796874L132.04465972222224,172.51356506347656L132.07661631944444,141.69293212890625L132.38020399305555,120.17114257812499L132.8915095486111,113.64344787597656L132.92346614583334,184.65614318847656L133.13118402777778,144.69528198242188L133.3069453125,132.7222900390625L133.32292361111112,166.27808380126953L133.40281510416665,95.29304504394531L133.4827065972222,128.92787170410156L134.07390364583333,152.4569549560547L134.35192604166667,136.3680877685547L134.65551371527778,155.88021850585938L134.91116649305556,115.3240966796875L135.1348626736111,142.53021240234375L135.42247204861113,137.2185821533203L135.47040694444445,135.71176147460938L136.01366909722222,117.72921752929688L136.06160399305554,121.45523071289064L136.20540868055556,140.93768310546875L136.30127847222224,124.31765747070312L136.38116996527776,188.9758071899414L136.58888784722222,125.00885009765625L136.66877934027778,161.09922790527344L136.92443211805556,145.82794189453125L137.00432361111112,122.72708129882812L137.08421510416667,155.75473022460938L137.1481282986111,46.32624816894531L137.4037810763889,116.53662109375L137.94704322916667,107.6334991455078L138.32093541666666,128.1485137939453L138.99202395833333,184.07591247558594L139.0719154513889,168.14488220214844L139.2316984375,112.3939208984375L139.29561163194444,132.43450927734375L139.55126440972222,147.43702697753906L139.72702569444445,104.03442382812501L140.1105048611111,125.84509277343751L140.38213593749998,94.9872589111328L140.68572361111111,122.82888793945314L141.02126788194445,129.75787353515625L141.14909427083333,201.81021118164062L141.29289895833332,152.36163330078125L141.5485517361111,139.99703979492188L142.17170538194443,127.33163452148438L142.194075,149.41256713867188L142.24200989583332,146.197998046875L142.41777118055555,159.7332763671875L142.52961927083334,140.9124298095703L143.13679461805555,91.32244873046875L143.39244739583333,115.29727172851564L143.47233888888888,54.658523559570305L143.50429548611112,83.72669982910156L143.82386145833334,135.5516357421875L143.99962274305557,147.8252410888672L144.23929722222223,77.74226379394531L144.39908020833334,147.6726837158203L145.40571302083336,150.81687927246094L145.45364791666668,130.3875274658203L145.54951770833333,126.61557006835938L146.14710607638887,153.04075622558594L146.35482395833333,175.5596466064453L146.37080225694447,95.68252563476561L146.40275885416668,110.473388671875L146.49862864583332,163.89542388916016L146.83417291666666,138.26931762695312L147.12178229166665,108.672119140625L147.56917465277778,192.59878540039062L147.7609142361111,191.75013732910156L147.9047189236111,136.75750732421875L148.44798107638888,181.97373962402344L148.86341684027778,179.7473602294922L148.92733003472222,134.47499084472656L148.95928663194442,126.73922729492188L149.16700451388888,138.45132446289062L149.24689600694444,116.68200683593751L149.39070069444443,146.14071655273438L149.67831006944445,152.76171875L150.2918767361111,164.10447692871094L150.46763802083333,116.17974853515624L150.48361631944445,187.43029785156253L150.93100868055555,91.29591369628906L150.99492187500002,115.50054931640625L151.02687847222222,171.75067901611328L151.21861805555557,158.887451171875L151.60209722222223,113.46162414550781L151.79383680555557,136.72792053222656L151.92166319444445,100.9228515625L152.01753298611112,120.22439575195311L152.19329427083335,143.35218811035156L152.32112065972223,91.53968811035155L152.35307725694443,128.55242919921875L152.4489470486111,105.0513458251953L152.99220920138887,129.37684631347656L153.1360138888889,145.07928466796875L153.1679704861111,164.97328186035156L153.21590538194445,103.11392211914062L153.7112326388889,156.35214233398438L153.80710243055557,117.93594360351564L154.05316822916666,133.2533416748047L154.06914652777778,24.58328247070313L155.1237142361111,150.19142150878906L155.17164913194443,104.01693725585938L155.58708489583336,170.39907836914062L155.66697638888888,140.45909118652344L156.19426024305557,183.0940399169922L156.21023854166668,126.62495422363281L156.62567430555558,93.86209106445312L156.89730538194445,125.21282958984375L156.9612185763889,126.23648071289062L157.08904496527776,137.1668701171875L157.16893645833332,127.56414794921875L157.18491475694444,161.33082580566406L157.2807845486111,107.09040832519533L157.60035052083336,176.57847595214844L157.8080684027778,180.5037384033203L157.90393819444444,113.8196563720703L158.29380868055554,192.58926391601562L158.34174357638886,104.357421875L159.25250659722224,156.74676513671875L159.98750833333335,163.07472229003906L160.2112045138889,180.59913635253906L160.33903090277778,117.4787139892578L160.70653177083332,134.21585083007812L160.72251006944444,173.30469512939453L161.01011944444446,153.62257385253906L161.42555520833335,144.01158142089844L161.77707777777778,156.96176147460938L162.0710784722222,119.8646240234375L162.08705677083333,58.682159423828125L162.53444913194443,173.49644470214844L162.66227552083333,162.7879638671875L162.67825381944445,101.84053039550781L162.91792829861112,83.17939758300781L163.12564618055555,133.04786682128906L163.54108194444444,104.74197387695312L163.8926045138889,86.44538879394531L163.98847430555557,149.49749755859375L164.11630069444445,117.326416015625L164.1961921875,133.6047821044922L164.27608368055556,123.64746093749999L165.0430420138889,131.98326110839844L165.09097690972223,106.76722717285156L165.26673819444446,107.33111572265625L165.490434375,179.92612457275393L165.81000034722223,126.63273620605467L166.0241095486111,119.83952331542967L166.10400104166666,121.74725341796875L166.75911128472225,141.86029052734375L166.82302447916666,140.28033447265625L167.3023734375,162.9630889892578L167.51009131944443,129.70516967773438L167.78172239583336,107.12060546874999L167.92552708333332,122.478515625L168.21313645833334,133.8117218017578L168.30900625,150.19012451171875L168.4528109375,127.03958129882812L169.13987777777777,140.3806915283203L169.3316173611111,182.77288818359378L169.36357395833332,138.40472412109375L169.4754220486111,142.7637939453125L169.977140625,152.6634521484375L170.04105381944444,144.04861450195312L170.5363810763889,151.8677520751953L170.63225086805556,158.14089965820312L170.91986024305555,168.54373931884766L171.01573003472222,53.53601074218751L171.46312239583332,124.42489624023439L171.49507899305556,145.50289916992188L171.8466015625,131.48681640625L171.87855815972222,143.52755737304688L172.03834114583333,102.781494140625L172.21410243055556,151.80905151367188L172.59758159722224,129.4775390625L172.75736458333333,79.45458984375L173.2686701388889,142.3832244873047L173.34856163194445,143.01211547851562L173.46040972222224,148.43267822265625L173.63617100694447,114.49830627441405L173.72245381944444,173.48501586914062L174.08995468749998,192.07486724853518L174.87289131944445,176.13308715820312L175.08060920138888,83.65150451660156L175.17647899305558,162.6021270751953L175.2563704861111,134.78033447265625L175.5120232638889,160.38243103027344L175.94343732638887,152.89381408691406L176.1990901041667,147.7863311767578L176.34289479166665,163.4296417236328L176.45474288194444,144.29974365234375L176.534634375,165.18190002441406L177.28561440972223,173.70046997070312L177.34952760416667,121.56546020507814L177.83526788194445,165.37171173095703L178.0270074652778,159.90814208984375L178.44244322916666,85.54316711425781L178.490378125,169.07179260253906L178.6022262152778,113.78791809082031L178.65016111111112,100.33369445800783L178.73005260416664,141.55340576171875L178.7939657986111,166.5227508544922L178.95374878472222,152.86776733398438L179.01766197916666,173.50788116455078L179.14548836805554,113.12445068359376L179.43309774305555,141.8968048095703L180.05625138888888,111.75344848632812L180.24799097222223,159.06130981445312L180.27994756944443,115.79550170898438L180.39179565972225,105.26649475097656L180.55157864583333,171.2289810180664L180.56755694444442,111.84658813476562L180.6314701388889,102.65689086914061L180.72733993055556,116.61848449707031L180.77527482638888,140.20774841308594L180.91907951388887,105.6473388671875L181.03092760416666,150.37603759765625L181.14277569444442,161.3668975830078L181.23864548611112,95.12057495117186L181.25462378472224,101.81896972656251L181.35049357638889,125.82789611816406L181.43038506944444,138.71133422851562L181.5805810763889,106.90357971191405L182.07590833333333,180.1877212524414L182.4434092013889,120.10418701171876L182.4753657986111,114.48617553710936L182.68308368055554,154.89447021484375L182.90677986111112,125.44374084472656L182.93873645833332,130.58355712890625L183.19438923611114,170.28518676757812L183.21036753472222,148.53778076171875L183.22634583333334,180.5866470336914L183.9933041666667,135.47360229492188L184.13710885416666,170.51385498046875L184.28091354166668,114.54278564453124L184.4406965277778,107.66143798828125L184.87211059027777,50.73274230957032L184.99993697916668,174.9717254638672L185.09580677083332,152.06288146972656L185.30352465277778,114.97097778320314L185.8212215277778,131.60189819335938L186.10883090277778,159.90396118164062L186.12480920138887,112.26528930664064L186.17274409722222,103.77432250976562L186.44437517361112,116.07247924804688L186.63611475694444,137.30421447753906L186.65209305555555,139.6337432861328L186.76394114583331,140.9892578125L187.14742031249997,121.61398315429688L187.17937690972224,121.16207885742188L187.4190513888889,161.6476821899414L187.4350296875,119.33331298828126L187.72263906249998,152.19715881347656L187.9782918402778,118.32575988769531L188.13807482638887,139.73590087890625L188.37774930555554,144.80902099609375L188.55351059027777,120.80708312988281L188.7612284722222,181.43063354492188L188.96894635416666,139.51705932617188L189.24057743055556,108.25180053710938L189.35242552083332,191.90821838378906L189.6624045138889,124.45660400390624L189.8221875,195.45872497558594L190.01392708333333,79.8875732421875L190.02990538194445,104.03865051269531L190.52523263888887,151.60618591308594L190.54121093749998,163.35130310058594L190.5571892361111,162.9754409790039L190.7169722222222,143.88470458984375L190.92469010416667,121.27288818359374L191.02055989583334,168.1243438720703L191.14838628472222,95.22540283203125L191.2442560763889,218.05229949951172L192.36273697916664,147.15475463867188L192.79415104166668,90.30928039550781L193.2894782986111,121.59803771972656L193.36936979166666,116.08715820312501L193.55152239583336,115.25338745117188L194.36641562499997,146.4866485595703L194.39837222222224,136.43601989746094L194.6700032986111,178.38128662109375L194.7818513888889,108.9425048828125L194.94163437499998,165.78981018066406L195.6446795138889,120.54052734375L195.82044079861112,94.66157531738281L196.0760935763889,137.43507385253906L196.81109531250002,104.11238098144531L196.85903020833334,113.37826538085936L196.87500850694445,196.13758087158203L197.64835815972222,160.62537384033203L197.79216284722224,112.30117797851562L197.96792413194444,114.88203430175781L198.44727309027778,130.94166564941406L198.54314288194442,136.22579956054688L198.55912118055554,166.83749389648438L198.65499097222224,123.21052551269533L199.3420578125,154.96145629882812L199.6136888888889,172.212890625L200.14097274305556,128.495361328125L200.30075572916667,196.72623443603518L200.6203217013889,179.8058319091797L200.85999618055556,156.65524291992188L201.14760555555554,143.1084442138672L201.44160625,169.21277618408203L201.60138923611112,151.00318908691406L201.63334583333332,94.49816894531251L202.62400034722222,101.53144836425783L202.78378333333333,180.2198028564453L202.8956314236111,192.64099884033203L202.97552291666668,122.5538330078125L203.23117569444446,70.50469970703124L203.34302378472222,152.98207092285156L203.3590020833333,169.76622009277344L203.55074166666665,109.82978820800783L203.64661145833333,170.72599029541016L204.25378680555556,112.05085754394531L204.78107065972225,134.22381591796875L205.65029010416666,202.17546081542966L205.7142032986111,195.10128784179688L206.91257569444443,159.1753692626953L207.1202935763889,139.13369750976562L207.64757743055557,145.75160217285156L207.66355572916666,129.35592651367188L207.74344722222222,132.05792236328125L207.87127361111112,129.91015625L208.1588829861111,104.04150390625L208.79801493055558,-23.526855468750004L209.17190711805557,115.81013488769531L209.26777690972222,119.63058471679688L209.28375520833333,141.5277099609375L209.41158159722224,162.538818359375L209.8270173611111,116.78146362304688L210.00277864583333,154.2060546875L210.60995399305557,176.8462905883789L210.6738671875,137.90475463867188L210.76973697916668,58.86250305175782L210.88158506944444,128.34637451171875L210.89756336805556,90.16650390625L211.08930295138887,174.2537384033203L211.3769123263889,144.4405059814453L211.82430468750002,156.74868774414062L212.00006597222225,186.36378479003906L212.35158854166664,128.32516479492188L212.5593064236111,137.91712951660156L212.57528472222225,166.15208435058594L212.7031111111111,115.43789672851562L212.89485069444444,147.31008911132812L213.0929815972222,152.45516967773438L213.57233055555557,78.95808410644531L213.73211354166665,84.12550354003906L213.81200503472223,172.00165557861328L214.35526718749998,142.3402862548828L214.43515868055556,109.18653869628906L214.46711527777776,115.97463989257811L214.59494166666667,171.61161041259766L214.6428765625,113.94677734375001L214.67483315972223,56.62820434570312L214.73874635416666,151.47235107421875L215.074290625,204.45294952392578L215.1062472222222,125.95462036132812L215.31396510416667,179.7520751953125L215.6814659722222,186.75608825683594L215.69744427083333,92.1700439453125L216.16081493055555,138.15878295898438L216.38451111111112,96.75363159179688L216.5123375,84.13092041015625L217.030034375,168.75135803222656L217.54133993055558,83.63150024414062L218.38818975694446,174.95469665527344L218.65982083333333,137.06854248046875L219.0273217013889,152.39678955078125L219.25101788194445,177.57669830322266L219.3468876736111,80.5234375L219.49069236111112,138.51315307617188L219.79428003472222,161.48432159423828L219.82623663194445,165.0593719482422L220.32156388888887,141.81019592285156L220.3535204861111,104.62664794921875L220.41743368055558,159.31106567382812L220.6251515625,175.32159423828125L220.75297795138889,162.5580596923828L220.80091284722224,143.81756591796875L220.86482604166667,180.62989807128906L221.11089184027776,147.81362915039062L221.25469652777778,167.5955810546875L221.35056631944445,136.13528442382812L221.4304578125,130.758056640625L221.94176336805555,170.94757080078125L222.0216548611111,134.79437255859375L222.2932859375,174.39215087890625L222.51698211805555,142.1256103515625L222.53296041666667,181.73380279541016L222.75665659722225,144.2715301513672L222.78861319444445,113.35537719726562L222.8685046875,140.217041015625L223.15611406250002,152.84817504882812L223.4277451388889,125.73065185546875L223.66741961805556,176.52820587158203L223.98698559027778,158.77049255371094L224.14676857638887,137.95677185058594L224.24263836805557,111.73208618164062L224.3225298611111,129.35145568847656L224.45035625,149.87750244140625L225.3834888888889,159.50347900390625L225.71903315972222,105.25082397460938L225.91077274305556,106.48910522460938L226.02262083333335,115.33808898925781L226.08653402777776,152.54116821289062L226.58186128472224,150.0244598388672L226.98131875,100.20643615722656L227.02925364583334,128.10340881347656L227.15708003472224,118.85186767578124L227.4127328125,183.04230499267578L227.5565375,160.54405212402344L228.05186475694444,182.1379165649414L228.08382135416667,144.84860229492188L228.1477345486111,140.32366943359375L228.24360434027778,113.05133056640625L228.2755609375,145.23269653320312L228.2915392361111,138.7300567626953L228.7389315972222,186.72100830078125L228.87314930555556,177.37744140625L228.9530407986111,110.18890380859375L229.06488888888887,161.2366180419922L229.1288020833333,164.12467193603516L229.51228125,140.46463012695312L229.57619444444447,179.00205993652344L229.60815104166667,84.50080871582031L229.94369531249998,191.4228668212891L229.95967361111113,131.02853393554688L229.97565190972225,165.4769058227539L230.1993480902778,157.02528381347656L230.29521788194444,140.30169677734375L230.3910876736111,163.751953125L230.82250173611112,193.36472320556638L230.85445833333333,137.34030151367188L230.88641493055556,199.74414825439453L231.5575034722222,145.93783569335938L232.06880902777777,161.95184326171875L232.81020208333334,143.55422973632812L233.4653123263889,164.7219696044922L233.56118211805557,137.57012939453125L233.64107361111112,163.17530822753906L233.70498680555554,157.71078491210938L234.056509375,131.37298583984375L234.5198800347222,152.35275268554688L234.82346770833334,137.2669677734375L235.70227413194445,182.70904541015625L235.84607881944444,147.37469482421875L236.73127656250003,101.86470031738281L236.9070378472222,94.3828125L237.5941046875,156.2987060546875L237.65801788194443,121.08203125L237.92964895833333,153.7044677734375L238.2811715277778,124.02186584472656L238.72856388888889,131.3953857421875L238.79247708333335,115.376708984375L238.82443368055556,187.90733337402344L238.87236857638888,149.4936065673828L239.12802135416666,141.684326171875L239.3357392361111,128.38296508789062L239.463565625,119.82974243164061L239.52747881944444,161.5030517578125L239.55943541666664,157.56146240234375L239.6233486111111,127.75762939453125L239.751175,126.38531494140625L239.76715329861113,162.41580963134766L239.83106649305557,158.42465209960938L239.92693628472222,155.74420166015625L239.94291458333333,183.82893371582028L240.58204652777778,153.652099609375L240.63637274305555,156.198974609375L242.17028940972224,158.67654418945312L242.33007239583333,116.26007080078125L242.52181197916664,150.85263061523438L242.79344305555557,138.011962890625L242.90529114583333,170.35385131835938L243.04909583333333,172.4331817626953L243.1609439236111,159.98565673828125L243.3367052083333,131.45477294921875L243.8799673611111,141.6161346435547L244.0237720486111,130.59323120117188L244.73320850694446,161.50286865234375L245.3563621527778,144.12196350097656L245.58005833333334,180.92935943603516L245.83571111111112,174.7710952758789L246.42690815972222,158.21624755859375L247.01810520833334,163.72843170166016L247.49745416666667,146.45994567871094L247.64125885416667,125.80938720703125L247.65723715277778,100.3175048828125L247.94484652777777,174.85289001464844L248.07267291666668,177.96795654296875L248.3602822916667,187.72733306884766L248.54243489583334,127.96408081054688L248.60634809027778,123.71411132812501L249.10167534722223,172.48045349121094L249.40526302083333,139.80502319335938L249.43721961805556,164.88455963134766L249.46917621527777,199.8719024658203L249.4851545138889,69.83869934082031L249.69287239583332,159.19085693359375L250.36396093750002,152.4873046875L250.58765711805557,148.71908569335938L250.90722309027777,166.42169952392578L251.27472395833334,163.2888641357422L251.6262465277778,119.4156494140625L251.96179079861113,118.82614135742188L252.42516145833335,118.17684936523439L252.70318385416667,184.12591552734375L252.99079322916668,148.52163696289062L253.10264131944444,139.34259033203125L253.35829409722223,169.67311096191406L253.5979685763889,156.5718231201172L253.77372986111112,183.3175811767578L253.99742604166667,159.1107940673828L254.4927532986111,194.2164077758789L254.79634097222223,182.67313385009766L255.21177673611112,124.34719848632812L255.67514739583333,115.60656738281251L255.85090868055556,214.87403106689453L256.38458385416664,128.6558837890625L256.43251875,146.4437713623047L256.7361064236111,173.404541015625L256.9118677083333,203.82891845703122L256.95980260416667,125.566650390625L257.1355638888889,130.75863647460938L257.2314336805556,165.1958465576172L257.32730347222224,179.12418365478516L257.34328177083336,172.9954833984375L257.63089114583335,120.4210205078125L257.93447881944445,133.6649932861328L257.99839201388886,123.99267578124999L258.1102401041667,142.55484008789062L258.2061098958333,184.89801025390625L258.39784947916667,66.856201171875L258.44578437499996,196.53414916992188L258.5736107638889,183.10697174072266L258.6694805555556,165.52098083496094L258.68545885416665,136.40847778320312L259.22872100694445,164.05188751220703L259.3405690972222,182.12237548828125L259.91578784722225,141.73379516601562L260.5453328125,186.35491943359375L260.6731592013889,151.92796325683594L260.7530506944444,151.10690307617188L260.86489878472224,166.2499771118164L260.94479027777777,128.49069213867188L260.9607685763889,164.33489990234375L261.08859496527776,140.96475219726562L261.2963128472222,160.73657989501953L261.47207413194445,148.84678649902344L261.48805243055557,152.18307495117188L261.5679439236111,109.24128723144531L261.7916401041667,136.6710968017578L261.91946649305555,140.34390258789062L261.93544479166667,154.7379608154297L262.06327118055555,160.7074966430664L262.9900125,192.47241973876953L263.0219690972222,158.67816162109375L263.4054482638889,155.9889678955078L263.64512274305554,90.33949279785156L263.66110104166665,135.75125122070312L263.852840625,154.88006591796875L264.30662430555554,188.84061431884766L265.0416260416667,158.217529296875L265.3931486111111,173.82460021972656L266.2399984375,153.1223602294922L266.6234776041667,157.38064575195312L266.84717378472226,132.26747131347656L266.9909784722222,156.09732055664062L267.2306529513889,107.62588500976562L267.50228402777776,213.91290283203125L267.63011041666664,138.2066650390625L268.02956788194444,197.55884552001953L268.17337256944444,171.5470962524414L268.1797638888889,131.7020263671875" style="fill: none;" fill="none"></path></g><g><path style="fill: none;" fill="none" stroke="none" stroke-width="1px"></path></g></g></g></g></g></g><g transform="translate(42, 176)" clip-path="url(#clip_1)"><clipPath id="clip_1"><rect width="287" height="24"></rect></clipPath><g><g><line x1="0" y1="0" x2="0" y2="5" style="visibility: inherit;" fill="rgb(0, 0, 0)" stroke="rgb(204, 204, 204)" stroke-width="1px"></line><line x1="31.95659722222222" y1="0" x2="31.95659722222222" y2="5" style="visibility: inherit;" fill="rgb(0, 0, 0)" stroke="rgb(204, 204, 204)" stroke-width="1px"></line><line x1="63.91319444444444" y1="0" x2="63.91319444444444" y2="5" style="visibility: inherit;" fill="rgb(0, 0, 0)" stroke="rgb(204, 204, 204)" stroke-width="1px"></line><line x1="95.86979166666666" y1="0" x2="95.86979166666666" y2="5" style="visibility: inherit;" fill="rgb(0, 0, 0)" stroke="rgb(204, 204, 204)" stroke-width="1px"></line><line x1="127.82638888888889" y1="0" x2="127.82638888888889" y2="5" style="visibility: inherit;" fill="rgb(0, 0, 0)" stroke="rgb(204, 204, 204)" stroke-width="1px"></line><line x1="159.78298611111111" y1="0" x2="159.78298611111111" y2="5" style="visibility: inherit;" fill="rgb(0, 0, 0)" stroke="rgb(204, 204, 204)" stroke-width="1px"></line><line x1="191.73958333333331" y1="0" x2="191.73958333333331" y2="5" style="visibility: inherit;" fill="rgb(0, 0, 0)" stroke="rgb(204, 204, 204)" stroke-width="1px"></line><line x1="223.69618055555557" y1="0" x2="223.69618055555557" y2="5" style="visibility: inherit;" fill="rgb(0, 0, 0)" stroke="rgb(204, 204, 204)" stroke-width="1px"></line><line x1="255.65277777777777" y1="0" x2="255.65277777777777" y2="5" style="visibility: inherit;" fill="rgb(0, 0, 0)" stroke="rgb(204, 204, 204)" stroke-width="1px"></line><line x1="287.609375" y1="0" x2="287.609375" y2="5" style="visibility: inherit;" fill="rgb(0, 0, 0)" stroke="rgb(204, 204, 204)" stroke-width="1px"></line></g><g transform="translate(0, 8)"><text x="0" y="0" dx="0em" dy="0.95em" style="text-anchor: middle; visibility: hidden; font-family: Roboto, sans-serif; font-size: 12px; font-weight: 200;" fill="rgb(33, 33, 33)" stroke="none" stroke-width="1px">-20k</text><text x="31.95659722222222" y="0" dx="0em" dy="0.95em" style="text-anchor: middle; visibility: inherit; font-family: Roboto, sans-serif; font-size: 12px; font-weight: 200;" fill="rgb(33, 33, 33)" stroke="none" stroke-width="1px">0</text><text x="63.91319444444444" y="0" dx="0em" dy="0.95em" style="text-anchor: middle; visibility: inherit; font-family: Roboto, sans-serif; font-size: 12px; font-weight: 200;" fill="rgb(33, 33, 33)" stroke="none" stroke-width="1px">20k</text><text x="95.86979166666666" y="0" dx="0em" dy="0.95em" style="text-anchor: middle; visibility: inherit; font-family: Roboto, sans-serif; font-size: 12px; font-weight: 200;" fill="rgb(33, 33, 33)" stroke="none" stroke-width="1px">40k</text><text x="127.82638888888889" y="0" dx="0em" dy="0.95em" style="text-anchor: middle; visibility: inherit; font-family: Roboto, sans-serif; font-size: 12px; font-weight: 200;" fill="rgb(33, 33, 33)" stroke="none" stroke-width="1px">60k</text><text x="159.78298611111111" y="0" dx="0em" dy="0.95em" style="text-anchor: middle; visibility: inherit; font-family: Roboto, sans-serif; font-size: 12px; font-weight: 200;" fill="rgb(33, 33, 33)" stroke="none" stroke-width="1px">80k</text><text x="191.73958333333331" y="0" dx="0em" dy="0.95em" style="text-anchor: middle; visibility: inherit; font-family: Roboto, sans-serif; font-size: 12px; font-weight: 200;" fill="rgb(33, 33, 33)" stroke="none" stroke-width="1px">100k</text><text x="223.69618055555557" y="0" dx="0em" dy="0.95em" style="text-anchor: middle; visibility: inherit; font-family: Roboto, sans-serif; font-size: 12px; font-weight: 200;" fill="rgb(33, 33, 33)" stroke="none" stroke-width="1px">120k</text><text x="255.65277777777777" y="0" dx="0em" dy="0.95em" style="text-anchor: middle; visibility: inherit; font-family: Roboto, sans-serif; font-size: 12px; font-weight: 200;" fill="rgb(33, 33, 33)" stroke="none" stroke-width="1px">140k</text><text x="287.609375" y="0" dx="0em" dy="0.95em" style="text-anchor: middle; visibility: hidden; font-family: Roboto, sans-serif; font-size: 12px; font-weight: 200;" fill="rgb(33, 33, 33)" stroke="none" stroke-width="1px">160k</text></g><line x1="0" y1="0" x2="287.609375" y2="0" fill="rgb(0, 0, 0)" stroke="rgb(204, 204, 204)" stroke-width="1px"></line></g></g></g></g></svg>