<svg viewBox="0 0 330 200" xmlns="http://www.w3.org/2000/svg"><g><g><g><g><g><line x1="31.59375" y1="176" x2="26.59375" y2="176" style="visibility: inherit;" fill="rgb(0, 0, 0)" stroke="rgb(204, 204, 204)" stroke-width="1px"></line><line x1="31.59375" y1="156.44444444444443" x2="26.59375" y2="156.44444444444443" style="visibility: inherit;" fill="rgb(0, 0, 0)" stroke="rgb(204, 204, 204)" stroke-width="1px"></line><line x1="31.59375" y1="136.88888888888889" x2="26.59375" y2="136.88888888888889" style="visibility: inherit;" fill="rgb(0, 0, 0)" stroke="rgb(204, 204, 204)" stroke-width="1px"></line><line x1="31.59375" y1="117.33333333333334" x2="26.59375" y2="117.33333333333334" style="visibility: inherit;" fill="rgb(0, 0, 0)" stroke="rgb(204, 204, 204)" stroke-width="1px"></line><line x1="31.59375" y1="97.77777777777779" x2="26.59375" y2="97.77777777777779" style="visibility: inherit;" fill="rgb(0, 0, 0)" stroke="rgb(204, 204, 204)" stroke-width="1px"></line><line x1="31.59375" y1="78.22222222222221" x2="26.59375" y2="78.22222222222221" style="visibility: inherit;" fill="rgb(0, 0, 0)" stroke="rgb(204, 204, 204)" stroke-width="1px"></line><line x1="31.59375" y1="58.66666666666667" x2="26.59375" y2="58.66666666666667" style="visibility: inherit;" fill="rgb(0, 0, 0)" stroke="rgb(204, 204, 204)" stroke-width="1px"></line><line x1="31.59375" y1="39.11111111111111" x2="26.59375" y2="39.11111111111111" style="visibility: inherit;" fill="rgb(0, 0, 0)" stroke="rgb(204, 204, 204)" stroke-width="1px"></line><line x1="31.59375" y1="19.555555555555564" x2="26.59375" y2="19.555555555555564" style="visibility: inherit;" fill="rgb(0, 0, 0)" stroke="rgb(204, 204, 204)" stroke-width="1px"></line><line x1="31.59375" y1="0" x2="26.59375" y2="0" style="visibility: inherit;" fill="rgb(0, 0, 0)" stroke="rgb(204, 204, 204)" stroke-width="1px"></line></g><g transform="translate(21.59375, 0)"><text x="0" y="176" dx="0em" dy="0.3em" style="text-anchor: end; visibility: hidden; font-family: Roboto, sans-serif; font-size: 12px; font-weight: 200;" fill="rgb(33, 33, 33)" stroke="none" stroke-width="1px">14</text><text x="0" y="156.44444444444443" dx="0em" dy="0.3em" style="text-anchor: end; visibility: inherit; font-family: Roboto, sans-serif; font-size: 12px; font-weight: 200;" fill="rgb(33, 33, 33)" stroke="none" stroke-width="1px">15</text><text x="0" y="136.88888888888889" dx="0em" dy="0.3em" style="text-anchor: end; visibility: hidden; font-family: Roboto, sans-serif; font-size: 12px; font-weight: 200;" fill="rgb(33, 33, 33)" stroke="none" stroke-width="1px">16</text><text x="0" y="117.33333333333334" dx="0em" dy="0.3em" style="text-anchor: end; visibility: inherit; font-family: Roboto, sans-serif; font-size: 12px; font-weight: 200;" fill="rgb(33, 33, 33)" stroke="none" stroke-width="1px">17</text><text x="0" y="97.77777777777779" dx="0em" dy="0.3em" style="text-anchor: end; visibility: hidden; font-family: Roboto, sans-serif; font-size: 12px; font-weight: 200;" fill="rgb(33, 33, 33)" stroke="none" stroke-width="1px">18</text><text x="0" y="78.22222222222221" dx="0em" dy="0.3em" style="text-anchor: end; visibility: inherit; font-family: Roboto, sans-serif; font-size: 12px; font-weight: 200;" fill="rgb(33, 33, 33)" stroke="none" stroke-width="1px">19</text><text x="0" y="58.66666666666667" dx="0em" dy="0.3em" style="text-anchor: end; visibility: hidden; font-family: Roboto, sans-serif; font-size: 12px; font-weight: 200;" fill="rgb(33, 33, 33)" stroke="none" stroke-width="1px">20</text><text x="0" y="39.11111111111111" dx="0em" dy="0.3em" style="text-anchor: end; visibility: inherit; font-family: Roboto, sans-serif; font-size: 12px; font-weight: 200;" fill="rgb(33, 33, 33)" stroke="none" stroke-width="1px">21</text><text x="0" y="19.555555555555564" dx="0em" dy="0.3em" style="text-anchor: end; visibility: hidden; font-family: Roboto, sans-serif; font-size: 12px; font-weight: 200;" fill="rgb(33, 33, 33)" stroke="none" stroke-width="1px">22</text><text x="0" y="0" dx="0em" dy="0.3em" style="text-anchor: end; visibility: hidden; font-family: Roboto, sans-serif; font-size: 12px; font-weight: 200;" fill="rgb(33, 33, 33)" stroke="none" stroke-width="1px">23</text></g><line x1="31.59375" y1="0" x2="31.59375" y2="176" fill="rgb(0, 0, 0)" stroke="rgb(204, 204, 204)" stroke-width="1px"></line></g></g><g transform="translate(31, 0)" clip-path="url(#clip_0)"><clipPath id="clip_0"><rect width="298" height="176"></rect></clipPath><g><g><g><line x1="0" y1="0" x2="0" y2="176" fill="rgb(0, 0, 0)" stroke="rgb(66, 66, 66)" stroke-width="1px" opacity="0.25"></line><line x1="33.15625" y1="0" x2="33.15625" y2="176" fill="rgb(0, 0, 0)" stroke="rgb(66, 66, 66)" stroke-width="1px" opacity="0.25"></line><line x1="66.3125" y1="0" x2="66.3125" y2="176" fill="rgb(0, 0, 0)" stroke="rgb(66, 66, 66)" stroke-width="1px" opacity="0.25"></line><line x1="99.46875" y1="0" x2="99.46875" y2="176" fill="rgb(0, 0, 0)" stroke="rgb(66, 66, 66)" stroke-width="1px" opacity="0.25"></line><line x1="132.625" y1="0" x2="132.625" y2="176" fill="rgb(0, 0, 0)" stroke="rgb(66, 66, 66)" stroke-width="1px" opacity="0.25"></line><line x1="165.78125" y1="0" x2="165.78125" y2="176" fill="rgb(0, 0, 0)" stroke="rgb(66, 66, 66)" stroke-width="1px" opacity="0.25"></line><line x1="198.9375" y1="0" x2="198.9375" y2="176" fill="rgb(0, 0, 0)" stroke="rgb(66, 66, 66)" stroke-width="1px" opacity="0.25"></line><line x1="232.09375" y1="0" x2="232.09375" y2="176" fill="rgb(0, 0, 0)" stroke="rgb(66, 66, 66)" stroke-width="1px" opacity="0.25"></line><line x1="265.25" y1="0" x2="265.25" y2="176" fill="rgb(0, 0, 0)" stroke="rgb(66, 66, 66)" stroke-width="1px" opacity="0.25"></line><line x1="298.40625" y1="0" x2="298.40625" y2="176" fill="rgb(0, 0, 0)" stroke="rgb(66, 66, 66)" stroke-width="1px" opacity="0.25"></line></g><g><line x1="0" y1="176" x2="298.40625" y2="176" fill="rgb(0, 0, 0)" stroke="rgb(66, 66, 66)" stroke-width="1px" opacity="0.25"></line><line x1="0" y1="156.44444444444443" x2="298.40625" y2="156.44444444444443" fill="rgb(0, 0, 0)" stroke="rgb(66, 66, 66)" stroke-width="1px" opacity="0.25"></line><line x1="0" y1="136.88888888888889" x2="298.40625" y2="136.88888888888889" fill="rgb(0, 0, 0)" stroke="rgb(66, 66, 66)" stroke-width="1px" opacity="0.25"></line><line x1="0" y1="117.33333333333334" x2="298.40625" y2="117.33333333333334" fill="rgb(0, 0, 0)" stroke="rgb(66, 66, 66)" stroke-width="1px" opacity="0.25"></line><line x1="0" y1="97.77777777777779" x2="298.40625" y2="97.77777777777779" fill="rgb(0, 0, 0)" stroke="rgb(66, 66, 66)" stroke-width="1px" opacity="0.25"></line><line x1="0" y1="78.22222222222221" x2="298.40625" y2="78.22222222222221" fill="rgb(0, 0, 0)" stroke="rgb(66, 66, 66)" stroke-width="1px" opacity="0.25"></line><line x1="0" y1="58.66666666666667" x2="298.40625" y2="58.66666666666667" fill="rgb(0, 0, 0)" stroke="rgb(66, 66, 66)" stroke-width="1px" opacity="0.25"></line><line x1="0" y1="39.11111111111111" x2="298.40625" y2="39.11111111111111" fill="rgb(0, 0, 0)" stroke="rgb(66, 66, 66)" stroke-width="1px" opacity="0.25"></line><line x1="0" y1="19.555555555555564" x2="298.40625" y2="19.555555555555564" fill="rgb(0, 0, 0)" stroke="rgb(66, 66, 66)" stroke-width="1px" opacity="0.25"></line><line x1="0" y1="0" x2="298.40625" y2="0" fill="rgb(0, 0, 0)" stroke="rgb(66, 66, 66)" stroke-width="1px" opacity="0.25"></line></g></g></g><g><g><line x1="0" y1="449.7777777777777" x2="298.40625" y2="449.7777777777777" fill="rgb(0, 0, 0)" stroke="rgb(153, 153, 153)" stroke-width="1.5px"></line></g></g><g><g><line x1="33.15625" y1="0" x2="33.15625" y2="176" fill="rgb(0, 0, 0)" stroke="rgb(153, 153, 153)" stroke-width="1.5px"></line></g></g><g><g><g><g><g><path stroke="rgb(204, 51, 17)" stroke-width="2px" d="M52.2144625,-0.4205513279479618L52.413399999999996,1.7349037930357216L52.57918125,2.068614056951823L52.6123375,3.630317908763777L52.7449625,2.5245290521952946L53.30861875,2.997939337607079L53.424665624999996,5.5912876073707025L53.762859375,5.876592365469641L53.862328125,7.447023570942282L53.895484375,8.174345133534995L53.94521875,10.084351216239725L54.01153125,11.668362169791498L54.111000000000004,12.711495509994268L54.1773125,13.821338482975158L54.624921875,14.38735140208904L55.07253125,16.03669169215236L55.40409375,17.931690617558683L55.719078125,19.535402912191877L55.9014375,19.59770442606442L55.918015624999995,18.86354232413921L56.597718750000006,20.29576081131514L56.9624375,20.480423349369275L57.26084375,20.53335417666024L57.277421875,20.465846335847303L57.8642875,21.005848822632696L57.9969125,21.43535980896403L58.1295375,22.27668093719133L58.179271875000005,23.490082398986793L58.75950625,23.59521234350599L58.809240624999994,24.228741189438985L59.041334375000005,25.06457386885727L59.09106875,25.86744065923076L59.173959375,27.035003821629005L59.372896874999995,28.097157855503028L59.55525625,27.508428146797563L60.069178125,27.396599600574586L60.201803125,28.69369761706829L60.7820375,29.61055437749574L61.030709375,30.343437118383825L61.3125375,31.3669419149743L61.34569375,32.455764669660276L61.395428125,32.03439499870343L61.461740625,32.815913995361385L62.51279375,33.52062950896061L62.545950000000005,34.421450367102445L62.7448875,34.13187290553369L62.794621875,33.931418001131206L63.706418750000005,34.91890835071145L63.921934375,35.49195269052101L64.03798125,36.13927261183419L64.56848125,36.5742137079298L64.618215625,37.30068721810504L64.717684375,38.965240701227074L64.7342625,39.68979368460996L65.181871875,40.26503297372629L65.248184375,40.44493514905814L65.331075,41.65659124802018L65.36423125,42.14531286765585L65.579746875,43.27980577852783L65.59632500000001,43.28166143987217L65.884784375,42.94811760720698L67.39339375,43.06139651217686L67.542596875,43.53884286451578L67.708378125,44.11874968624694L67.8907375,44.39162592024642L68.139409375,44.77250740170443L68.205721875,45.57303619604178L68.537284375,45.995165993796135L69.44908124999999,46.52433145462628L69.697753125,46.939061411659324L69.797221875,47.554863519295694L70.18515,47.60875014882131L70.268040625,48.040085448364984L71.5114,48.98631157487896L71.892696875,48.988129156323815L72.174525,49.856555679918664L72.754759375,50.511355991970824L73.451040625,50.745814258259465L73.53393125,51.26630967560184L73.749446875,51.05951725347194L73.882071875,51.21780168090318L73.93180625000001,51.923175014604034L74.253421875,52.37267256095085L74.4689375,52.81478610423413L74.551828125,53.79885251271968L74.783921875,53.954015655546655L74.81707812500001,54.9784948026395L74.9994375,55.290999036850266L75.77860937499999,55.57591067118797L75.7951875,56.17353405418968L76.143328125,56.468587495294955L76.607515625,56.66415550680538L76.740140625,57.109147176520096L76.872765625,57.77627998323138L77.320375,58.3845909319916L77.38668750000001,59.568005852627536L77.502734375,60.025629322249735L77.55246875,60.944953915080305L77.701671875,61.4533945014497L77.95034375,62.07961668255272L78.033234375,62.313296629141846L78.0896,62.76741589987849L78.2885375,63.11131856998941L78.371428125,63.35697481260398L78.45431875,64.51159287194717L78.47089687500001,64.85788849332985L78.68641249999999,64.74784126868903L78.702990625,65.23119666284227L78.71956875,66.15628816466098L78.88535,65.88736572152871L78.935084375,65.89595529121667L79.10086562500001,66.07838589707295L79.2169125,66.13354801241155L79.664521875,65.7411991863341L80.029240625,65.183433483803L80.19502187500001,65.49436502312524L80.47685,65.17176921018736L80.49342812500001,65.681321050575L81.4715375,66.20840123316235L81.985459375,66.1645785800135L82.03519375,66.08246005202403L82.151240625,66.35546407834464L82.19102812499999,66.94720641804825L82.32365312499999,67.81998696222539L83.08624687499999,68.1396877556109L83.33491875,68.35500652564674L83.55043437500001,68.32144535308781L84.14724687500001,68.62150585900245L84.163825,68.5440750767411L84.47880937500001,69.03334550991265L84.49538749999999,69.10262790915651L84.511965625,68.68799998019962L84.744059375,68.79791110496232L84.7606375,68.52418460701908L84.77721562500001,68.47026021873947L84.8932625,68.90446494232518L85.175090625,69.36717451794586L85.639278125,69.64550675930636L85.9542625,69.72340927941399L86.070309375,69.58094994919041L86.1532,69.98555655444714L86.35876875,69.68755408347661L86.40850312500001,70.38963502365989L86.75664375000001,70.289197151258L87.15451875,71.17736748395643L87.20425312500001,71.08594032822666L87.83422187500001,71.61343526654191L88.397878125,71.42523105490984L88.663128125,72.03108039542379L88.961534375,72.54951181016196L89.14389375,73.23839728440933L89.27651875,73.39077416816113L89.458878125,73.91370273202081L89.69097187499999,73.81660177015965L90.393884375,73.48582985883198L90.758603125,73.95688100039236L90.77518125,74.05966499822111L90.89122812500001,74.57655829508552L90.924384375,74.44529066342594L91.04043125000001,74.1830314834084L91.4714625,74.01235784823383L92.1345875,74.39970219426387L92.184321875,74.71281928257798L92.30036874999999,75.07813478050326L92.49930625,75.36493877107435L92.69824375,75.11984680801092L92.913759375,74.52780247300583L92.9303375,74.81864902779694L92.96349375,74.48412440675823L93.1955875,74.63108339448368L93.5934625,74.84472510284554L93.643196875,75.06608973804654L93.67635312499999,75.25302211771331L93.709509375,75.3369460495306L93.75924375,75.2398294800811L93.82555624999999,75.50436957517755L93.87529062499999,75.75091419944296L94.190275,76.23518263391858L94.54504687500001,76.32756388569884L94.6279375,76.46844501490199L95.14185937500001,76.77298505756248L95.241328125,76.86454912474485L95.35737499999999,77.09984823357722L95.39053125,77.22069939754617L95.705515625,77.52637232937585L96.799671875,77.44601705766439L96.832828125,77.3510189224328L97.1478125,77.70993683991578L97.694890625,77.9950064648161L97.84409375,78.7064683944678L97.91040625000001,78.83600296288888L98.009875,78.93499747222612L98.20881250000001,78.8006623181702L98.25854687500001,78.99025058865858L98.74594375,79.41730446353414L98.895146875,79.94152498790831L98.99461562500001,80.35783976200109L99.5085375,80.74849970138641L99.54169375,81.18544652994332L99.69089687499999,81.26837612025312L99.87325625,81.48126172953073L99.972725,81.52850995470777L100.08877187499999,81.76898073136697L100.70216250000001,81.43941677978565L101.11661562500001,81.57404859403508L101.216084375,81.6963271788558L101.315553125,81.93826763860231L101.3652875,82.02693136151903L101.73000625,82.39366057202763L102.310240625,82.50115344712411L102.4926,81.95076724764854L103.0628875,81.80961295555315L103.42760625000001,81.82821748967952L103.477340625,82.16181449440501L103.56023125,82.30760873694024L104.571496875,82.46943521404009L104.6543875,82.79337927770844L104.737278125,82.60245974871614L104.83674687499999,82.43722924924084L105.8480125,82.61832299814306L106.5111375,82.41359288214944L106.64376250000001,82.13669490334775L106.816175,82.50842349155907L107.0151125,82.83022161025232L107.396409375,83.13522190343949L107.993221875,83.01619721636685L108.159003125,82.86634549887657L108.225315625,83.30366781898383L108.63976875,83.43896563970576L108.70608125,83.28375441538046L108.80555000000001,83.27713225142786L109.385784375,83.55495404132566L109.43551875,83.60867031612864L110.048909375,83.89706733344862L110.21469062499999,83.74330883309361L110.529675,83.47871565223092L110.66229999999999,83.50495402004319L110.7286125,83.7921422073944L110.76176875,83.90697954677634L110.851290625,84.09967257105413L111.00049375,84.3822483107886L111.38179062500001,84.43964475515948L111.4978375,84.74036259187287L111.86255625000001,84.92827729330556L111.978603125,84.90583720583302L112.078071875,84.83310103282837L112.144384375,85.15916529537279L112.16096250000001,85.59583073033757L112.65830625,85.76202263569898L113.039603125,85.64768383339327L113.072759375,85.68437398701948L113.12249374999999,86.12521040634235L113.139071875,86.29646345466088L113.27169687499999,86.21004851474859L113.90166562499999,86.527276210635L114.11718125,86.7820643143701L114.365853125,86.8940670748198L114.6808375,86.94450610823353L114.74715,87.0359372715096L114.85325,86.93598969819081L115.002453125,87.31061698198984L115.51637500000001,87.34016752310609L115.698734375,87.32033310922868L116.229234375,87.5057350218482L116.62710937499999,87.88237506073044L116.94209375,87.91776806704841L117.157609375,87.89265755637803L117.1741875,87.65302685078653L117.3068125,87.97807956612837L117.33996875,88.37719618477873L118.03625,88.70659669203516L118.1025625,88.8870300488301L118.168875,89.16048427275868L118.351234375,88.90269160972844L118.3678125,88.6970625263078L118.40096875,88.66937869556091L118.417546875,88.97139253172331L118.93809999999999,88.8330702770264L119.120459375,88.8260040524991L119.153615625,88.74576386659695L119.23650624999999,88.6080296704886L119.2696625,88.5255805333213L119.452021875,88.62072015291844L119.56806875,88.68284047411927L119.783584375,88.90073364428011L120.03225625,89.11664055521427L120.181459375,89.10559082969738L120.23119375,89.0549598436962L120.72853749999999,89.3286981212448L121.109834375,89.65313867077109L121.1264125,89.79017867865656L121.176146875,89.77438337666175L121.20930312499999,89.9138399608128L121.275615625,90.12393803384302L121.375084375,90.3730249594322L121.839271875,90.45321969379641L121.97189687500001,90.5342577241582L122.35319375,90.61669905718736L122.518975,90.75228734942371L123.205309375,91.12565479179854L123.3545125,91.0748545736661L123.437403125,91.09872503848501L124.18341875,91.34098431809579L124.26630937499999,91.45336317572786L124.465246875,91.78633369464053L124.86312187499999,92.1156601375433L125.227840625,92.34300509611937L125.84123124999999,92.4867428753792L126.88565312499999,92.52230534698853L127.80408125,92.60118475079665L127.92012812499999,92.66820873496474L128.3677375,92.49994210423424L128.384315625,92.76233051571782L128.7656125,92.86321222159253L128.8982375,92.93188830519757L129.611096875,92.93196506151669L130.174753125,93.11710589568807L130.39026875,93.37774140477372L130.440003125,93.41298642159134L131.5242125,93.46827120697806L131.6568375,93.5725302169061L131.7894625,93.7603468797893L132.071290625,93.73543958054168L132.22049375,93.95432457359134L132.336540625,94.15880153796135L132.436009375,93.82600328380515L132.535478125,93.96956185534802L133.132290625,93.60712438046502L133.264915625,93.8576259986223L133.67936874999998,93.95708297319575L133.695946875,93.79026259463977L134.226446875,94.00617636918088L134.259603125,94.31082888487148L134.591165625,94.59016090102884L134.67405625,94.53922570057958L134.7072125,94.65934099956766L134.74036875000002,94.4805402183276L135.1714,94.63748726936834L135.77484375,94.9932366743736L136.10640625000002,94.87415104259614L136.40481250000002,94.97250755830275L137.00162500000002,95.15233409170739L137.03478124999998,95.19501795837117L137.349765625,95.29123082126131L137.880265625,95.28840930517575L137.913421875,95.68953144932736L138.1289375,95.86740275252006L138.311296875,95.97100178108138L138.327875,96.06661301190096L138.41076562499998,96.10199336595608L138.49365625,96.0573739090195L139.107046875,95.974702299792L139.39550625,95.93931614259591L139.710490625,96.17114221402446L139.975740625,96.16380544265455L140.207834375,96.4607164110275L140.506240625,96.58228168898977L140.555975,96.75376111977064L141.11963125,96.9200746300001L141.16936562499998,97.10916115789263L141.31856875,97.17455578890431L141.4180375,97.24016384462462L141.500928125,97.61864840446864L141.71644375,97.62388751156108L141.799334375,97.97020421670967L142.064584375,97.93504732382169L142.147475,97.9804349877484L142.23036562500002,98.23288532414793L142.296678125,97.82758524562136L142.561928125,97.95497216313771L143.12558437500002,97.8810561584671L143.5135125,97.9030406945735L144.20979375000002,98.27018738152958L144.292684375,98.27902279380551L144.458465625,98.15590889468692L144.52477812499998,98.33488620913673L144.790028125,98.62286354857278L144.9723875,98.46576388488305L145.3702625,98.54199477777584L145.652090625,98.50465525302052L145.967075,98.54272923595798L146.315215625,98.47969376991685L146.447840625,98.79207869759185L146.59704375,98.93546654885999L146.86229375,99.0114151381565L147.508840625,98.96007195802973L147.53205,99.07670540672754L147.58178437499998,99.10462006656897L147.76414375,99.17404005586835L147.88019062499998,99.15680837345596L148.510159375,99.36255106758816L148.775409375,99.32933890834843L148.85829999999999,98.9180461785986L148.89145625,98.62576373576384L149.22301875,98.65618484299645L149.405378125,98.88501700629547L149.65405,98.71098314342035L149.81983125,98.95040724009964L150.864253125,99.20355540961155L150.91398750000002,99.3125516325605L151.01345625,99.28819451877868L151.63347812499998,99.45369788166212L151.84899375,99.59303343944143L151.86557187500003,99.48888883221814L151.898728125,99.43152433973623L151.998196875,99.69357590986681L152.34633749999998,99.71395933032684L152.64474374999998,99.55472747333752L153.10893125,99.83840907368054L153.30786874999998,100.11991961096439L153.457071875,100.29966587271244L154.02072812499998,100.4219518401711L154.451759375,100.7464970127508L154.518071875,100.67524536225571L154.551228125,100.47955159045274L154.76674375000002,100.5277583668603L154.849634375,100.52617923598913L154.9988375,100.59956944248555L155.29724375,100.69201223591736L155.93384375,100.73056675475866L156.116203125,100.96582457975134L156.13278125000002,101.25616257529404L156.59696875,101.3713394590576L156.66328125,101.46621152174086L156.6964375,101.67674311995479L156.895375,101.87442453632522L157.29325,101.93645223660336L157.4921875,102.0793992109025L157.62481250000002,102.28109943066639L157.72428125,102.23504980248212L157.906640625,102.38413650119296L158.039265625,102.23218963690815L158.072421875,102.35699731300801L158.17189062499997,102.29836782508775L158.735546875,102.35165647737253L158.88475000000003,102.45560987284173L158.91790625,102.52045830637111L158.967640625,102.48090486463772L159.48156250000002,102.64407615476634L159.58103125,102.81831569557593L159.83633437499998,102.54802300368533L159.8529125,102.10050619848644L160.94706875,102.21658416284859L160.996803125,102.13004680092969L161.427834375,102.36049995101868L161.51072499999998,102.34749510455315L162.057803125,102.52346069694156L162.07438125000002,102.4784103024742L162.5054125,102.38413812224023L162.787240625,102.5323129232452L162.85355312500002,102.62146834489837L162.98617812499998,102.31683139676133L163.06906874999999,102.4792005774191L163.085646875,102.58186499443656L163.185115625,102.57346917128969L163.51667812500003,102.70531089173221L163.73219375,102.95510602350414L163.8316625,102.98771876638884L164.23616875,103.29444100982893L164.28590312499998,103.06426943133741L165.23085625000002,103.07009047937325L165.99345,103.26214819234187L166.22554375,103.37187340591309L166.35816875,103.51016867559709L166.73946562499998,103.5339321276567L166.75604375,103.60193657525681L167.05445,103.58724884584606L167.48548125000002,103.84710657069459L167.8502,103.95188890190607L168.1552375,103.98610637083404L168.171815625,103.83950403053623L168.636003125,103.80982947383069L168.768628125,103.7857860499619L168.78520625000002,103.73392383937701L169.033878125,103.71699428104185L169.24939375,103.53809721788448L169.680425,103.52633482137028L170.04514375000002,103.19910963496577L170.1446125,103.40299821118899L170.2772375,103.41059689757301L170.360128125,103.22096579745843L170.44301875,103.19705197712577L171.23876875000002,103.24963218378502L171.288503125,103.1054588786129L171.4708625,103.03692781772997L171.70295625,103.26964489494353L172.03451875,103.51299281332766L172.25666562499998,103.39955987729653L172.33955625000002,103.37856549243767L173.01925937500002,103.43301611318824L173.085571875,103.61650253151998L173.582915625,103.77441408807229L173.79843125,103.94690700484465L174.080259375,104.01797359638172L174.22946249999998,104.10243196511689L174.52786874999998,104.14313274567334L174.6273375,104.24960470017592L174.776540625,104.3692613367725L175.4894,104.34223060100018L175.68833750000002,104.47879967760727L175.72149375,104.60592383730695L175.837540625,104.62244804366586L176.35809375,104.57037638689664L176.42440625,104.6002194595629L176.93832812500003,104.73208632440938L177.037796875,104.77188913190744L177.336203125,104.97270353940885L177.435671875,104.65408779752104L177.89985937499998,104.55204868972507L177.933015625,104.48417939951057L178.297734375,104.53828020339918L178.330890625,104.65043122268108L178.49667187499998,104.73485244298453L178.67903124999998,104.83838950977568L179.07690625,104.80152288132288L179.24268750000002,104.68031800006133L179.7731875,104.7597064926115L179.856078125,104.64714529267225L179.972125,104.72765176178498L180.154484375,104.75362848199353L180.24400625,104.85357849626345L180.625303125,105.09356683265574L180.691615625,105.28579951697915L181.43763125,105.54346338925811L181.653146875,105.51245637111458L181.752615625,105.58941075724024L181.83550625,105.34532196696354L182.10075625000002,105.41916324655469L182.548365625,105.56140580650315L182.813615625,105.66844380032788L182.96281875,105.78445217541898L183.078865625,105.80150045964314L183.16175625,105.96904212973024L183.940928125,106.06298901255253L184.007240625,106.04908182353594L184.511215625,106.15589463283405L184.710153125,106.34955500237922L185.141184375,106.3453187924458L185.19091875,106.54665883004171L185.306965625,106.61336976464983L185.35670000000002,106.60716973386096L185.439590625,106.64410268095784L185.50590312499997,106.93027719686307L185.671684375,106.87217528777917L185.737996875,107.0316468600121L185.87062187499998,106.97645347213607L186.16902812499998,107.06071106442572L186.815575,106.98516061521943L187.0145125,106.85220456019763L187.04766874999999,106.89486901028268L187.163715625,106.66093214007239L187.32949687500002,106.82777728376507L187.34607499999998,106.90796645660541L187.4123875,106.97731503094562L187.51185625000002,107.0442304226452L187.561590625,107.1150444891269L187.71079375,107.01008740966833L187.826840625,107.0602507622747L187.94288749999998,107.23776099416921L188.04235625,107.0514373543511L188.058934375,106.9786154985658L188.158403125,107.04685711332402L188.24129374999998,107.0928752336171L188.39712812500002,107.0610954751432L188.91105,107.1805592819795L189.29234687500002,107.19972747182763L189.325503125,107.2384859411238L189.54101874999998,107.35068678159618L189.77311250000002,107.1350930379617L189.80626875,107.18984029487862L190.07151875000002,107.32731051382464L190.088096875,107.41896020869515L190.10467500000001,107.53354225883072L190.900425,107.59953666274916L191.049628125,107.75786519521873L191.19883125,107.7253558005522L191.3646125,107.62321999851922L191.81222187499998,107.43592306926205L191.944846875,107.58635237966524L192.044315625,107.8133346207342L192.25983125000002,107.76815791251357L192.7969625,107.81941450915028L193.09536875,107.88662047994669L193.111946875,107.84874611165051L193.16168125,107.64990768827145L193.44350937500002,107.51028575557032L193.642446875,107.5972230160793L193.65902499999999,107.68465435881345L193.77507187499998,107.70826096436596L194.17294687499998,107.69001951098804L194.206103125,107.71924794543642L194.454775,107.82804377379881L194.47135312499998,107.72324390927838L194.76975937499998,107.77566832989064L195.035009375,107.75413713611331L195.200790625,107.84831695007752L195.4494625,107.89697179158176L195.63182187499999,107.91485339452097L195.84733749999998,108.05985726720368L196.062853125,108.01334275151291L196.34468125,108.0250264273254L196.460728125,108.26713792083675L196.78234375000002,108.19241468198983L196.948125,108.4112453937694L197.14706249999998,108.16799350894738L197.163640625,108.14498536617671L197.6775625,108.28260049283207L197.694140625,108.42399151518944L197.71071875,108.50265490209134L197.8765,108.49938892280895L198.09201562500002,108.43980338520575L198.19148437500002,108.44361552656838L198.324109375,108.40411505619514L198.423578125,108.7209204526309L199.58404687499998,108.52781236339675L200.03165625,108.47357656384682L200.545578125,108.48366175182159L200.62846875,108.4792983937526L200.81745937500003,108.42638107425435L201.66294374999998,108.52814115291392L201.6961,108.49022225035421L201.977928125,108.67381558789428L202.093975,108.51865086312787L202.25975624999998,108.63355426402077L202.98919375,108.51411546546805L203.171553125,108.58643113102286L203.436803125,108.61417461446732L204.19939687500002,108.57764847841716L204.24913125,108.56490708283425L204.265709375,108.7504136832384L205.068090625,108.88737472376332L205.21729375,108.67283534953057L205.399653125,108.63656984659642L205.89699687499999,108.55353241082128L205.99646562499998,108.56488301242817L206.01304374999998,108.80672950281738L206.1125125,108.80368047479995L206.825371875,108.82605904781691L207.1072,108.97546080153545L207.65427812500002,108.93341057526388L207.820059375,109.14180905136766L208.01899687500003,109.36411828930872L208.151621875,109.46834446504297L208.40029375,109.6685837801949L208.6987,109.77489876981363L209.0037375,109.96698329185404L209.16951875,109.96502538198197L209.20267499999997,109.89391391248577L210.23051875,109.61651091278318L210.3963,109.71370643012513L210.512346875,109.82131422702878L210.5952375,109.84532155401799L210.8604875,109.71531287747898L210.976534375,109.84491696230502L210.9931125,110.00509361922317L211.19205,109.93939021529175L211.29151875,110.09035879916874L211.9214875,110.12465952242992L212.46856562500002,110.11823416574907L213.370415625,110.40894414599634L213.436728125,110.60858910320897L214.68008749999998,110.58384013860584L214.895603125,110.74136861744466L215.44268125000002,110.77045103273636L215.459259375,110.65950573696561L215.54215,110.71130257281567L215.674775,110.86945094055685L215.97318125,110.76339389577967L216.63630625000002,110.48052681082262L217.02423437500002,110.5043861243822L217.123703125,110.5075778329805L217.14028125000002,110.55200097527248L217.27290625,110.59937174018609L217.7039375,110.54462806577448L217.886296875,110.69087460399535L218.51626562500002,110.80207086911162L218.582578125,110.81232571926446L218.682046875,110.59063561447589L218.79809375,110.643727689585L218.81467187500002,110.71761907011674L219.013609375,110.83312949452275L219.312015625,110.69928040635065L219.77620312500002,110.7010158166372L219.95856250000003,110.87763636181236L220.32328124999998,110.88332301229858L220.538796875,111.08432763045502L220.55537500000003,111.22479067373018L220.688,111.1920740774249L220.8869375,111.24863206527905L221.09250624999999,111.20859595072245L221.58985,111.10752740379363L221.75563125,110.86772938709575L221.838521875,111.04285673208116L222.40217812499998,111.09609589735905L222.48506875,110.97311068676827L222.518225,110.82281180560807L222.65085,110.89270888050615L222.70058437499998,110.8193893779086L222.733740625,110.52750806901723L222.800053125,110.57348976232959L223.14819375000002,110.73017752225334L223.18134999999998,110.73072955222162L223.396865625,110.79397613014336L223.77816249999998,110.9551147983551L223.794740625,110.92986562609643L224.27550625,110.78663077925812L224.5076,110.66718313529607L224.64022500000002,110.4106346927492L225.17735625,110.5274409001388L225.70785625000002,110.43310234850017L226.586496875,110.61913133966654L226.868325,110.74406302288307L227.249621875,110.62732861530256L227.481715625,110.73041654817266L227.581184375,110.78456590437347L227.7303875,110.75748254817469L228.04537187499997,110.84776583983576L228.078528125,110.95422963399969L228.59244999999999,110.9322828855183L228.62560625,110.89295850222662L228.69191875,110.99693965856338L228.907434375,111.07957851427116L229.040059375,111.22215132706802L229.08979375,111.2919418617348L229.15610625,111.38011887226983L229.41140937499998,111.50778034568316L229.56061250000002,111.60128121606675L229.66008125,111.58554169771597L229.742971875,111.50062575775553L230.273471875,111.56416347969858L230.3563625,111.52030675021442L230.63819062500002,111.65019661297416L230.870284375,111.69734918924944L230.8868625,111.86945943553043L231.11895625000002,111.99190621768363L231.1521125,111.91272749092892L231.23500312500002,112.03475670628411L231.53340937500002,112.10300440235054L231.8152375,112.1376657299343L232.063909375,112.31502560527056L232.395471875,112.49738778802762L232.56125312499998,112.46593246014416L232.660721875,112.26990612682026L232.74361249999998,112.14221568230157L232.8762375,112.15483452200826L233.8444,112.26019100498073L234.192540625,112.15516008047375L234.39147812500002,112.13123665846811L234.50752500000002,112.01201669158476L234.5738375,112.05137894828412L235.08775937500002,112.09754244851334L235.5022125,111.98900393288258L235.551946875,111.94604481922366L235.68457187500002,111.854721615533L235.949821875,111.90703477700976L236.099025,112.0204771270422L236.612946875,112.17861058795248L236.646103125,112.15695643698402L236.712415625,112.19174202513923L236.811884375,112.04743864825153L236.845040625,111.98495814410072L236.86161875,111.98081680769644L237.32580625,112.15197769866498L237.46506250000002,112.2478908653339L237.547953125,112.25418895941391L237.664,112.28650647418657L237.7303125,112.45161703654193L238.12818750000002,112.49782481622807L238.1945,112.58511432895253L238.22765625,112.69218264305763L238.575796875,112.83288184959761L238.592375,112.81501636820215L238.60895312500003,112.97677931145236L238.84104687500002,113.0368637949664L238.940515625,113.00806272595705L239.039984375,113.03266724556407L239.48759375,113.13628076512472L239.52075,113.23076874401332L239.55390625,113.39460213883862L240.2501875,113.33449287590007L240.7806875,113.46255300075424L241.5499125,113.44070663868987L242.229615625,113.57250485115027L242.329084375,113.57593530277276L242.411975,113.64670721640427L242.4782875,113.64747998048622L242.84300625,113.5154136526692L243.323771875,113.66169241142747L243.63875625,113.74592954478905L244.55055312500002,113.91568706571135L244.69975625,114.02974746593864L245.61818437500003,113.92709999827034L245.80054374999997,113.84173599773183L246.513403125,113.92425163852104L246.57971562499998,114.03546122447344L246.86154375,114.1757632539232L247.22626250000002,114.15028618416227L247.69045,114.22306993405839L247.7567625,114.20530473674265L247.78991875,114.32840919229338L247.83965312499998,114.36753671606007L248.10490312500002,114.29729468087888L248.32041875,114.24223999604943L248.45304375,114.23191954791848L248.51935625000002,114.19428892369646L248.55251249999998,114.34554467294986L248.618825,114.33356921758757L248.75145,114.37878545194408L248.768028125,114.45779382915546L248.834340625,114.43610890971853L248.933809375,114.4044778803937L248.9503875,114.57014601287536L249.61351249999998,114.57738507803366L249.669878125,114.71050470815527L251.26137812500002,114.70152656739018L251.427159375,114.6250907983588L251.62609687499997,114.65240139473225L251.907925,114.6747658915291L252.023971875,114.87862422860675L252.173175,114.95967215283642L252.28922187499998,115.16425643202705L252.47158124999999,115.16860598432808L253.0352375,115.17813602932696L253.18444062499998,115.30088930798199L253.920509375,115.2700094733622L254.56705625,115.27387704127565L254.79915,115.44180841652584L255.0644,115.47704840347811L255.677790625,115.58244788367124L256.29118125,115.69670164128398L256.788525,115.73874821626399L256.937728125,115.71699359784768L256.95430625,115.64440557794997L257.25271250000003,115.73119371477749L257.3853375,115.81413355464505L257.68374375,115.96097298921231L257.872734375,115.96433608508451L257.939046875,115.94585413996546L258.45296875,115.99040238792074L258.767953125,115.98500047661688L258.801109375,116.02125285723463L258.834265625,116.16178387552739L258.85084375,116.02691324527908L259.066359375,116.06368902690915L259.762640625,116.19812906143105L259.994734375,116.27606487502706L260.326296875,116.3003257930686L260.70759375,116.46176930130584L261.0723125,116.40988601379378L261.420453125,116.38024551093972L261.90121875,116.46348296519362L262.189678125,116.68695960638101L262.488084375,116.70149161612157L262.60413125,116.46119417265109L262.86938125,116.44152931054566L263.118053125,116.48702431516713L263.3004125,116.61081954299065L263.53250625,116.73703015270237L264.046428125,116.80806771471023L264.212209375,116.91818545520199L264.3614125,116.99313087018581L264.79244375,117.05402208798249L265.273209375,116.89362977555939L265.45556875,117.10740783157961L266.009278125,116.97539551523646L266.0590125,116.98828390166696L266.373996875,117.07577984836003L266.55635625,117.241322578206L266.606090625,117.3141027737955L266.78845,117.27011779805677L266.88791875000004,117.42759297097662L266.9873875,117.5922254606768L267.00396562500003,117.70253486051492L267.302371875,117.70239534247693L267.61735625,117.51773485265315L267.68366875,117.40776171217018L267.799715625,117.48134835876905L267.899184375,117.62283136249457L268.098121875,117.50591013115351L268.14785624999996,117.6787266503056L268.28048125,117.84699874429486L268.37995,117.79231136685198L268.396528125,117.7619571988223L268.960184375,117.8909451361353L269.07623125,118.01522866208764L269.67304375000003,117.98442937957114L270.326221875,118.0713541813723L270.458846875,118.050360111191L270.5417375,117.99784626043827L270.657784375,118.11749428324175L270.740675,118.05957036700897L270.757253125,118.1386507304082L270.889878125,118.15797623259576L271.10539375,118.23828943735393L271.287753125,118.14775494320067L271.30433125,118.1434980543099L271.387221875,118.06041160796016L271.619315625,118.11312913431613L271.75194062500003,118.10233037221754L271.76851875,117.91827932881485L271.90114375,118.06119325618668L272.862675,118.24090491593276L272.89583125,118.36270060309155L273.29370625,118.36143928188298L273.542378125,118.2298978826374L273.55895625,118.17352551001235L273.75789375,118.20436702543648L274.22871250000003,118.25931855854023L274.99130625,118.18201668968166L275.356025,118.28783714034168L276.234665625,118.29295819872702L276.632540625,118.40939523006304L276.86463437500004,118.49350228981079L277.01383749999997,118.5629688981675L277.262509375,118.61734895862602L277.5443375,118.72875835265219L277.6769625,118.56168236910864L278.09141562499997,118.75690126850301L278.24061875,118.84811859997328L278.24725,118.85517280692969" style="fill: none;" fill="none"></path></g><g><path style="fill: none;" fill="none" stroke="none" stroke-width="1px"></path></g></g></g></g><g opacity="0.2"><g><g><g><path stroke="rgb(204, 51, 17)" stroke-width="2px" d="M34.200671875,-195.65350341796875L34.333296874999995,90.34190877278647L34.631703125,-13.117591010199657L34.863796875,132.28832329644098L34.930109375,-104.95147026909721L35.27825,9.148912217881936L35.759015625,-29.897037082248247L35.808749999999996,121.58619520399307L35.8750625,84.73482259114583L36.0076875,44.33457438151042L36.322671875,-33.23782009548613L36.521609375000004,3.952304416232641L36.952640625,42.62003919813369L37.2013125,49.99951171875L37.217890625,-1.8159518771701215L37.4400375,49.06143527560764L37.821334375,-53.031195746527786L37.87106875,40.20151774088542L38.38499062499999,-157.62533908420136L38.434725,101.4505615234375L38.882334375,103.97758653428818L39.081271875000006,137.70283338758682L39.213896875,35.34537760416667L39.412834374999996,-2.9207560221354036L39.54545937500001,76.13133748372395L39.810709375,57.1632080078125L40.026225,11.632558186848952L40.374365625,163.36942545572919L40.390943750000005,71.97444661458333L40.540146875000005,-26.947672526041654L40.78881875,4.389078776041673L40.85513125000001,53.07125515407986L41.020912499999994,88.52237616644966L41.12038125,99.34520467122397L41.59119999999999,103.97553507486978L41.972496875000004,46.199537489149314L42.055387499999995,44.304884168836814L42.08854375,19.117774115668407L42.35379375,125.05808512369791L42.4532625,142.51026068793402L42.917449999999995,84.45657009548611L42.9837625,137.66503058539496L43.01691875,-61.95135158962675L45.089184375,189.67058987087677L45.155496875,140.47021484375L45.792096875000006,139.10601298014325L45.974456249999996,93.95721435546875L46.090503125000005,141.9762471516927L46.189971875,8.408298068576391L46.455221875,138.47780015733505L46.919409375,73.55071343315971L47.3338625,131.22693549262152L47.483065625,26.84565904405381L47.814628125,41.598076714409714L48.743003124999994,128.34530639648438L49.678009375,17.877126057942704L49.7609,149.50446912977432L49.943259375,-105.49812825520834L50.05930625,110.83863661024307L50.12561875,121.44065348307291L50.158775000000006,-94.06941053602432L50.307978125000005,-1.0071173773871571L50.62296249999999,21.929429796006936L50.871634375,22.117455376519093L50.971103125,152.7024705674913L51.319243750000005,83.80756293402779L51.501603124999995,134.75570678710938L51.534759375,127.11017862955728L51.766853125000004,69.8411153157552L51.8829,71.45859781901042L52.197884375,163.9681159125434L52.2144625,106.43314615885416L52.413399999999996,169.35567728678387L52.57918125,28.327297634548607L52.6123375,127.95347764756943L52.7449625,-86.52108425564238L53.30861875,41.55495876736111L53.424665624999996,219.18672688802084L53.762859375,29.63661363389756L53.862328125,139.66973537868924L53.895484375,70.07666015625L53.94521875,174.39044358995224L54.01153125,149.37725999620224L54.111000000000004,104.349609375L54.1773125,112.3310546875L54.624921875,65.14189317491318L55.07253125,165.4333055284288L55.40409375,191.3014255099826L55.719078125,167.71128336588544L55.9014375,25.410569932725686L55.918015624999995,-50.30029296875L56.597718750000006,156.51784939236111L56.9624375,38.21107991536458L57.26084375,25.663384331597218L57.277421875,13.86212158203125L57.8642875,74.31639268663193L57.9969125,64.22455512152779L58.1295375,106.84832424587674L58.179271875000005,146.55435858832465L58.75950625,34.35194905598958L58.809240624999994,89.61852688259549L59.041334375000005,112.08390977647568L59.09106875,110.17314317491318L59.173959375,150.67975023057724L59.372896874999995,141.5277048746745L59.55525625,-35.88901435004341L60.069178125,15.254652235243064L60.201803125,170.68297153049045L60.7820375,130.79157850477432L61.030709375,111.87301974826389L61.3125375,146.13541327582465L61.34569375,155.514163547092L61.395428125,-15.961995442708346L61.461740625,122.52706909179688L62.51279375,115.03857082790799L62.545950000000005,139.41958787706162L62.7448875,0.12368435329860894L62.794621875,10.213134765625L63.706418750000005,152.6306881374783L63.921934375,104.30470106336807L64.03798125,114.44017876519096L64.56848125,89.56731499565971L64.618215625,126.4512498643663L64.717684375,244.6926710340712L64.7342625,129.87386745876736L65.181871875,112.3673095703125L65.248184375,63.151604546440964L65.331075,195.6454094780816L65.36423125,104.68284098307291L65.579746875,189.43935309516058L65.59632500000001,43.522345648871536L65.884784375,-0.6033528645833464L67.39339375,57.950819227430564L67.542596875,106.70878770616318L67.708378125,121.34762912326389L67.8907375,80.96808200412326L68.139409375,96.15548366970486L68.205721875,154.26044209798175L68.537284375,103.6719190809462L69.44908124999999,119.28199598524307L69.697753125,104.31969536675346L69.797221875,133.28514607747394L70.18515,55.157029893663186L70.268040625,108.83074273003471L71.5114,183.15552775065103L71.892696875,49.24740939670139L72.174525,174.4823489718967L72.754759375,145.04034423828125L73.451040625,84.79330783420139L73.53393125,127.2958543565538L73.749446875,20.676659478081593L73.882071875,74.6085205078125L73.93180625000001,156.76120842827692L74.253421875,119.56271023220486L74.4689375,119.27666219075522L74.551828125,202.5663621690538L74.783921875,77.54255506727432L74.81707812500001,211.59173923068573L74.9994375,103.32828097873264L75.77860937499999,99.61256578233505L75.7951875,149.04835510253906L76.143328125,102.5708448621962L76.607515625,87.38657633463542L76.740140625,127.38899061414932L76.872765625,163.7011277940538L77.320375,155.48104180230035L77.38668750000001,249.45386589898004L77.502734375,133.83773464626736L77.55246875,209.9969906277127L77.701671875,144.31343756781683L77.95034375,164.65794711642795L78.033234375,100.78641086154514L78.0896,137.91260443793402L78.2885375,120.30511474609375L78.371428125,104.41615125868057L78.45431875,258.45583767361114L78.47089687500001,123.31385972764755L78.68641249999999,46.08010525173611L78.702990625,147.62551879882812L78.71956875,224.6168467203776L78.88535,19.600575764973954L78.935084375,67.38149007161458L79.10086562500001,97.77979193793404L79.2169125,75.76472303602432L79.664521875,-3.0854322645399392L80.029240625,-33.12032741970488L80.19502187500001,120.55050659179688L80.47685,7.785101996527782L80.49342812500001,156.74405076768662L81.4715375,160.83600362141925L81.985459375,58.26111178927952L82.03519375,51.20506117078994L82.151240625,116.03882514105904L82.19102812499999,175.12046474880643L82.32365312499999,228.08069864908853L83.08624687499999,127.10409884982639L83.33491875,108.24298095703125L83.55043437500001,62.07690090603298L84.14724687500001,124.69605848524307L84.163825,54.011121961805564L84.47880937500001,161.26127115885419L84.49538749999999,82.2185770670573L84.511965625,-10.141520182291654L84.744059375,89.78324042426216L84.7606375,16.040398491753468L84.77721562500001,58.087371826171875L84.8932625,152.85871717664932L85.175090625,159.20567152235245L85.639278125,123.9097900390625L85.9542625,84.97409735785591L86.070309375,41.57778591579861L86.1532,149.8435567220052L86.35876875,10.631334092881936L86.40850312500001,210.0857815212674L86.75664375000001,50.22427707248264L87.15451875,249.32094997829864L87.20425312500001,52.675062391493064L87.83422187500001,178.25694105360245L88.397878125,33.22607082790798L88.663128125,195.48050944010416L89.14389375,214.7025909423828L89.27651875,104.80264621310764L89.458878125,182.1278957790799L89.69097187499999,53.645738389756936L90.393884375,4.512576633029516L90.758603125,172.5538092719184L90.77518125,95.65481567382812L90.89122812500001,183.5847863091363L90.924384375,46.65865410698784L91.04043125000001,18.461717393663186L91.4714625,37.615671793619796L92.1345875,157.3064490424262L92.184321875,141.9778323703342L92.30036874999999,153.84308200412326L92.49930625,137.4268561469184L92.69824375,21.892242431640625L92.913759375,-54.511715359158L92.9303375,138.43751695421005L92.96349375,1.050235324435766L93.1955875,107.00565253363716L93.5934625,122.07563612196182L93.643196875,124.17655436197916L93.67635312499999,116.86985270182291L93.709509375,94.08612060546875L93.75924375,53.468007405598954L93.82555624999999,135.01456366644965L93.87529062499999,131.40373399522568L94.190275,185.92415873209634L94.54504687500001,97.32369656032986L94.6279375,108.59620496961807L95.14185937500001,146.45773484971787L95.241328125,97.88672892252603L95.35737499999999,131.30317518446182L95.39053125,105.15277438693576L95.705515625,148.41063096788193L96.799671875,58.75032891167534L96.832828125,55.17567952473958L97.1478125,161.76663886176215L97.694890625,144.97484673394098L97.84409375,246.41485256618927L97.91040625000001,109.46923149956596L98.009875,102.42138671875L98.20881250000001,46.82739596896702L98.25854687500001,124.25865003797745L98.74594375,181.71053568522134L98.99461562500001,180.71074761284723L99.5085375,175.21339586046005L99.54169375,187.1737586127387L99.69089687499999,101.44698079427084L99.87325625,133.44191487630206L99.972725,93.09642198350693L100.08877187499999,140.82545301649307L100.70216250000001,0.25453016493056424L101.11661562500001,114.84062364366318L101.216084375,112.00244818793404L101.315553125,142.08370632595486L101.3652875,104.13491482204861L101.73000625,174.1112026638455L102.310240625,109.46520317925346L102.4926,-56.522630479600686L103.0628875,46.190660264756936L103.42760625000001,86.5367872450087L103.477340625,166.83978610568576L103.56023125,119.42365858289932L104.571496875,123.78741115993924L104.6543875,165.74456787109375L104.737278125,33.57254367404514L104.83674687499999,39.88186306423611L105.8480125,129.39356486002603L106.5111375,29.381598578559032L106.64376250000001,10.205898708767359L106.816175,179.34850396050348L107.0151125,166.90041605631512L107.396409375,163.04197523328995L107.993221875,51.74530368381077L108.159003125,43.386054144965286L108.225315625,198.84331766764322L108.63976875,119.28378634982639L108.70608125,42.049285888671875L108.80555000000001,81.51298692491318L109.385784375,157.77024671766495L109.43551875,97.9973585340712L110.048909375,161.35927497016058L110.21469062499999,42.33212619357639L110.529675,12.023790147569436L110.66229999999999,90.60990397135416L110.7286125,161.7674594455295L110.76176875,115.17034912109375L110.851290625,136.69855075412326L111.00049375,161.72132025824652L111.38179062500001,100.19029405381943L111.4978375,167.4808112250434L111.86255625000001,136.76774088541669L111.978603125,78.69913058810764L112.078071875,64.66244845920139L112.144384375,175.81618923611111L112.16096250000001,207.31858656141495L112.65830625,132.20857747395831L113.039603125,53.610527886284714L113.072759375,95.99114312065971L113.12249374999999,210.27878655327692L113.139071875,134.64962768554688L113.27169687499999,61.74892849392361L113.90166562499999,176.55072360568573L114.11718125,159.26852077907986L114.365853125,118.8385450575087L114.6808375,101.36630249023438L114.74715,113.24361843532986L114.85325,58.21597968207466L115.002453125,195.2266506618924L115.51637500000001,95.87357584635416L115.698734375,81.57859632703995L116.229234375,141.30808681911893L116.62710937499999,197.44767252604166L116.94209375,98.23872205946182L117.157609375,80.5524190266927L117.1741875,17.43546549479167L117.3068125,183.45582411024307L118.03625,185.92581854926215L118.1025625,142.26710679796005L118.168875,170.25248209635419L118.351234375,12.273993598090282L118.3678125,27.429653591579857L118.40096875,80.40154351128471L118.417546875,179.3799845377604L118.93809999999999,47.32918294270833L119.120459375,86.70082939995659L119.153615625,64.55741373697917L119.23650624999999,46.992072211371536L119.2696625,63.55637613932292L119.452021875,117.4993896484375L119.56806875,107.58203803168404L119.783584375,155.34292263454861L120.03225625,155.10301378038193L120.181459375,85.72086588541667L120.23119375,73.51072862413193L120.72853749999999,173.55857679578995L121.109834375,189.70850457085504L121.1264125,132.1470709906684L121.176146875,84.88140869140625L121.20930312499999,133.20998806423611L121.275615625,155.496334499783L121.375084375,168.04820760091144L121.839271875,115.51622517903647L121.97189687500001,115.91644626193576L122.35319375,116.49495781792534L122.518975,133.40621948242188L123.205309375,208.83668518066406L123.3545125,75.02440728081596L123.437403125,98.65695868598091L124.18341875,168.21415201822919L124.26630937499999,127.1897752549913L124.465246875,197.89752027723526L124.86312187499999,197.28959825303818L125.227840625,165.10257297092014L125.84123124999999,138.58622911241318L126.88565312499999,103.95199924045139L127.80408125,118.00628662109375L127.92012812499999,114.30034383138022L128.3677375,38.07773505316841L128.384315625,177.80345662434897L128.7656125,125.62745836046005L128.8982375,115.28273179796005L129.611096875,92.95699734157986L130.174753125,153.62103949652777L130.39026875,178.72849697536896L130.440003125,104.97840033637154L131.5242125,111.64668782552084L131.6568375,127.92423502604166L131.7894625,155.76873101128473L132.071290625,85.49554104275174L132.22049375,166.512690226237L132.336540625,162.07752821180557L132.436009375,-16.93763224283853L132.535478125,141.84510294596356L133.132290625,-27.503841824001753L133.264915625,177.7310028076172L133.67936874999998,127.32349310980904L133.695946875,37.713694254557296L134.226446875,166.72857835557724L134.259603125,197.12326219346787L134.591165625,189.0423583984375L134.67405625,77.2825419108073L134.7072125,135.43332248263889L134.74036875000002,33.667432996961814L135.1714,148.12118869357639L135.77484375,216.45806206597223L136.10640625000002,54.135999891493064L136.40481250000002,128.68402099609375L137.00162500000002,156.90555657280817L137.03478124999998,109.88082885742188L137.349765625,128.45724148220486L137.880265625,94.31394449869791L137.913421875,234.4869588216146L138.1289375,157.5310838487413L138.311296875,131.953860812717L138.327875,129.33739217122397L138.41076562499998,108.43667602539062L138.49365625,80.47263590494792L139.107046875,67.04534912109375L139.39550625,83.53363715277779L139.710490625,177.5950469970703L139.975740625,93.58217027452255L140.207834375,201.12875535753037L140.506240625,139.51546563042535L140.555975,157.42586263020831L141.11963125,155.87169562445746L141.16936562499998,164.25479804144965L141.31856875,120.43864610460068L141.4180375,120.62238226996529L141.500928125,232.75092061360678L141.71644375,99.49779595269096L141.799334375,222.0618472629123L142.064584375,85.31516181098091L142.147475,114.30179850260416L142.23036562500002,189.17521837022568L142.296678125,-48.43600124782988L142.561928125,144.00730387369794L143.12558437500002,71.11216227213542L143.5135125,105.87880452473959L144.20979375000002,231.70081583658853L144.292684375,101.49565633138022L144.458465625,53.256707085503464L144.52477812499998,163.72080315483942L144.790028125,204.01232401529947L144.9723875,40.873426649305564L145.3702625,126.5362548828125L145.652090625,84.7688768174913L145.967075,112.57271660698784L146.315215625,75.2118360731337L146.447840625,214.29739040798614L146.59704375,152.04380289713544L146.86229375,127.18917846679688L147.508840625,79.87894354926216L147.53205,142.49541558159723L147.58178437499998,109.51380411783853L147.76414375,125.10373942057291L147.88019062499998,92.70966593424478L148.510159375,176.46864657931854L148.775409375,86.86170111762154L148.85829999999999,-55.73516845703125L148.89145625,-11.459601508246532L149.22301875,110.1329345703125L149.405378125,185.3571353488498L149.65405,32.83819580078125L149.81983125,189.7223239474826L150.864253125,195.3355458577474L150.91398750000002,140.77092149522568L151.01345625,90.00852796766495L151.63347812499998,162.61008707682294L151.84899375,152.84976535373264L151.86557187500003,59.618581136067704L151.898728125,77.43498399522568L151.998196875,200.33912997775604L152.34633749999998,107.55510796440971L152.64474374999998,38.203172471788186L153.10893125,209.31417168511285L153.30786874999998,208.93043687608505L153.457071875,169.88596089680988L154.02072812499998,147.83810594346787L154.451759375,226.78665669759116L154.518071875,72.96048990885417L154.551228125,24.241163465711814L154.76674375000002,119.33753458658853L154.849634375,99.9090576171875L154.9988375,129.3249715169271L155.29724375,136.93088785807294L155.93384375,115.86788262261284L156.116203125,193.4756554497613L156.13278125000002,215.6009063720703L156.59696875,146.80152214898004L156.66328125,138.94474962022568L156.6964375,184.97291564941406L156.895375,180.2057342529297L157.29325,126.55233086480034L157.4921875,158.8944091796875L157.62481250000002,182.56922064887152L157.72428125,83.87701416015625L157.906640625,161.90818956163193L158.039265625,41.47506374782986L158.072421875,152.3370869954427L158.17189062499997,78.78469509548611L158.735546875,123.75522189670139L158.88475000000003,144.27093505859375L158.91790625,128.64448377821182L158.967640625,86.52332221137154L159.48156250000002,168.57166544596356L159.58103125,173.3215772840712L159.83633437499998,-6.9822726779513715L159.8529125,-79.51176961263022L160.94706875,149.3924594455295L160.996803125,66.9086473253038L161.427834375,196.29320441351996L161.51072499999998,97.03902859157986L162.057803125,174.45506456163193L162.07438125000002,84.03602091471355L162.5054125,63.73612128363716L162.787240625,163.36563958062067L162.85355312500002,139.27678765190973L162.98617812499998,-23.110548231336814L163.06906874999999,169.4263966878255L163.085646875,144.97214253743488L163.185115625,99.10190158420139L163.51667812500003,157.29740397135419L163.73219375,206.53463066948785L163.8316625,116.5299072265625L164.23616875,230.8375244140625L164.28590312499998,7.218712700737843L165.23085625000002,105.49741956922745L165.99345,183.46041191948785L166.22554375,149.25404188368057L166.35816875,161.4193827311198L166.73946562499998,113.4983350965712L166.75604375,132.15673149956598L167.05445,97.41142442491318L167.48548125000002,213.2611423068576L167.8502,148.13142734103732L168.1552375,118.4330274793837L168.171815625,41.85812717013889L168.636003125,91.24675157335068L168.768628125,93.59287516276041L168.78520625000002,81.71775987413193L169.033878125,96.52045694986978L169.24939375,27.388587103949657L169.680425,98.51279703776041L170.04514375000002,-36.462938096788186L170.1446125,190.54076300726996L170.2772375,106.66246202256943L170.360128125,21.959865993923607L170.44301875,92.93581136067709L171.23876875000002,125.84136962890625L171.288503125,41.077528211805564L171.4708625,73.51371256510417L171.70295625,203.65650770399307L172.03451875,208.6237996419271L172.25666562499998,54.339430067274314L172.33955625000002,94.28652954101562L173.01925937500002,127.0447557237413L173.085571875,183.2865227593316L173.582915625,172.42898729112412L173.79843125,179.0382859971788L174.080259375,134.99546644422745L174.22946249999998,140.96487765842014L174.52786874999998,121.93016899956596L174.6273375,150.83976406521268L174.776540625,156.7959713406033L175.4894,92.48374430338541L175.68833750000002,164.46869066026474L175.72149375,160.51815795898438L175.837540625,111.89942762586807L176.35809375,81.60981580946182L176.42440625,117.77592637803818L176.93832812500003,163.0247802734375L177.037796875,122.38917371961807L177.336203125,193.96772596571182L177.435671875,-36.724107530381936L177.89985937499998,59.217949761284714L177.933015625,74.29345364040799L178.297734375,128.63426378038193L178.330890625,154.66351657443576L178.49667187499998,142.4286872016059L178.67903124999998,151.12459988064236L179.07690625,88.29996066623264L179.24268750000002,50.361985948350686L179.7731875,140.38162909613715L179.856078125,54.078559027777786L179.972125,140.9397752549913L180.154484375,116.45232476128471L180.24400625,149.9212137858073L180.625303125,213.43626234266495L181.43763125,222.1478034125434L181.653146875,91.46346028645834L181.752615625,140.49874877929688L181.83550625,-5.51544189453125L182.10075625000002,138.9967820909288L182.548365625,170.32034810384113L182.813615625,154.45796034071182L182.96281875,158.72581651475693L183.078865625,113.59087456597221L183.16175625,182.6097835964627L183.940928125,149.08919779459637L184.007240625,99.67228190104166L184.511215625,155.1900143093533L184.710153125,195.35699293348526L185.141184375,104.39604695638022L185.19091875,199.30081176757812L185.306965625,137.38194783528644L185.35670000000002,103.74424235026041L185.439590625,123.71810913085938L185.50590312499997,239.38161044650604L185.671684375,79.94947645399307L185.737996875,181.0114542643229L185.87062187499998,81.34238009982639L186.16902812499998,146.23843383789062L186.815575,71.81570095486111L187.0145125,44.88895331488716L187.04766874999999,126.80107964409721L187.163715625,-2.6129625108506858L187.32949687500002,184.85130140516495L187.34607499999998,144.45026991102432L187.4123875,139.48116895887588L187.51185625000002,138.44313049316406L187.561590625,140.38084581163193L187.71079375,57.649627685546875L187.826840625,130.67818874782986L187.94288749999998,190.90698581271698L188.04235625,19.129709879557296L188.058934375,72.5773145887587L188.158403125,139.32037183973526L188.24129374999998,128.88043891059027L188.39712812500002,91.99807061089409L188.91105,163.866941663954L189.29234687500002,116.30521647135416L189.325503125,125.67027791341147L189.54101874999998,160.76711188422308L189.77311250000002,4.382775200737843L189.80626875,133.31106906467014L190.07151875000002,172.98939005533856L190.088096875,151.24283854166669L190.10467500000001,162.38259887695312L190.900425,139.224605984158L191.049628125,183.71251763237848L191.19883125,92.11280314127603L191.3646125,58.519782172309036L191.81222187499998,17.292833116319436L191.944846875,180.06351216634116L192.044315625,217.29125298394098L192.25983125000002,85.95521714952255L192.7969625,132.59440104166669L193.09536875,140.40542602539062L193.111946875,89.50304836697049L193.16168125,11.233642578125L193.44350937500002,39.73617214626736L193.642446875,149.8422325981988L193.65902499999999,150.21460978190106L193.77507187499998,119.20351833767361L194.17294687499998,98.79798719618057L194.206103125,121.9819776746962L194.454775,160.97322760687933L194.47135312499998,56.47652859157986L194.76975937499998,133.43773735894098L195.035009375,97.20351833767361L195.200790625,154.0458221435547L195.4494625,131.78810289171005L195.63182187499999,116.70439317491318L195.84733749999998,179.4087795681424L196.062853125,85.10236952039932L196.34468125,113.78580050998264L196.460728125,227.76555718315973L196.78234375000002,71.27366807725693L196.948125,216.64011976453995L197.14706249999998,-12.261759440104154L197.163640625,96.74246215820312L197.6775625,176.55206637912323L197.694140625,178.6377478705512L197.71071875,147.60584343804254L197.8765,106.87424723307291L198.09201562500002,78.76033867730034L198.19148437500002,110.34434678819443L198.324109375,88.68943956163193L198.423578125,266.9967905680339L199.58404687499998,11.954637315538186L200.03165625,81.32324557834201L200.545578125,113.53731282552084L200.62846875,106.29066297743057L200.81745937500003,81.85703531901042L201.66294374999998,159.67159525553387L201.6961,89.41379123263889L201.977928125,201.12791612413193L202.093975,30.303785536024314L202.25975624999998,166.61050754123264L202.98919375,48.18967692057292L203.171553125,145.1463114420573L203.436803125,122.65384928385416L204.19939687500002,90.07548014322916L204.24913125,102.10452948676216L204.265709375,202.90065680609808L205.21729375,-0.42319742838540364L205.399653125,90.17730712890625L205.89699687499999,66.2465108235677L205.99646562499998,114.35349527994791L206.01304374999998,232.26256137424042L206.1125125,107.24574788411459L206.825371875,120.27154541015625L207.1072,185.4595964219835L207.65427812500002,87.38590494791667L207.820059375,216.0313958062066L208.01899687500003,223.49673122829864L208.151621875,163.02823045518662L208.40029375,212.6649695502387L208.6987,164.51128641764325L209.0037375,208.95490519205728L209.16951875,108.95509847005209L209.20267499999997,73.17891438802083L210.23051875,-33.741136338975686L210.3963,159.98973931206598L210.512346875,165.53511386447482L210.5952375,122.28663804796005L210.8604875,42.27841525607639L210.976534375,177.13419596354166L210.9931125,193.24423217773438L211.19205,75.76375325520833L211.29151875,188.6889851888021L211.9214875,127.99902004665799L212.46856562500002,106.76686265733505L213.370415625,262.1777818467882L213.436728125,214.93099297417535L214.68008749999998,97.63973320855034L214.895603125,193.20628017849396L215.44268125000002,126.00869411892361L215.459259375,52.47506374782986L215.54215,137.90035163031683L215.674775,193.95922173394098L215.97318125,54.99171956380208L216.63630625000002,-38.40317111545137L217.02423437500002,123.07372707790799L217.123703125,112.19051106770834L217.14028125000002,133.99651760525174L217.27290625,135.62183295355902L217.7039375,81.60183376736111L217.886296875,188.07970174153647L218.51626562500002,169.69569736056857L218.582578125,116.24848429361978L218.682046875,-7.0325893825955035L218.79809375,138.83792453342014L218.81467187500002,149.99172804090713L219.013609375,172.28223334418402L219.312015625,39.431884765625L219.77620312500002,111.62583753797745L219.95856250000003,205.08324178059897L220.32328124999998,113.91910807291666L220.538796875,218.48296440972223L220.55537500000003,186.34077284071182L220.688,93.68090142144096L220.8869375,141.54685804578995L221.09250624999999,89.74262152777779L221.58985,56.87130398220486L221.75563125,-17.92550320095488L221.838521875,205.18298000759552L222.40217812499998,139.739503648546L222.48506875,44.748670789930564L222.518225,29.82143147786458L222.65085,148.59487067328558L222.70058437499998,71.23748779296875L222.733740625,-47.18009779188369L222.800053125,135.43914116753473L223.14819375000002,195.53446282280817L223.18134999999998,111.02975802951389L223.396865625,145.08286539713544L223.77816249999998,198.38944159613715L223.794740625,97.21806504991318L224.27550625,32.936292860243064L224.5076,45.691148546006936L224.64022500000002,-29.260972764756936L225.17735625,174.17285834418402L225.70785625000002,58.987030029296875L226.586496875,212.15156385633682L226.868325,178.98692491319443L227.249621875,46.80930582682292L227.481715625,167.13461812337238L227.581184375,140.43666415744357L227.7303875,95.91445583767361L228.04537187499997,160.3682149251302L228.078528125,169.39765760633682L228.59244999999999,98.8747117784288L228.62560625,89.27041286892361L228.69191875,168.217770046658L228.907434375,156.59282090928818L229.040059375,189.80785115559897L229.08979375,149.79152425130206L229.15610625,160.06195068359375L229.41140937499998,182.04572550455728L229.56061250000002,163.305904812283L229.66008125,102.87479654947916L229.742971875,64.46763441297745L230.273471875,146.78453233506943L230.3563625,87.19004652235245L230.63819062500002,183.76648966471353L230.870284375,137.89790852864581L230.8868625,207.57966274685333L231.11895625000002,180.13857693142364L231.1521125,67.81147596571182L231.23500312500002,180.05696614583334L231.53340937500002,150.17615424262152L231.8152375,131.48937310112848L232.063909375,211.41467963324652L232.395471875,214.47236124674478L232.56125312499998,94.86261664496529L232.660721875,2.481743706597218L232.74361249999998,40.57078043619792L232.8762375,119.2333204481337L233.8444,171.40562608506943L234.192540625,53.14652506510417L234.39147812500002,98.68008422851562L234.50752500000002,44.927483452690964L234.5738375,134.21751573350693L235.08775937500002,138.11379665798611L235.5022125,50.77294921875L235.551946875,87.6982862684462L235.68457187500002,60.268744574652786L235.949821875,141.48001776801215L236.099025,176.19940185546875L236.612946875,201.70961676703558L236.646103125,99.8875732421875L236.712415625,131.9165242513021L236.811884375,30.159474690755204L236.845040625,76.50212944878471L236.86161875,109.62715657552084L237.32580625,209.50215996636285L237.46506250000002,166.84112887912326L237.547953125,115.84173583984375L237.664,130.70922173394098L237.7303125,206.64430914984808L238.12818750000002,138.87835693359375L238.1945,162.457029554579L238.22765625,173.91029018825955L238.575796875,193.34012858072916L238.592375,102.58486938476562L238.60895312500003,205.6745842827691L238.84104687500002,147.4937032063802L238.940515625,96.47916666666666L239.039984375,127.16362847222221L239.48759375,172.687993367513L239.52075,167.57767740885419L239.55390625,207.69653998480902L240.2501875,78.71035766601562L240.7806875,187.28190782335068L241.5499125,100.83829413519966L242.229615625,189.6579827202691L242.329084375,115.5577392578125L242.411975,154.56211853027344L242.4782875,114.09456380208334L242.84300625,37.05271402994792L243.323771875,198.41443210177948L243.63875625,162.5875956217448L244.55055312500002,212.41422526041666L244.69975625,180.2588670518663L245.61818437500003,54.281951904296875L245.80054374999997,64.2037794325087L246.513403125,161.9403788248698L246.57971562499998,178.79507615831162L246.86154375,195.93496365017364L247.22626250000002,99.29324679904514L247.69045,156.69742668999567L247.7567625,103.83070203993057L247.78991875,186.27061292860245L247.83965312499998,137.24987114800348L248.10490312500002,73.18965657552083L248.32041875,81.99989149305557L248.45304375,108.18356323242188L248.51935625000002,92.12511189778647L248.55251249999998,203.11467997233072L248.618825,107.30046590169272L248.75145,140.9525875515408L248.768028125,160.9238993326823L248.834340625,101.67394680447049L248.933809375,95.77577718098959L248.9503875,212.20626322428384L249.61351249999998,118.84667629665799L249.669878125,193.27325100368927L251.26137812500002,109.39925808376736L251.427159375,69.45279269748264L251.62609687499997,130.80366346571182L251.907925,127.91006130642361L252.023971875,235.60487365722656L252.173175,162.98975626627606L252.28922187499998,236.48677741156683L252.47158124999999,117.74974229600693L253.0352375,120.83737521701389L253.18444062499998,188.24536641438803L253.920509375,96.90758599175346L254.56705625,117.57525634765625L254.79915,215.43647257486978L255.0644,136.4749043782552L255.677790625,178.42754787868927L256.29118125,183.86723497178818L256.788525,140.84313286675348L256.937728125,102.71940782335068L256.95430625,72.24658203125L257.25271250000003,167.65358140733505L257.3853375,165.4674530029297L257.68374375,203.9276360405816L257.872734375,117.98040093315971L257.939046875,104.85915459526909L258.45296875,142.73118421766495L258.767953125,112.74026489257812L258.801109375,137.8112063937717L258.834265625,200.68565877278647L258.85084375,34.85392252604167L259.066359375,138.21209886338974L259.762640625,197.21869235568573L259.994734375,163.27513292100693L260.326296875,130.94043986002603L260.70759375,213.94780307345917L261.0723125,85.06018405490451L261.420453125,98.45871310763889L261.90121875,166.82415771484375L262.189678125,251.98378160264755L262.488084375,125.50515407986111L262.60413125,-29.208306206597218L262.86938125,104.51286824544272L263.118053125,144.10204399956598L263.3004125,191.80183241102432L263.53250625,193.44452921549478L264.046428125,160.01062689887152L264.212209375,183.93097941080728L264.3614125,162.630862765842L264.79244375,154.15725368923611L265.273209375,19.0982666015625L265.45556875,247.5366651746962L266.009278125,36.38132731119792L266.0590125,124.86170450846353L266.373996875,170.56036885579425L266.55635625,218.49859280056427L266.606090625,161.85964457194012L266.78845,90.33183797200522L266.88791875000004,213.93299526638458L267.00396562500003,185.38852267795136L267.302371875,117.61673312717014L267.61735625,4.067559136284718L267.68366875,49.801079644097214L267.799715625,162.74747890896268L267.899184375,204.70907423231338L268.098121875,45.49320136176216L268.14785624999996,224.18398878309463L268.28048125,221.61597188313803L268.37995,84.04713609483505L268.396528125,99.0201416015625L268.960184375,197.58221096462677L269.07623125,194.8473917643229L269.67304375000003,98.93256293402779L270.326221875,171.87449645996094L270.458846875,105.0478515625L270.5417375,85.45387776692708L270.657784375,192.31134033203125L270.740675,82.11895073784721L270.757253125,167.2363518608941L270.889878125,130.16368272569443L271.10539375,168.16211954752606L271.287753125,61.8360595703125L271.30433125,115.49414401584201L271.387221875,66.31872219509549L271.619315625,150.96255323621963L271.75194062500003,111.36933051215279L271.76851875,3.0938245985243142L271.90114375,207.2749277750651L272.89583125,194.48465643988715L273.29370625,117.57264539930557L273.542378125,35.91855536566841L273.55895625,82.87776692708333L273.75789375,137.5262959798177L274.22871250000003,152.7064242892795L274.99130625,69.69553629557292L275.356025,184.70152621799042L276.234665625,121.50887383355034L276.632540625,191.57257249620224L276.86463437500004,171.37332492404514L277.01383749999997,162.26376342773438L277.262509375,152.84745279947919L277.5443375,188.8977491590712L277.6769625,13.270517985026048L278.09141562499997,241.85570780436197L278.24061875,176.40046352810333L278.24725,123.30852593315971" style="fill: none;" fill="none"></path></g><g><path style="fill: none;" fill="none" stroke="none" stroke-width="1px"></path></g></g></g></g></g></g><g transform="translate(31, 176)" clip-path="url(#clip_1)"><clipPath id="clip_1"><rect width="298" height="24"></rect></clipPath><g><g><line x1="0" y1="0" x2="0" y2="5" style="visibility: inherit;" fill="rgb(0, 0, 0)" stroke="rgb(204, 204, 204)" stroke-width="1px"></line><line x1="33.15625" y1="0" x2="33.15625" y2="5" style="visibility: inherit;" fill="rgb(0, 0, 0)" stroke="rgb(204, 204, 204)" stroke-width="1px"></line><line x1="66.3125" y1="0" x2="66.3125" y2="5" style="visibility: inherit;" fill="rgb(0, 0, 0)" stroke="rgb(204, 204, 204)" stroke-width="1px"></line><line x1="99.46875" y1="0" x2="99.46875" y2="5" style="visibility: inherit;" fill="rgb(0, 0, 0)" stroke="rgb(204, 204, 204)" stroke-width="1px"></line><line x1="132.625" y1="0" x2="132.625" y2="5" style="visibility: inherit;" fill="rgb(0, 0, 0)" stroke="rgb(204, 204, 204)" stroke-width="1px"></line><line x1="165.78125" y1="0" x2="165.78125" y2="5" style="visibility: inherit;" fill="rgb(0, 0, 0)" stroke="rgb(204, 204, 204)" stroke-width="1px"></line><line x1="198.9375" y1="0" x2="198.9375" y2="5" style="visibility: inherit;" fill="rgb(0, 0, 0)" stroke="rgb(204, 204, 204)" stroke-width="1px"></line><line x1="232.09375" y1="0" x2="232.09375" y2="5" style="visibility: inherit;" fill="rgb(0, 0, 0)" stroke="rgb(204, 204, 204)" stroke-width="1px"></line><line x1="265.25" y1="0" x2="265.25" y2="5" style="visibility: inherit;" fill="rgb(0, 0, 0)" stroke="rgb(204, 204, 204)" stroke-width="1px"></line><line x1="298.40625" y1="0" x2="298.40625" y2="5" style="visibility: inherit;" fill="rgb(0, 0, 0)" stroke="rgb(204, 204, 204)" stroke-width="1px"></line></g><g transform="translate(0, 8)"><text x="0" y="0" dx="0em" dy="0.95em" style="text-anchor: middle; visibility: hidden; font-family: Roboto, sans-serif; font-size: 12px; font-weight: 200;" fill="rgb(33, 33, 33)" stroke="none" stroke-width="1px">-20k</text><text x="33.15625" y="0" dx="0em" dy="0.95em" style="text-anchor: middle; visibility: inherit; font-family: Roboto, sans-serif; font-size: 12px; font-weight: 200;" fill="rgb(33, 33, 33)" stroke="none" stroke-width="1px">0</text><text x="66.3125" y="0" dx="0em" dy="0.95em" style="text-anchor: middle; visibility: inherit; font-family: Roboto, sans-serif; font-size: 12px; font-weight: 200;" fill="rgb(33, 33, 33)" stroke="none" stroke-width="1px">20k</text><text x="99.46875" y="0" dx="0em" dy="0.95em" style="text-anchor: middle; visibility: inherit; font-family: Roboto, sans-serif; font-size: 12px; font-weight: 200;" fill="rgb(33, 33, 33)" stroke="none" stroke-width="1px">40k</text><text x="132.625" y="0" dx="0em" dy="0.95em" style="text-anchor: middle; visibility: inherit; font-family: Roboto, sans-serif; font-size: 12px; font-weight: 200;" fill="rgb(33, 33, 33)" stroke="none" stroke-width="1px">60k</text><text x="165.78125" y="0" dx="0em" dy="0.95em" style="text-anchor: middle; visibility: inherit; font-family: Roboto, sans-serif; font-size: 12px; font-weight: 200;" fill="rgb(33, 33, 33)" stroke="none" stroke-width="1px">80k</text><text x="198.9375" y="0" dx="0em" dy="0.95em" style="text-anchor: middle; visibility: inherit; font-family: Roboto, sans-serif; font-size: 12px; font-weight: 200;" fill="rgb(33, 33, 33)" stroke="none" stroke-width="1px">100k</text><text x="232.09375" y="0" dx="0em" dy="0.95em" style="text-anchor: middle; visibility: inherit; font-family: Roboto, sans-serif; font-size: 12px; font-weight: 200;" fill="rgb(33, 33, 33)" stroke="none" stroke-width="1px">120k</text><text x="265.25" y="0" dx="0em" dy="0.95em" style="text-anchor: middle; visibility: inherit; font-family: Roboto, sans-serif; font-size: 12px; font-weight: 200;" fill="rgb(33, 33, 33)" stroke="none" stroke-width="1px">140k</text><text x="298.40625" y="0" dx="0em" dy="0.95em" style="text-anchor: middle; visibility: hidden; font-family: Roboto, sans-serif; font-size: 12px; font-weight: 200;" fill="rgb(33, 33, 33)" stroke="none" stroke-width="1px">160k</text></g><line x1="0" y1="0" x2="298.40625" y2="0" fill="rgb(0, 0, 0)" stroke="rgb(204, 204, 204)" stroke-width="1px"></line></g></g></g></g></svg>