<svg viewBox="0 0 330 200" xmlns="http://www.w3.org/2000/svg"><g><g><g><g><g><line x1="51.5625" y1="177" x2="46.5625" y2="177" style="visibility: inherit;" fill="rgb(0, 0, 0)" stroke="rgb(204, 204, 204)" stroke-width="1px"></line><line x1="51.5625" y1="162.25" x2="46.5625" y2="162.25" style="visibility: inherit;" fill="rgb(0, 0, 0)" stroke="rgb(204, 204, 204)" stroke-width="1px"></line><line x1="51.5625" y1="147.5" x2="46.5625" y2="147.5" style="visibility: inherit;" fill="rgb(0, 0, 0)" stroke="rgb(204, 204, 204)" stroke-width="1px"></line><line x1="51.5625" y1="132.75" x2="46.5625" y2="132.75" style="visibility: inherit;" fill="rgb(0, 0, 0)" stroke="rgb(204, 204, 204)" stroke-width="1px"></line><line x1="51.5625" y1="118.00000000000001" x2="46.5625" y2="118.00000000000001" style="visibility: inherit;" fill="rgb(0, 0, 0)" stroke="rgb(204, 204, 204)" stroke-width="1px"></line><line x1="51.5625" y1="103.24999999999999" x2="46.5625" y2="103.24999999999999" style="visibility: inherit;" fill="rgb(0, 0, 0)" stroke="rgb(204, 204, 204)" stroke-width="1px"></line><line x1="51.5625" y1="88.5" x2="46.5625" y2="88.5" style="visibility: inherit;" fill="rgb(0, 0, 0)" stroke="rgb(204, 204, 204)" stroke-width="1px"></line><line x1="51.5625" y1="73.75" x2="46.5625" y2="73.75" style="visibility: inherit;" fill="rgb(0, 0, 0)" stroke="rgb(204, 204, 204)" stroke-width="1px"></line><line x1="51.5625" y1="59.00000000000001" x2="46.5625" y2="59.00000000000001" style="visibility: inherit;" fill="rgb(0, 0, 0)" stroke="rgb(204, 204, 204)" stroke-width="1px"></line><line x1="51.5625" y1="44.25" x2="46.5625" y2="44.25" style="visibility: inherit;" fill="rgb(0, 0, 0)" stroke="rgb(204, 204, 204)" stroke-width="1px"></line><line x1="51.5625" y1="29.499999999999993" x2="46.5625" y2="29.499999999999993" style="visibility: inherit;" fill="rgb(0, 0, 0)" stroke="rgb(204, 204, 204)" stroke-width="1px"></line><line x1="51.5625" y1="14.750000000000007" x2="46.5625" y2="14.750000000000007" style="visibility: inherit;" fill="rgb(0, 0, 0)" stroke="rgb(204, 204, 204)" stroke-width="1px"></line><line x1="51.5625" y1="0" x2="46.5625" y2="0" style="visibility: inherit;" fill="rgb(0, 0, 0)" stroke="rgb(204, 204, 204)" stroke-width="1px"></line></g><g transform="translate(41.5625, 0)"><text x="0" y="177" dx="0em" dy="0.3em" style="text-anchor: end; visibility: hidden; font-family: Roboto, sans-serif; font-size: 12px; font-weight: 200;" fill="rgb(33, 33, 33)" stroke="none" stroke-width="1px">6.5</text><text x="0" y="162.25" dx="0em" dy="0.3em" style="text-anchor: end; visibility: inherit; font-family: Roboto, sans-serif; font-size: 12px; font-weight: 200;" fill="rgb(33, 33, 33)" stroke="none" stroke-width="1px">7</text><text x="0" y="147.5" dx="0em" dy="0.3em" style="text-anchor: end; visibility: hidden; font-family: Roboto, sans-serif; font-size: 12px; font-weight: 200;" fill="rgb(33, 33, 33)" stroke="none" stroke-width="1px">7.5</text><text x="0" y="132.75" dx="0em" dy="0.3em" style="text-anchor: end; visibility: inherit; font-family: Roboto, sans-serif; font-size: 12px; font-weight: 200;" fill="rgb(33, 33, 33)" stroke="none" stroke-width="1px">8</text><text x="0" y="118.00000000000001" dx="0em" dy="0.3em" style="text-anchor: end; visibility: hidden; font-family: Roboto, sans-serif; font-size: 12px; font-weight: 200;" fill="rgb(33, 33, 33)" stroke="none" stroke-width="1px">8.5</text><text x="0" y="103.24999999999999" dx="0em" dy="0.3em" style="text-anchor: end; visibility: inherit; font-family: Roboto, sans-serif; font-size: 12px; font-weight: 200;" fill="rgb(33, 33, 33)" stroke="none" stroke-width="1px">9</text><text x="0" y="88.5" dx="0em" dy="0.3em" style="text-anchor: end; visibility: hidden; font-family: Roboto, sans-serif; font-size: 12px; font-weight: 200;" fill="rgb(33, 33, 33)" stroke="none" stroke-width="1px">9.5</text><text x="0" y="73.75" dx="0em" dy="0.3em" style="text-anchor: end; visibility: inherit; font-family: Roboto, sans-serif; font-size: 12px; font-weight: 200;" fill="rgb(33, 33, 33)" stroke="none" stroke-width="1px">10</text><text x="0" y="59.00000000000001" dx="0em" dy="0.3em" style="text-anchor: end; visibility: hidden; font-family: Roboto, sans-serif; font-size: 12px; font-weight: 200;" fill="rgb(33, 33, 33)" stroke="none" stroke-width="1px">10.5</text><text x="0" y="44.25" dx="0em" dy="0.3em" style="text-anchor: end; visibility: inherit; font-family: Roboto, sans-serif; font-size: 12px; font-weight: 200;" fill="rgb(33, 33, 33)" stroke="none" stroke-width="1px">11</text><text x="0" y="29.499999999999993" dx="0em" dy="0.3em" style="text-anchor: end; visibility: hidden; font-family: Roboto, sans-serif; font-size: 12px; font-weight: 200;" fill="rgb(33, 33, 33)" stroke="none" stroke-width="1px">11.5</text><text x="0" y="14.750000000000007" dx="0em" dy="0.3em" style="text-anchor: end; visibility: inherit; font-family: Roboto, sans-serif; font-size: 12px; font-weight: 200;" fill="rgb(33, 33, 33)" stroke="none" stroke-width="1px">12</text><text x="0" y="0" dx="0em" dy="0.3em" style="text-anchor: end; visibility: hidden; font-family: Roboto, sans-serif; font-size: 12px; font-weight: 200;" fill="rgb(33, 33, 33)" stroke="none" stroke-width="1px">12.5</text></g><line x1="51.5625" y1="0" x2="51.5625" y2="177" fill="rgb(0, 0, 0)" stroke="rgb(204, 204, 204)" stroke-width="1px"></line></g></g><g transform="translate(51, 0)" clip-path="url(#clip_0)"><clipPath id="clip_0"><rect width="278" height="177"></rect></clipPath><g><g><g><line x1="0" y1="0" x2="0" y2="177" fill="rgb(0, 0, 0)" stroke="rgb(66, 66, 66)" stroke-width="1px" opacity="0.25"></line><line x1="30.9375" y1="0" x2="30.9375" y2="177" fill="rgb(0, 0, 0)" stroke="rgb(66, 66, 66)" stroke-width="1px" opacity="0.25"></line><line x1="61.875" y1="0" x2="61.875" y2="177" fill="rgb(0, 0, 0)" stroke="rgb(66, 66, 66)" stroke-width="1px" opacity="0.25"></line><line x1="92.8125" y1="0" x2="92.8125" y2="177" fill="rgb(0, 0, 0)" stroke="rgb(66, 66, 66)" stroke-width="1px" opacity="0.25"></line><line x1="123.75" y1="0" x2="123.75" y2="177" fill="rgb(0, 0, 0)" stroke="rgb(66, 66, 66)" stroke-width="1px" opacity="0.25"></line><line x1="154.6875" y1="0" x2="154.6875" y2="177" fill="rgb(0, 0, 0)" stroke="rgb(66, 66, 66)" stroke-width="1px" opacity="0.25"></line><line x1="185.625" y1="0" x2="185.625" y2="177" fill="rgb(0, 0, 0)" stroke="rgb(66, 66, 66)" stroke-width="1px" opacity="0.25"></line><line x1="216.5625" y1="0" x2="216.5625" y2="177" fill="rgb(0, 0, 0)" stroke="rgb(66, 66, 66)" stroke-width="1px" opacity="0.25"></line><line x1="247.5" y1="0" x2="247.5" y2="177" fill="rgb(0, 0, 0)" stroke="rgb(66, 66, 66)" stroke-width="1px" opacity="0.25"></line><line x1="278.4375" y1="0" x2="278.4375" y2="177" fill="rgb(0, 0, 0)" stroke="rgb(66, 66, 66)" stroke-width="1px" opacity="0.25"></line></g><g><line x1="0" y1="177" x2="278.4375" y2="177" fill="rgb(0, 0, 0)" stroke="rgb(66, 66, 66)" stroke-width="1px" opacity="0.25"></line><line x1="0" y1="162.25" x2="278.4375" y2="162.25" fill="rgb(0, 0, 0)" stroke="rgb(66, 66, 66)" stroke-width="1px" opacity="0.25"></line><line x1="0" y1="147.5" x2="278.4375" y2="147.5" fill="rgb(0, 0, 0)" stroke="rgb(66, 66, 66)" stroke-width="1px" opacity="0.25"></line><line x1="0" y1="132.75" x2="278.4375" y2="132.75" fill="rgb(0, 0, 0)" stroke="rgb(66, 66, 66)" stroke-width="1px" opacity="0.25"></line><line x1="0" y1="118.00000000000001" x2="278.4375" y2="118.00000000000001" fill="rgb(0, 0, 0)" stroke="rgb(66, 66, 66)" stroke-width="1px" opacity="0.25"></line><line x1="0" y1="103.24999999999999" x2="278.4375" y2="103.24999999999999" fill="rgb(0, 0, 0)" stroke="rgb(66, 66, 66)" stroke-width="1px" opacity="0.25"></line><line x1="0" y1="88.5" x2="278.4375" y2="88.5" fill="rgb(0, 0, 0)" stroke="rgb(66, 66, 66)" stroke-width="1px" opacity="0.25"></line><line x1="0" y1="73.75" x2="278.4375" y2="73.75" fill="rgb(0, 0, 0)" stroke="rgb(66, 66, 66)" stroke-width="1px" opacity="0.25"></line><line x1="0" y1="59.00000000000001" x2="278.4375" y2="59.00000000000001" fill="rgb(0, 0, 0)" stroke="rgb(66, 66, 66)" stroke-width="1px" opacity="0.25"></line><line x1="0" y1="44.25" x2="278.4375" y2="44.25" fill="rgb(0, 0, 0)" stroke="rgb(66, 66, 66)" stroke-width="1px" opacity="0.25"></line><line x1="0" y1="29.499999999999993" x2="278.4375" y2="29.499999999999993" fill="rgb(0, 0, 0)" stroke="rgb(66, 66, 66)" stroke-width="1px" opacity="0.25"></line><line x1="0" y1="14.750000000000007" x2="278.4375" y2="14.750000000000007" fill="rgb(0, 0, 0)" stroke="rgb(66, 66, 66)" stroke-width="1px" opacity="0.25"></line><line x1="0" y1="0" x2="278.4375" y2="0" fill="rgb(0, 0, 0)" stroke="rgb(66, 66, 66)" stroke-width="1px" opacity="0.25"></line></g></g></g><g><g><line x1="0" y1="368.74999999999994" x2="278.4375" y2="368.74999999999994" fill="rgb(0, 0, 0)" stroke="rgb(153, 153, 153)" stroke-width="1.5px"></line></g></g><g><g><line x1="30.9375" y1="0" x2="30.9375" y2="177" fill="rgb(0, 0, 0)" stroke="rgb(153, 153, 153)" stroke-width="1.5px"></line></g></g><g><g><g><g><g><path stroke="rgb(204, 51, 17)" stroke-width="2px" d="M41.236593750000004,-0.2133823683253142L41.36034375,3.712875226062376L42.071906250000005,5.763751929025797L42.13378125,7.960013480073375L42.72778125000001,10.20306414196908L42.8979375,11.289888079110678L43.00621875,13.944056578132944L43.09903125,15.48191790158779L43.34653125,18.458713999685934L43.77965625,20.45353372962132L44.166375,20.949639801575398L44.30559375,22.217165932477172L44.61496875,22.736949633298895L45.48121875,24.48928464982406L46.35365625,25.47043161765422L46.431,25.425907279225996L46.60115625,26.70525532489437L46.7094375,29.223331090969833L46.7713125,30.73570690309652L46.80225,30.9865687724208L46.941468750000006,32.9117257444448L47.235375,32.766942762706975L47.46740625,33.657590853972785L47.56021875,34.95033800018694L47.885062500000004,34.76774322515253L48.055218749999995,35.15605614048726L48.086156249999995,35.75523930064892L48.302718750000004,35.91161050124954L48.411,37.256434857598045L48.70490625,39.32554277035963L48.720375000000004,39.81763577096487L48.906,41.405987794410294L49.0606875,42.633320716115875L49.091625,42.413398397284716L49.215375,42.69775769766821L49.7413125,42.284449537223786L49.84959375,44.460441682470936L50.16515625,45.375121416680926L50.257968749999996,47.13234753797618L50.28890625,48.15916449745697L50.3353125,49.00638785437742L50.3971875,48.93154132618179L50.49,48.73980405255476L50.551875,49.906777739485996L50.96953125,50.809394787230524L51.3871875,51.05202638430432L51.6965625,51.93700225951788L51.990468750000005,51.98343086267727L52.160624999999996,52.53833624607319L52.17609375,52.26484800729201L52.8103125,53.21297538025362L53.150625,53.697794532553786L53.4290625,54.65400293586177L53.44453125,55.09738630544307L53.992125,55.853013246890676L54.115875,55.79620785300925L54.239625000000004,55.53983615301066L54.28603125,56.87114619921081L54.8274375,57.99817492482375L54.87384375,57.68159393631433L55.09040625,58.10353952330451L55.1368125,58.492376158406955L55.21415625,59.00613439840199L55.39978125,59.40702313555022L55.569937499999995,59.681009527680395L56.04946875,59.09835926492363L56.173218750000004,60.08111766269757L56.714625,60.587864662817836L56.94665625,60.87268924961417L57.209624999999996,61.34615313571883L57.2405625,62.34879151651634L57.28696875,62.178149320465415L57.34884375,62.622425353478455L58.3295625,63.23296743689242L58.3605,63.59469915609679L58.546124999999996,62.92074553486196L58.59253125,63.27153789704024L59.443312500000005,63.084532318636356L59.644406249999996,63.39528663547343L59.7526875,63.84750755684833L60.2476875,63.9482753480252L60.29409375,64.84391006266408L60.38690625,65.6821486004073L60.402375,65.83121610388714L60.82003125,66.32076002255842L60.88190625,66.21119333696717L60.959250000000004,66.73058749771748L60.990187500000005,66.63020321731119L61.19128125,67.01515997523015L61.20675,67.73319005854181L61.47590625,67.70325116067183L62.8835625,68.20984233632733L63.022781249999994,69.03454472097674L63.177468749999996,69.40008473560059L63.347625,69.2007744800675L63.57965625,69.3642997682353L63.64153125,70.07019134154504L63.95090625,70.1990066374013L64.8016875,70.76172356790343L65.03371875,71.20360219334717L65.12653125,71.18136702541454L65.4885,71.08202143005732L65.56584375,71.3870457341088L66.726,71.38656009544772L67.08178125,71.69728272948734L67.34475,72.38660085506245L67.88615625,72.82401561144681L68.53584375,72.72886393360774L68.6131875,72.88719079322418L68.81428125,73.45803414012292L68.93803125,73.15763927610752L68.9844375,73.40930289401693L69.28453125,73.3607046972794L69.485625,73.49014887247772L69.56296875,73.77477825915837L69.77953125,73.92719736837117L69.81046875,74.51777145524464L69.980625,74.31735590967476L70.70765625,74.80590438667608L70.723125,75.06872407387701L71.04796875,75.11156755535156L71.48109375,75.65970889789084L71.60484375,75.78036194887706L71.72859375,75.95343283384213L72.14625000000001,76.1256842066224L72.20812500000001,76.56886269627222L72.31640625,77.1631269338184L72.3628125,77.61612044025564L72.50203125,78.3119786683847L72.73406250000001,78.64737470799953L72.81140625,78.43625836231345L72.864,78.59737176924648L73.049625,78.37515770897072L73.12696875,78.68182615574098L73.2043125,79.49155911230726L73.21978125000001,79.98869251642755L73.420875,80.05737102853531L73.43634375,80.00259018259993L73.45181249999999,80.07913903674158L73.6065,79.84666538985003L73.65290625,79.7952474595514L73.80759375000001,79.96933307841847L73.915875,80.05216862830189L74.33353125000001,79.83096042667596L74.67384374999999,79.7122333966253L74.82853125,80.00666533632865L75.0915,79.7075009191499L75.10696875000001,79.90958524424964L76.019625,80.19453968637151L76.49915625,80.1711417541111L76.5455625,80.10714047672847L76.65384375,80.00918796255304L76.69096875,79.925251480023L76.81471875,80.34571223457156L77.52628125,80.71228822545119L77.7583125,80.65101204470783L77.95940625,80.5397673635407L78.51628125,80.5466098927206L78.53175,80.76277881384414L78.82565625000001,81.33068743035236L78.841125,81.2099215334746L78.85659375,80.94712644309463L79.07315625,81.2801923134322L79.088625,81.20662520160658L79.10409375,81.36579917310074L79.21237500000001,81.32741127463298L79.47534375,81.53262086382125L79.90846875,81.3391888156933L80.202375,81.27252923266903L80.31065625,81.30893684765303L80.38799999999999,81.8506108281844L80.5798125,82.05080309322689L80.62621875,82.70009045881207L80.9510625,82.50521368149128L81.3223125,82.78790193608602L81.36871875,82.66374778721632L81.95653125000001,82.9856280884988L82.48246875000001,83.3788350025113L82.72996875,83.91728032731864L83.00840625000001,84.10116929424201L83.1785625,84.19918247698921L83.3023125,84.24095902408764L83.47246875,84.32793945315247L83.68903125,84.10315850194253L84.34490625,84.48990626086405L84.68521875,84.36233391621863L84.7006875,84.20096153988584L84.80896875,84.38221467643095L84.83990625000001,84.28602249370974L84.9481875,83.64922657386542L85.350375,83.9784659094652L85.969125,84.18322215050668L86.01553125,84.49140241908748L86.1238125,84.85837419720497L86.3094375,85.04150127756323L86.4950625,85.08883743677433L86.69615625,84.78674278702461L86.711625,84.82287302581503L86.7425625,84.75169958277223L86.959125,84.97112707139779L87.330375,85.10436844531164L87.37678125,85.54916345114363L87.40771875,85.81041339498799L87.43865625,86.07853731095726L87.4850625,86.12293467740791L87.5469375,86.36821291709514L87.59334374999999,86.79288361276147L87.88725,87.11387462622645L88.21828125,86.99290286383871L88.295625,87.12234074158431L88.77515625000001,87.54075595304474L88.86796875,87.69318078309672L88.97625,87.62005225245974L89.0071875,87.89931869388562L89.30109375,88.1378333383956L90.32203125,88.02859500249176L90.35296875,88.23097088784829L90.646875,88.53238652389429L91.15734375,88.61484111919854L91.29656250000001,88.9400347173947L91.35843750000001,89.29946970433713L91.45125,89.33962538115127L91.636875,89.33182815291269L91.68328125000001,89.6040312942302L92.1380625,89.76650008716268L92.27728125,89.93605553643691L92.37009375000001,90.17483257620202L92.849625,90.24460640951177L92.8805625,90.43328637867914L93.01978125,90.27673603680462L93.1899375,90.3739470294538L93.28275,89.93743610152293L93.39103125,90.23094400180807L93.96337500000001,90.15683883388888L94.35009375,90.20406432710435L94.44290625,90.37534771166096L94.53571875,90.76146322572724L94.58212499999999,90.48022311332048L94.9224375,90.62851888227128L95.46384375000001,90.63918039364142L95.63399999999999,90.70864435157489L96.16612500000001,90.92270373255747L96.5064375,90.90935681880372L96.55284375,91.17558340108418L96.63018749999999,91.4252830152041L97.57378125,91.59771510415952L97.651125,91.94986370974817L97.72846875,91.71705813834416L97.82128125,91.62653670107251L98.76487499999999,91.7174882962631L99.383625,91.34332850469814L99.50737500000001,91.47403955708397L99.66825,91.61503254639005L99.853875,91.59706903387047L100.20965625,91.89225482020534L100.76653125,91.75147873333863L100.92121875,91.79769877471097L100.98309375,91.82999773864297L101.3698125,91.97923420057054L101.4316875,92.04873273296462L101.5245,92.04410887174375L102.06590625,92.21791170618776L102.1123125,92.40443329827741L102.68465625,92.64158288409621L102.83934375,92.83715606556619L103.13325,92.93838335406346L103.25699999999999,92.89767541470987L103.31887499999999,92.88278657452665L103.3498125,93.00348588262302L103.43334375,93.40274590978065L103.5725625,93.61586161012454L103.92834375,93.39465682132757L104.036625,93.56079168092667L104.37693750000001,93.7891209623043L104.48521875,94.08729966493021L104.57803125000001,94.33740994780888L104.63990625,94.61807443181924L104.655375,94.73603994301978L105.1194375,94.84268078494392L105.47521875,94.84064225141024L105.50615625,94.59830803090986L105.5525625,94.8818503115624L105.56803125,94.8136226956285L105.69178124999999,94.96629549831731L106.27959374999999,95.1277214332194L106.4806875,95.18346958614184L106.71271875000001,95.0297464872879L107.006625,95.15712945568094L107.0685,95.43094748427997L107.1675,95.30920273531817L107.30671875,95.50721417161456L107.78625000000001,95.50319813686936L107.95640625,95.3305735606539L108.45140625,95.48165159510864L108.82265625,95.58249470293133L109.1165625,95.45349981671738L109.31765625000001,95.48135801391457L109.333125,95.34565257915247L109.45687500000001,95.66663897498397L109.48781249999999,95.9225225207446L110.1375,96.23616541349463L110.199375,96.20022976770869L110.26125,96.19631589241686L110.43140625000001,96.08538988600475L110.446875,96.0168212333993L110.4778125,95.92456107349092L110.49328125,96.24111151341886L110.979,96.13373005272612L111.14915624999999,96.19414679347342L111.18009375,96.44874455493189L111.2574375,96.3384775306243L111.288375,96.59626511003817L111.45853125,96.69351026332798L111.5668125,96.59650112592104L111.76790625,96.8073735076006L111.9999375,96.70082589254568L112.13915625,96.95905261437024L112.1855625,96.79165211055839L112.649625,97.1553753892651L113.00540625000001,97.58101525032434L113.020875,97.56618007152694L113.06728125,97.87495771116888L113.09821875,98.11605364124091L113.16009375,98.0610741885635L113.25290625000001,98.25811701633326L113.68603125,98.19221300209617L113.80978125,98.36429194035857L114.16556250000001,98.22084948098855L114.32025,98.47752297991416L114.96065625,98.53938428931195L115.099875,98.779139130322L115.17721875,98.84176248253458L115.8733125,98.74693150642035L115.95065625,98.966038274685L116.13628125000001,99.04737957644257L116.50753125,99.41040719609165L116.84784375,99.7020489396226L117.4201875,99.93280721580479L118.39471875,99.98793165765169L119.2516875,100.22064687981238L119.35996875,100.28489948876687L119.777625,100.23390015526314L119.79309375000001,100.59272608143739L120.148875,100.68948054335144L120.27262499999999,100.49466457215149L120.93778125,100.41961741995877L121.46371875,100.50467924586641L121.6648125,100.67431725345598L121.71121875,100.74422596127098L122.722875,100.60606053652961L122.84662499999999,100.60122337987465L122.970375,100.81879783335924L123.23334374999999,100.67649251155233L123.37256249999999,100.61676804436388L123.48084375,100.43676866481333L123.57365625,100.14959180273192L123.66646875,100.31312470779682L124.22334375,100.14245047264335L124.34709375,100.45522366944793L124.7338125,100.59292444508446L124.74928125,100.7689637915572L125.24428125,100.90882439241724L125.27521875,100.95293148942459L125.58459375,101.22658315239465L125.6619375,101.28423928385993L125.692875,101.33891228824886L125.72381250000001,101.37049022099882L126.12599999999999,101.33034952042934L126.6890625,101.56152845732308L126.99843750000001,101.42063737584621L127.276875,101.55911158820803L127.83375000000001,101.67901982289908L127.86468749999999,101.6668927220025L128.15859375,101.46770067098869L128.65359375,101.54819188251085L128.68453125,101.8603514219796L128.885625,102.08520063702305L129.05578125,102.05644234173856L129.07125,102.0775244149807L129.14859375,102.12991981175932L129.2259375,102.15711655051574L129.79828125,101.93694670263676L130.0674375,101.94841958714728L130.36134375,102.09701442222908L130.60884375,102.06342897069965L130.82540625000001,102.02928155094777L131.10384375,102.19307319564564L131.15025,102.32540829020631L131.6761875,102.60145199848412L131.72259375,102.78116922711355L131.86181249999998,102.67240380765635L131.954625,102.64697676586815L132.03196875,102.95579227145791L132.2330625,102.90448069451047L132.31040625,103.124967905337L132.55790625,102.87799750920468L132.63524999999998,102.75282832103744L132.71259375,102.97363079722135L132.77446874999998,102.54552581893648L133.02196875,102.58600843929663L133.54790625,102.5145926850407L133.909875,102.54397798602024L134.5595625,102.73442383114403L134.63690625,102.82442816794224L134.79159375,102.93150733990171L134.85346875,102.81424823471251L135.10096875,103.13594058997518L135.27112499999998,102.9275908858373L135.64237500000002,103.18647889624765L135.90534375,103.21662189022544L136.19925,103.2272488626912L136.52409375,103.1967994163612L136.64784375,103.31472456530663L136.78706250000002,103.35402056303481L137.0345625,103.22402821945009L137.63784375,103.10894488009362L137.6595,103.1006591997545L137.70590625,103.23091197232252L137.8760625,103.32289717355232L137.98434375,103.15388211342487L138.57215625,103.3914667933069L138.81965625,103.23346241198173L138.897,102.9808365553123L138.92793749999998,102.83101017430882L139.2373125,102.76901280601439L139.40746875,102.66277735818939L139.6395,102.78791750438455L139.7941875,102.93515919462922L140.76871875,103.05379847539366L140.81512500000002,103.01785865780407L140.9079375,103.07088103804054L141.48646875,103.20354421564059L141.6875625,103.20303445334524L141.70303125,103.04870491217015L141.73396875,103.01367730211227L141.82678124999998,103.25659308256277L142.151625,103.29620595286522L142.4300625,103.28332607606224L142.8631875,103.54967980073835L143.0488125,103.76951990518528L143.18803125,103.97252100224239L143.71396875,103.94103634753851L144.11615625,104.12075494873565L144.17803125,104.03599644740116L144.20896875,104.08812654119943L144.4100625,104.36181614558313L144.48740625,104.42446768770711L144.626625,104.56435979134763L144.9050625,104.70974363788967L145.4990625,104.62708774169135L145.66921875,104.81471698734074L145.6846875,104.94452900547842L146.1178125,105.00212565089683L146.1796875,105.06385454624902L146.210625,105.17554939587036L146.39625,105.33781947642743L146.76749999999998,105.37237004603342L146.953125,105.50004739637977L147.076875,105.57092365206664L147.1696875,105.65255003416905L147.33984375,105.75873669540802L147.46359375,105.87672283188648L147.49453125,106.0731815368926L147.58734374999997,105.85490896070966L148.11328125,105.75602876099691L148.25250000000003,105.71549716447323L148.2834375,105.79625907948672L148.32984375,105.93979986522471L148.80937500000002,105.87178776048134L148.9021875,105.97192254142892L149.14040624999998,105.74630435462399L149.155875,105.59812728252979L150.1768125,105.79491711870914L150.22321875,105.85880218199888L150.62540625,105.97897750296768L150.70274999999998,106.07001484055176L151.21321875,106.19387907101657L151.2286875,106.13459547828778L151.630875,106.11085008569837L151.89384375,106.22032339902985L151.95571875000002,106.38205542992142L152.07946875,106.5492533591792L152.1568125,106.62175605768078L152.17228125,106.78753817793051L152.26509375,106.91046991561913L152.57446875000002,106.95217767661923L152.7755625,107.27723288236153L152.868375,107.55799569874716L153.2458125,107.77056228085887L153.29221875,107.5007074309539L154.17393750000002,107.4272796353693L154.8855,107.44382519071009L155.10206250000002,107.5269986690854L155.22581250000002,107.59002729146569L155.58159375,107.61978460919751L155.5970625,107.7991746080675L155.8755,107.73599667983389L156.2776875,107.77936375890921L156.61800000000002,107.8494237537704L156.902625,107.76910220240555L156.91809375,107.82351697279671L157.35121875,107.75356777010661L157.47496875,107.7358440366155L157.4904375,107.87246865064029L157.72246875000002,107.67178491439033L157.9235625,107.73266039181605L158.32575,107.72918311990955L158.6660625,107.74671244688257L158.758875,107.89981989939882L158.88262500000002,107.84349594337564L158.95996875,107.84219836420215L159.0373125,107.7473013900479L159.77981250000002,107.71882791416668L159.82621875,107.67347103305224L159.996375,107.77141672231971L160.2129375,107.94298564282548L160.5223125,108.18428445960522L160.72959375,108.14278093160942L160.8069375,108.28635718234072L161.44115625,108.1518012558253L161.50303125,108.0986560340501L161.96709375,108.1636306994597L162.1681875,108.2354937237621L162.43115625000002,108.30874401047458L162.57037499999998,108.34067512225806L162.8488125,108.34906056815099L162.94162500000002,108.41799574628388L163.08084374999999,108.52483291591103L163.746,108.52315192228974L163.931625,108.7313019517963L163.9625625,108.8694134493093L164.07084375,108.83953521182075L164.55656249999998,108.98449844048987L164.6184375,109.05481620819744L165.09796875,109.16621146811885L165.19078125000001,109.12296108767462L165.46921875,109.1782112397521L165.56203125,109.17960289879215L165.99515624999998,109.3525284062443L166.02609375,109.08118999695228L166.36640625,109.11568802156891L166.39734375,109.23097271469106L166.55203125,109.26939158177393L166.7221875,109.35498893152133L167.09343750000002,109.48937722948966L167.24812500000002,109.39135640240454L167.743125,109.4183187965516L167.82046875,109.45533602753697L167.92875,109.41279990710674L168.09890625000003,109.4886672702247L168.1824375,109.42045142679365L168.53821875,109.53412421500254L168.60009374999998,109.65851744842509L169.2961875,109.78649160664077L169.49728125,109.8648945726413L169.59009375000002,109.83369971913817L169.6674375,109.73923763240954L169.9149375,109.76254742037136L170.33259375,109.84401240849658L170.58009375,110.05032986149965L170.7193125,109.94306358126202L170.82759375,109.85540227649552L170.90493750000002,110.01653338493601L171.63196875,110.05278586524132L171.69384375,110.23640803516291L172.16409375,110.15530126931327L172.34971875000002,110.10868370706524L172.75190625,109.94444311904996L172.7983125,110.14022295421002L172.90659375,110.27185128889901L172.953,110.054565158966L173.03034375,110.15911952233597L173.09221875,110.35253189700923L173.24690625000002,110.31563577136761L173.30878124999998,110.38615705914421L173.43253124999998,110.29224282611452L173.71096875,110.31430574406508L174.31425,110.22003546791001L174.499875,110.26151781767621L174.5308125,110.3469969861761L174.63909375,110.32400348405558L174.79378125,110.46222648969065L174.80925,110.53544612330451L174.87112499999998,110.67278575691446L174.96393750000001,110.72336910515732L175.01034375,110.81323556692725L175.1495625,110.87176096919775L175.25784374999998,110.84966230562691L175.36612499999998,111.06627046024975L175.45893750000002,111.13012791512388L175.47440625000002,111.03311593100311L175.56721875,111.09157517680474L175.64456249999998,111.04638750784135L175.78996875,111.1572694879837L176.2695,111.30022772204828L176.62528125,111.42813589660021L176.65621875,111.44382315826981L176.85731249999998,111.52745846377273L177.07387500000002,111.60948848297464L177.1048125,111.5485386062287L177.3523125,111.6448094154849L177.36778124999998,111.6950681483439L177.38325,111.90217771702721L178.12575,112.0020059229133L178.26496875,112.08986316626259L178.4041875,112.252058438864L178.558875,112.1824421647919L178.97653125,112.22144931619502L179.10028125,112.19139626553219L179.19309374999997,112.26280723285853L179.39418750000002,112.19335014882144L179.895375,112.33493129151694L180.17381250000003,112.43472780164505L180.18928125,112.58729905144938L180.23568749999998,112.52195509337264L180.49865625,112.60444143919676L180.68428125,112.7441351151971L180.69975,112.91868167169609L180.80803125,113.02690000198386L181.17928124999997,113.1021490653487L181.21021875,113.20531197063086L181.44225,113.31273861586824L181.45771875,113.30615210257831L181.73615625,113.38587626027615L181.98365625,113.5241238992149L182.13834375,113.64019762510777L182.370375,113.68798024577649L182.54053125,113.7933171656386L182.741625,113.9809848126188L182.94271875,113.96229178176196L183.2056875,114.10948619498154L183.31396875,114.2415624114758L183.61406250000002,114.29320146286263L183.76875,114.37466386441696L183.954375,114.26740944300447L183.96984375,114.25869905572264L184.44937499999997,114.24672552847937L184.46484375,114.2846560652874L184.4803125,114.32661553939022L184.635,114.44464057068001L184.83609375,114.51181983882643L184.92890625,114.43505483999013L185.05265625,114.42405371614363L185.14546875,114.53903489036414L186.22828124999998,114.5336247367934L186.6459375,114.50432921635449L187.12546874999998,114.68640742439612L187.2028125,114.61770420775254L187.37915625000002,114.63621168560393L188.1680625,114.67235546073572L188.199,114.73542401827606L188.46196874999998,114.8888732074718L188.57025,115.00721761753448L188.72493749999998,115.04983157388031L189.4055625,115.14281290805033L189.57571875,115.19194924931392L189.82321875000002,115.3587011111123L190.53478125,115.44685673151048L190.5811875,115.56306915602939L190.59665625,115.53869755714227L191.34534375,115.77869123609186L191.4845625,115.6209152227244L191.65471874999997,115.64498033766546L192.11878124999998,115.70710045128094L192.21159375,115.70590030976096L192.2270625,115.70943687749997L192.31987500000002,115.75546108660338L192.98503125000002,115.73193525279501L193.24800000000002,115.8728867792105L193.75846875000002,115.92985571698448L193.91315625000001,115.98105740347566L194.09878125,115.99672233178715L194.22253125,116.13415819329279L194.4545625,116.20633035118372L194.733,116.32942918073367L195.017625,116.41908553275259L195.1723125,116.58363081985684L195.20325,116.65172742890927L196.16231249999998,116.65486170918705L196.31699999999998,116.69058611209353L196.42528124999998,116.70806487176074L196.502625,116.66190751976809L196.75012500000003,116.6027951866521L196.85840625,116.6499403379074L196.873875,116.81159314225819L197.05949999999999,116.77421813929246L197.1523125,116.78200705011155L197.740125,116.90538493860868L198.25059375,116.94093384999483L199.09209375,117.13327267002737L199.15396875,117.23963035110131L200.314125,117.04024102141243L200.51521875,117.22842946869918L201.0256875,117.35445868620289L201.04115625,117.32327458134698L201.1185,117.39004542964997L201.24225,117.53760940826413L201.5206875,117.49503072760506L202.1394375,117.34079461822911L202.50140625,117.466998631386L202.59421875,117.44613203587426L202.6096875,117.59447498836799L202.7334375,117.54875686100335L203.13562499999998,117.60144548341165L203.30578125,117.73164619648122L203.89359375,117.8577231899275L203.95546875000002,117.98909173749037L204.04828125,117.96332040820722L204.1565625,118.02200128225806L204.17203125,118.06533911944386L204.35765625,118.07266293438828L204.63609375,118.10864258548645L205.06921875,118.09201182783313L205.23937500000002,118.18364213381281L205.57968749999998,118.27179760976057L205.78078125000002,118.41226144318935L205.79625000000001,118.41647547061471L205.92,118.50901225273117L206.105625,118.60264642036988L206.2974375,118.53870056228347L206.7615,118.60486567513085L206.9161875,118.60242653747491L206.99353125000002,118.74337317674573L207.51946875,118.66085221816665L207.5968125,118.56076494937552L207.62775,118.40240738464402L207.7515,118.36512066372161L207.79790624999998,118.3904139431965L207.82884375,118.45058153788413L207.89071875000002,118.55068348663929L208.2155625,118.64292723905653L208.2465,118.73339520076239L208.44759375,118.778714006086L208.803375,118.85859193678283L208.81884375,118.8067085288738L209.2674375,118.73864983407412L209.484,118.74957003227573L209.60775,118.7561124416596L210.10893750000002,118.73202508739183L210.6039375,118.76223380528785L211.42378125,118.70396537432481L211.68675,118.79751827659936L212.04253125,118.7713351056758L212.25909375,118.79719971693089L212.35190624999998,118.79212274624862L212.491125,118.69591424058262L212.78503124999997,118.64679195490386L212.81596875,118.79182319158069L213.2955,118.76700246479454L213.3264375,118.8239141552774L213.3883125,118.83398930906381L213.58940625,118.88104152515322L213.71315625,119.0321004071565L213.75956250000002,119.2092276938047L213.8214375,119.1879196673033L214.05965625,119.31121147449497L214.19887500000002,119.43866908947909L214.2916875,119.4330975622721L214.36903125,119.28450703623227L214.86403125,119.40075598622235L214.941375,119.40295678851032L215.20434375000002,119.3927253792079L215.42090625,119.46821983466494L215.43637500000003,119.46228429120202L215.6529375,119.6219325256556L215.683875,119.49109637851191L215.76121875,119.68541653497013L216.03965625,119.75134913917941L216.302625,119.89630658376915L216.53465625,119.99328387263121L216.84403125,120.08984951711084L216.99871875,120.08718779283836L217.09153125,119.93654122413622L217.16887499999999,120.03680191924303L217.292625,120.07284081130251L218.196,120.14536370627305L218.52084375,120.15423054220558L218.70646875000003,120.21087438402338L218.81475,120.09422759636638L218.876625,120.13334197060044L219.35615625,120.13420677410421L219.742875,120.15949662637753L219.78928125,120.28775236916863L219.91303125000002,120.28240512323238L220.16053125,120.26708718900025L220.29975000000002,120.33023733321717L220.77928125,120.38340518113101L220.81021875000002,120.45701811121027L220.87209375,120.52625268808951L220.96490625,120.36748455474088L220.99584374999998,120.3850486325924L221.0113125,120.44843139558199L221.4444375,120.62432694572063L221.574375,120.66227697646606L221.65171875,120.70714775927553L221.76,120.84202489135312L221.82187499999998,120.93815920602778L222.193125,120.83591822994107L222.25500000000002,121.00916619141812L222.2859375,120.9491717590785L222.61078125,120.96359129554612L222.62625,121.06635818159508L222.64171875000002,121.2489489209964L222.85828125,121.37910792060336L222.95109375,121.34863618153582L223.04390625,121.34089680632754L223.4615625,121.49684841812642L223.49249999999998,121.53172574440582L223.5234375,121.56427958127227L224.173125,121.61048997411822L224.668125,121.74363108796005L225.385875,121.61347961835216L226.02009375,121.75970884017576L226.11290625,121.80187831764235L226.19025000000002,121.82750625540103L226.25212499999998,121.88297085952667L226.5924375,121.87342561093409L227.04103125,122.01568832526611L227.3349375,122.09929493159171L228.18571875,122.28608850332101L228.3249375,122.3911832728262L229.18190625000003,122.26431133169277L229.3520625,122.13300233932154L230.01721874999998,122.08769058978102L230.07909375,122.22527765097644L230.3420625,122.39343107971L230.682375,122.43720642405083L231.1155,122.52748638715768L231.177375,122.64546062068575L231.2083125,122.78817328416481L231.25471875,122.8671713283298L231.50221875,122.73645024953403L231.70331249999998,122.69522936206123L231.8270625,122.77971156107395L231.8889375,122.76368369063745L231.919875,122.87394444716173L231.98175,122.84679705375517L232.1055,122.86506343263909L232.12096875,122.94750879652469L232.18284375000002,122.88126435954403L232.27565625,122.94109516972681L232.29112500000002,123.03032368293682L232.909875,123.10560290124904L232.96246875,123.19295963617914L234.44746875,123.24269221299411L234.60215625,123.13510359406355L234.78778125,123.1162504453288L235.05075,123.08569621769747L235.15903125,123.2122049538635L235.29825,123.35230582683707L235.40653125,123.43547415600764L235.5766875,123.3753196902535L236.10262500000002,123.29608704879816L236.24184375,123.37886934264588L236.92865625000002,123.38315510686182L237.5319375,123.35101941486937L237.7485,123.4433426342826L237.996,123.49247028367732L238.56834375,123.61197711063024L239.1406875,123.7059659176211L239.60475000000002,123.67068366403139L239.74396875,123.7086057060467L239.7594375,123.67514064150576L240.037875,123.79190239752194L240.16162500000002,123.87030849915705L240.4400625,123.91606521927196L240.61640624999998,124.01468452308217L240.67828125,124.10756362296516L241.1578125,124.12170668789696L241.45171875,124.09562895532298L241.48265625000002,124.12343445418499L241.51359374999998,124.10754217375454L241.5290625,124.13839061300506L241.73015625,124.16553573825972L242.37984375000002,124.19829686510987L242.59640625,124.27400967350236L242.90578125,124.40950263350753L243.2615625,124.53273808971345L243.601875,124.6255067659459L243.92671875000002,124.63877255376391L244.3753125,124.69601378976361L244.64446875000002,124.84720875083913L244.92290625,124.95941721401145L245.03118750000002,124.92997023749868L245.2786875,124.95257698187422L245.51071875,124.99218349418689L245.68087500000001,125.03450404344088L245.8974375,125.13018401442814L246.37696874999997,125.2982755873258L246.53165625,125.24928209960814L246.670875,125.26031826252833L247.0730625,125.33086011601685L247.52165625,125.30108637537676L247.6918125,125.4038915934898L248.20846874999998,125.2154931872669L248.254875,125.24817908087054L248.54878125,125.26615473040306L248.7189375,125.39295280453355L248.76534375,125.38190513738051L248.9355,125.39217753810529L249.02831250000003,125.41831135091594L249.121125,125.56056789041283L249.13659375,125.67603426230954L249.41503125,125.74205832678138L249.7089375,125.55169914126878L249.7708125,125.47976736264641L249.87909374999998,125.38651302004094L249.97190625000002,125.40238267187858L250.15753125,125.48198454640597L250.2039375,125.591700875858L250.3276875,125.60968396140129L250.4205,125.66578228591787L250.43596875,125.69171574007119L250.96190625,125.65719679095429L251.0701875,125.71647450506578L251.6270625,125.64050291961512L252.23653125,125.64637280024421L252.36028124999999,125.78515968562029L252.437625,125.67291239710272L252.54590625,125.84841601013531L252.62325,125.77804766981845L252.63871874999998,125.73245185649554L252.76246874999998,125.69479010628262L252.96356250000002,125.78960502264013L253.13371875,125.67550970419278L253.14918749999998,125.70652067657046L253.22653125,125.69009403816378L253.44309375,125.8295555337577L253.56684375,125.8490684026029L253.58231249999997,125.72432690478237L253.7060625,125.84327644504177L254.60325,125.9776235094525L254.63418750000002,126.12356204985511L255.0054375,126.17002719766816L255.23746875,126.07393658877399L255.2529375,125.96075138214414L255.4385625,126.03505124594967L255.877875,126.05416149286721L256.5894375,126.01239657257187L256.92975,126.13760830378864L257.74959375,126.12829673594972L258.12084375,126.22584705730957L258.33740625,126.24438658104094L258.476625,126.36874023734897L258.70865625,126.35026588689547L258.971625,126.44136597355062L259.095375,126.39914734312353L259.48209375,126.5009594107535L259.6213125,126.54392806154623L259.6275,126.54286504753992" style="fill: none;" fill="none"></path></g><g><path style="fill: none;" fill="none" stroke="none" stroke-width="1px"></path></g></g></g></g><g opacity="0.2"><g><g><g><path stroke="rgb(204, 51, 17)" stroke-width="2px" d="M33.36609375,-111.43349742889406L33.4125,130.0967116355896L33.474374999999995,-0.07762002944944979L33.598125,101.40357732772826L33.89203125,-111.29750061035156L34.711875,-4.479680061340319L34.72734375,59.07117748260498L34.934625000000004,56.78677415847779L35.29040625,-29.066914558410645L35.3368125,64.862548828125L35.816343749999994,-86.76988077163696L35.86275,7.350298881530768L36.28040625,-4.902693748474108L36.46603125,28.67113399505616L36.58978125,86.24204206466675L36.775406249999996,-54.41195011138916L36.899156250000004,-20.412886142730727L37.14665625,36.011923789978034L37.34775,36.36837387084961L37.672593750000004,137.5428750514984L37.6880625,29.656871795654297L37.82728125,-28.659008502960205L38.0593125,17.214288234710686L38.121187500000005,99.36922359466553L38.275875,61.143258094787605L38.3686875,173.643461227417L38.808,39.9731616973877L39.16378125,90.86041975021362L39.241125,80.6872444152832L39.2720625,-29.08992767333983L39.5195625,118.58525896072386L39.61237500000001,102.1830973625183L40.0455,70.93882703781128L40.107375,31.571855545043938L40.138312500000005,-37.64743041992186L40.77253125,-16.169160842895522L40.865343749999994,17.858317852020264L40.8808125,76.41921186447144L41.097375,93.1910743713379L41.236593750000004,181.34942245483398L41.36034375,198.83151245117188L42.071906250000005,109.63068151473999L42.13378125,121.27281379699706L42.72778125000001,128.05495882034302L42.8979375,69.42122745513916L43.00621875,158.41806316375732L43.09903125,100.6447353363037L43.34653125,186.1150221824646L43.77965625,134.68436765670776L44.166375,49.82572889328003L44.30559375,97.18660688400267L44.61496875,53.96873664855958L45.48121875,131.42559242248535L46.35365625,86.26525211334229L46.431,22.625324249267578L46.60115625,108.37390661239625L46.7094375,192.32240200042725L46.7713125,130.10717725753784L46.80225,47.7037115097046L46.941468750000006,162.99688529968262L47.235375,22.84892845153808L47.46740625,95.49806880950929L47.56021875,125.9115037918091L47.885062500000004,21.750319480896003L48.055218749999995,63.199640274047844L48.086156249999995,79.58298063278198L48.302718750000004,47.4942865371704L48.411,138.1136875152588L48.70490625,196.41346144676208L48.720375000000004,77.6318736076355L48.906,164.92551374435425L49.0606875,139.20855474472046L49.091625,24.90595769882203L49.215375,65.59629583358765L49.7413125,8.622462749481208L49.84959375,223.6812596321106L50.16515625,121.54913997650145L50.257968749999996,195.0822877883911L50.28890625,135.55152320861816L50.3353125,121.88780975341798L50.3971875,42.424621105194085L50.49,31.895895957946784L50.551875,153.4874188899994L50.96953125,131.7473258972168L51.3871875,73.02950382232666L51.6965625,132.901709318161L51.990468750000005,56.27322721481323L52.160624999999996,104.31220436096191L52.17609375,26.50010824203492L52.8103125,143.3918776512146L53.150625,100.24844837188722L53.4290625,147.32925844192505L53.44453125,98.46985530853271L53.992125,130.4506015777588L54.115875,50.137081146240234L54.239625000000004,29.76873016357421L54.28603125,191.89381790161133L54.8274375,173.31404733657837L54.87384375,25.005634307861335L55.09040625,102.03269624710082L55.1368125,99.3224940299988L55.21415625,113.41304731369017L55.39978125,102.21910810470582L55.569937499999995,89.1852731704712L56.04946875,-4.163742065429701L56.173218750000004,167.66061401367188L56.714625,116.5106463432312L56.94665625,92.55801677703856L57.209624999999996,114.43699026107787L57.2405625,175.6666600704193L57.28696875,42.74103736877441L57.34884375,113.62120628356934L58.3295625,133.85740065574646L58.3605,105.75752925872801L58.546124999999996,-16.22885990142821L58.59253125,104.7780933380127L59.443312500000005,40.792912483215325L59.644406249999996,100.71152400970459L59.7526875,118.54891061782837L60.2476875,76.2257947921753L60.29409375,174.75340795516968L60.38690625,169.2827010154724L60.402375,84.38543510437012L60.82003125,127.68171310424806L60.88190625,52.382041454315186L60.959250000000004,132.7401533126831L60.990187500000005,53.784884929656975L61.19128125,116.61009788513185L61.20675,160.86360049247742L61.47590625,63.7940707206726L62.8835625,134.79638075828552L63.022781249999994,178.14922094345093L63.177468749999996,118.08074283599854L63.347625,42.485136032104485L63.57965625,91.42474746704103L63.64153125,165.90874767303467L63.95090625,87.79939413070679L64.8016875,148.1325511932373L65.03371875,132.34043407440186L65.12653125,68.08584785461426L65.4885,57.165984153747566L65.56584375,114.37594079971315L66.726,71.31769943237305L67.08178125,116.02225065231325L67.34475,171.3089804649353L67.88615625,135.9705560207367L68.53584375,58.91115474700928L68.6131875,96.01423215866089L68.81428125,157.32886481285095L68.93803125,28.766337394714363L68.9844375,110.81349372863771L69.28453125,66.09633874893188L69.485625,92.94918346405031L69.56296875,116.80399322509764L69.77953125,97.09857749938963L69.81046875,164.799476146698L69.980625,43.51003551483155L70.70765625,150.31717944145203L70.723125,115.91272735595702L71.04796875,81.80588436126709L71.48109375,161.7690315246582L71.60484375,94.83572435379027L71.72859375,103.43297958374022L72.14625000000001,103.61984157562254L72.20812500000001,147.67944884300232L72.31640625,173.01462364196777L72.3628125,151.06091380119324L72.50203125,191.71528339385986L72.73406250000001,133.58692622184753L72.81140625,43.678020000457764L72.864,105.25754261016844L73.049625,41.41916179656982L73.12696875,129.93863010406494L73.2043125,215.50454235076904L73.21978125000001,163.90663480758667L73.420875,91.70757246017457L73.43634375,70.66447019577026L73.45181249999999,93.19132757186891L73.6065,39.833423137664795L73.65290625,70.90270376205444L73.80759375000001,110.2206106185913L73.915875,94.51505994796754L74.33353125000001,41.0261664390564L74.67384374999999,58.78711462020873L74.82853125,132.14124965667725L75.0915,26.489051818847663L75.10696875000001,116.0243606567383L76.019625,131.35289573669434L76.49915625,75.95129728317261L76.5455625,68.51204061508179L76.65384375,62.18304014205932L76.69096875,64.58127117156982L76.81471875,157.55107641220093L77.52628125,148.32218432426453L77.7583125,69.29955053329468L77.95940625,59.8410758972168L78.51628125,81.82532453536987L78.53175,121.3354387283325L78.82565625000001,188.38198280334473L78.841125,58.34755849838256L78.85659375,30.984233379364014L79.07315625,144.8724536895752L79.088625,67.1010103225708L79.10409375,112.01400184631349L79.21237500000001,73.90504312515259L79.47534375,121.37558507919313L79.90846875,43.627239227294915L80.202375,68.22282934188843L80.31065625,88.4655647277832L80.38799999999999,188.76186800003052L80.5798125,121.72362327575684L80.62621875,211.89166617393494L80.9510625,43.57381391525268L81.3223125,139.4877223968506L81.36871875,57.66256666183471L81.95653125000001,148.06007957458496L82.48246875000001,163.18668723106384L82.72996875,193.63229274749756L83.00840625000001,121.71709632873534L83.1785625,104.32641172409059L83.3023125,92.85302352905273L83.47246875,102.32756233215333L83.68903125,37.40922498703002L84.34490625,165.13536071777344L84.68521875,57.65983772277832L84.7006875,50.29625988006592L84.80896875,122.60689926147462L84.83990625000001,63.92413139343261L84.9481875,-51.64863204956056L85.350375,154.18978309631348L85.969125,128.00901699066162L86.01553125,150.69586896896362L86.1238125,163.9804286956787L86.3094375,124.66862678527833L86.4950625,95.3690209388733L86.69615625,18.943450927734375L86.711625,92.72588872909544L86.7425625,69.12790870666504L86.959125,133.31026244163513L87.330375,114.56074905395508L87.37678125,184.22838282585144L87.40771875,143.97259306907654L87.43865625,145.9792354106903L87.4850625,96.07604122161867L87.5469375,141.5453143119812L87.59334374999999,182.65431952476501L87.88725,159.81978130340576L88.21828125,59.49880504608155L88.295625,116.64048194885255L88.77515625000001,183.28238344192505L88.86796875,122.68837356567381L88.97625,70.77421855926514L89.0071875,152.44558310508728L89.30109375,143.44836950302124L90.32203125,62.612890243530266L90.35296875,135.47141337394714L90.646875,159.1223545074463L91.15734375,107.98833847045898L91.29656250000001,165.5958480834961L91.35843750000001,174.30113554000854L91.45125,98.8665361404419L91.636875,87.47600078582764L91.68328125000001,154.59856128692627L92.1380625,128.68303680419922L92.27728125,130.6788477897644L92.37009375000001,147.7321708202362L92.849625,107.11651277542116L92.8805625,136.20057463645935L93.01978125,52.18457317352294L93.1899375,114.10099315643309L93.28275,-16.93472671508789L93.39103125,162.31263899803162L93.96337500000001,71.90174865722656L94.35009375,101.87315177917482L94.44290625,132.82705736160278L94.53571875,186.74824857711792L94.58212499999999,20.35400295257569L94.9224375,127.71671104431152L95.46384375000001,93.31356716156004L95.63399999999999,108.1853003501892L96.16612500000001,144.93856716156006L96.5064375,87.53142356872559L96.55284375,158.75270986557007L96.63018749999999,154.9933853149414L97.57378125,135.62354469299316L97.651125,182.1232876777649L97.72846875,31.930415630340583L97.82128125,68.31260299682617L98.76487499999999,115.20964574813844L99.383625,-5.576657295227051L99.50737500000001,125.42932558059694L99.66825,128.3455204963684L99.853875,86.90407705307007L100.20965625,169.22771430015564L100.76653125,54.76592445373535L100.92121875,103.97494125366211L100.98309375,100.36331701278688L101.3698125,131.5168571472168L101.4316875,110.51218509674074L101.5245,90.81231164932251L102.06590625,138.64633703231812L102.1123125,142.36696410179138L102.68465625,156.3389492034912L102.83934375,145.51012516021729L103.13325,120.27540063858032L103.25699999999999,81.87458610534668L103.31887499999999,88.84027338027953L103.3498125,125.86272048950197L103.43334375,202.38764357566833L103.5725625,151.944189786911L103.92834375,32.691958427429206L104.036625,139.2716579437256L104.37693750000001,156.77763319015503L104.48521875,176.5605845451355L104.57803125000001,163.69612669944763L104.63990625,172.65240621566772L104.655375,127.61953830718993L105.1194375,124.64617633819581L105.47521875,94.26945543289186L105.50615625,26.523290157318108L105.5525625,174.73638725280762L105.56803125,75.54960870742798L105.69178124999999,138.18275499343872L106.27959374999999,140.93746423721313L106.4806875,111.04365301132204L106.71271875000001,51.186147212982185L107.006625,131.57914447784424L107.0685,173.91770553588867L107.1675,60.32575798034669L107.30671875,152.54686331748962L107.78625000000001,94.34347438812257L107.95640625,45.358596324920654L108.45140625,139.32345151901245L108.82265625,124.9179449081421L109.1165625,57.8373031616211L109.31765625000001,103.62479305267335L109.333125,55.58069562911988L109.45687500000001,189.94998335838318L109.48781249999999,171.26367163658142L110.1375,188.80468702316284L110.199375,85.5688943862915L110.26125,95.0356683731079L110.43140625000001,63.11270809173583L110.446875,75.5867166519165L110.4778125,68.37086725234985L110.49328125,191.0012719631195L110.979,63.913693904876716L111.14915624999999,114.36454677581789L111.18009375,173.19706869125366L111.2574375,63.021640300750725L111.288375,174.66561770439148L111.45853125,126.21129322052003L111.5668125,67.08289241790771L111.76790625,161.10871267318726L111.9999375,64.13729810714722L112.13915625,176.0584316253662L112.1855625,45.39798307418824L112.649625,209.07383966445923L113.00540625000001,228.84559392929077L113.020875,92.98086166381835L113.06728125,193.52625799179077L113.09821875,172.96748614311218L113.16009375,80.95411777496338L113.25290625000001,159.7038857936859L113.68603125,77.59544086456299L113.80978125,152.26170325279236L114.16556250000001,53.194393157958984L114.32025,179.2229459285736L114.96065625,118.0423126220703L115.099875,174.53023982048035L115.17721875,118.67053127288818L115.8733125,68.65538024902344L115.95065625,168.64186453819275L116.13628125000001,124.96926021575929L116.50753125,215.3471782207489L116.84784375,193.0391845703125L117.4201875,173.94145011901855L118.39471875,117.70479631423949L119.2516875,175.17245483398438L119.35996875,121.02256727218627L119.777625,83.73926734924316L119.79309375000001,216.8896336555481L120.148875,132.11328506469727L120.27262499999999,37.09120512008666L120.93778125,75.94474220275879L121.46371875,128.30284214019775L121.6648125,156.22596549987793L121.71121875,123.68429565429686L122.722875,55.1753215789795L122.84662499999999,99.00745630264281L122.970375,172.65182948112488L123.23334374999999,53.59867000579834L123.37256249999999,80.81865549087524L123.48084375,40.648475646972656L123.57365625,4.569903850555426L123.66646875,154.84993314743042L124.22334375,43.110485076904304L124.34709375,205.17847609519958L124.7338125,146.7895896434784L124.74928125,159.94448256492615L125.24428125,148.01558661460876L125.27521875,115.83794879913329L125.58459375,193.75804901123047L125.6619375,120.81795310974123L125.692875,119.89804744720459L125.72381250000001,112.11066818237303L126.12599999999999,87.6513843536377L126.6890625,180.49380159378052L126.99843750000001,53.22303295135497L127.276875,149.0208911895752L127.83375000000001,142.85603499412537L127.86468749999999,97.49444246292114L128.15859375,32.80322599411011L128.65359375,129.34737873077393L128.68453125,209.87468481063843L128.885625,180.03498816490173L129.05578125,92.06787681579591L129.07125,109.41366052627562L129.14859375,120.39657115936278L129.2259375,111.65642642974852L129.79828125,24.892706871032722L130.0674375,105.97058343887329L130.36134375,154.2877435684204L130.60884375,90.24550819396974L130.82540625000001,89.99151992797852L131.10384375,160.03933429718018L131.15025,149.1476321220398L131.6761875,200.44812750816345L131.72259375,166.5997178554535L131.86181249999998,63.97918844223023L131.954625,93.58496999740602L132.03196875,213.2137668132782L132.2330625,84.55150651931763L132.31040625,182.1295895576477L132.55790625,14.225734233856201L132.63524999999998,57.7420997619629L132.71259375,182.5151858329773L132.77446874999998,-51.947830677032485L133.02196875,117.2210988998413L133.54790625,76.65117168426514L133.909875,113.20466327667235L134.5595625,171.94738340377808L134.63690625,135.59154295921326L134.79159375,141.982901096344L134.85346875,59.97589111328124L135.10096875,220.8638973236084L135.27112499999998,26.547119140625007L135.64237500000002,198.2578866481781L135.90534375,114.30507278442381L136.19925,107.14321136474608L136.52409375,91.957200050354L136.64784375,146.91792011260986L136.78706250000002,117.90856647491455L137.0345625,54.99543666839599L137.63784375,60.33948707580566L137.6595,100.01617908477785L137.70590625,151.80127215385437L137.8760625,137.68113660812378L137.98434375,39.91779518127442L138.57215625,192.4309687614441L138.81965625,43.91960144042968L138.897,7.989123821258551L138.92793749999998,46.40034770965576L139.2373125,79.37971687316895L139.40746875,62.51805257797242L139.6395,150.15416049957275L139.7941875,158.7583224773407L140.76871875,148.10658407211304L140.81512500000002,89.34760284423827L140.9079375,123.271550655365L141.48646875,153.82805800437927L141.6875625,103.00819349288939L141.70303125,43.9657964706421L141.73396875,89.58226346969604L141.82678124999998,196.55270767211914L142.151625,118.53459072113039L142.4300625,98.32074832916261L142.8631875,206.33842992782593L143.18803125,182.56160593032837L143.71396875,91.73292064666747L144.11615625,173.9161581993103L144.17803125,71.06748104095459L144.20896875,124.39697074890135L144.4100625,211.15261602401733L144.48740625,128.90858221054077L144.626625,159.31903505325317L144.9050625,161.7022569179535L145.4990625,72.17464256286621L145.66921875,178.5956838130951L145.6846875,156.0688123703003L146.1178125,127.72045278549196L146.1796875,129.4494185447693L146.210625,149.3672695159912L146.39625,169.63737869262695L146.76749999999998,119.0838670730591L146.953125,156.24606680870056L147.076875,133.78369116783142L147.1696875,138.19353008270264L147.33984375,148.15460777282715L147.46359375,153.0543897151947L147.49453125,184.74641704559326L147.58734374999997,18.315513610839844L148.11328125,66.04046583175659L148.25250000000003,89.41163444519044L148.2834375,138.33098983764648L148.32984375,163.8504102230072L148.80937500000002,78.3922348022461L148.9021875,146.4898705482483L149.14040624999998,14.319390296936042L149.155875,45.46457481384278L150.1768125,185.77334213256836L150.22321875,131.86053466796875L150.62540625,154.96243858337402L150.70274999999998,143.23067331314087L151.21321875,156.8273730278015L151.2286875,81.86552715301514L151.630875,96.37614011764526L151.89384375,151.16471195220947L151.95571875000002,172.8764886856079L152.07946875,175.38922262191772L152.1568125,136.51568269729614L152.17228125,175.23920130729675L152.26509375,157.741201877594L152.57446875000002,124.222234249115L152.7755625,242.06394171714783L153.29221875,-4.869327545166029L154.17393750000002,76.80849361419678L154.8855,114.35281515121461L155.10206250000002,142.30642104148865L155.22581250000002,133.98238325119019L155.58159375,120.09751319885255L155.5970625,183.12431597709656L155.8755,81.17125129699707L156.2776875,126.03922939300536L156.61800000000002,137.38892912864685L156.902625,73.8566255569458L156.91809375,130.82930517196655L157.35121875,78.13973760604858L157.47496875,100.22208738327026L157.4904375,165.87134432792664L157.72246875000002,22.36371183395385L157.9235625,133.6449794769287L158.32575,106.24705028533934L158.6660625,115.22835445404053L158.758875,173.33478164672852L158.88262500000002,83.73960494995117L158.95996875,107.28615713119508L159.0373125,67.02772283554077L159.77981250000002,95.48484611511229L159.82621875,88.15950155258179L159.996375,149.96646857261658L160.2129375,181.95244765281677L160.5223125,212.41000986099243L160.72959375,90.19236421585082L160.8069375,170.46490836143494L161.44115625,49.803531646728516L161.50303125,85.0229377746582L161.96709375,136.4124050140381L162.1681875,139.5196397304535L162.43115625000002,140.23809623718262L162.57037499999998,122.277232170105L162.8488125,112.01366424560548L162.94162500000002,138.5827555656433L163.08084374999999,155.3347840309143L163.746,107.7856936454773L163.931625,200.16413497924805L163.9625625,169.61414051055908L164.07084375,95.68166732788085L164.55656249999998,172.90481901168823L164.6184375,140.10008788108826L165.09796875,158.40928554534912L165.19078125000001,89.97973203659059L165.46921875,133.66344904899597L165.56203125,109.79711866378784L165.99515624999998,186.18015098571777L166.02609375,-11.619991302490247L166.36640625,124.48078012466429L166.39734375,160.64150142669678L166.55203125,126.42330646514894L166.7221875,147.62125492095947L167.09343750000002,169.6417956352234L167.24812500000002,65.46302795410156L167.743125,121.51644897460939L167.82046875,126.08548069000243L167.92875,90.27988719940184L168.09890625000003,143.65576887130737L168.1824375,78.66180896759033L168.53821875,160.85168600082397L168.60009374999998,165.8839340209961L169.2961875,167.70047903060913L169.49728125,145.38856077194214L169.59009375000002,95.68256759643556L169.6674375,66.83624696731567L169.9149375,120.36213588714598L170.33259375,146.93267607688904L170.58009375,204.0929069519043L170.7193125,60.99122524261474L170.82759375,69.80288505554199L170.90493750000002,183.7248091697693L171.63196875,126.65585708618163L171.69384375,194.4318437576294L172.16409375,72.92194986343384L172.34971875000002,88.68297958374023L172.75190625,34.369918346405036L172.7983125,200.33287906646729L172.90659375,170.98178911209106L172.953,9.72048091888427L173.03034375,158.49433279037476L173.09221875,199.87038016319275L173.24690625000002,93.2190670967102L173.30878124999998,143.1014003753662L173.43253124999998,66.67462062835693L173.71096875,120.57302379608156L174.31425,66.33631658554077L174.499875,129.59408044815063L174.5308125,150.2295298576355L174.63909375,99.58354377746583L174.79378125,175.10088348388672L174.80925,144.81480836868286L174.87112499999998,175.04422283172607L174.96393750000001,134.4587378501892L175.01034375,153.02913999557495L175.1495625,138.39578104019165L175.25784374999998,100.44515705108643L175.36612499999998,213.16425204277039L175.45893750000002,141.26295351982117L175.47440625000002,65.20431327819824L175.56721875,138.73871302604675L175.64456249999998,89.652006149292L175.78996875,163.71330213546753L176.2695,179.13487434387207L176.62528125,172.18851470947266L176.65621875,118.90398216247559L176.85731249999998,151.34444212913513L177.07387500000002,150.7051248550415L177.1048125,82.46789121627808L177.3523125,157.62816190719604L177.36778124999998,135.72714591026306L177.38325,211.04305052757263L178.12575,159.8405156135559L178.26496875,154.2374551296234L178.4041875,190.1459183692932L178.558875,78.71329307556152L178.97653125,130.9949827194214L179.10028125,97.71177291870117L179.19309374999997,146.70569586753845L179.39418750000002,78.65697002410889L179.895375,180.76848196983337L180.17381250000003,160.72304606437683L180.18928125,186.49020910263062L180.23568749999998,80.836829662323L180.49865625,152.64427518844604L180.68428125,180.62481880187988L180.69975,197.8248152732849L180.80803125,165.7239112854004L181.17928124999997,149.78327798843384L181.21021875,163.5461757183075L181.44225,165.78909635543823L181.45771875,110.08537340164186L181.73615625,152.41133069992065L181.98365625,181.26761054992676L182.13834375,170.57720279693604L182.370375,137.15082216262817L182.54053125,165.57072496414185L182.741625,206.3225486278534L182.94271875,104.75493955612181L183.2056875,186.68542671203613L183.31396875,179.43012022972107L183.61406250000002,139.80667066574097L183.76875,154.6641824245453L183.954375,61.16762161254882L183.96984375,109.9419493675232L184.44937499999997,108.30678033828735L184.46484375,133.12068557739258L184.4803125,135.18446683883667L184.635,173.17354917526245L184.83609375,147.97371006011963L184.92890625,76.1600751876831L185.05265625,108.9333953857422L185.14546875,171.9835910797119L186.22828124999998,111.82801198959349L186.6459375,99.83905124664305L187.12546874999998,205.92513632774353L187.2028125,80.15656423568726L187.37915625000002,123.92866230010986L188.1680625,132.83780431747437L188.199,146.46426916122437L188.46196874999998,192.1629559993744L188.57025,174.66183376312256L188.72493749999998,136.55160903930664L189.4055625,162.10449409484863L189.57571875,140.03329920768738L189.82321875000002,199.74399089813232L190.53478125,160.10173416137695L190.5811875,174.48723793029785L190.59665625,103.16936969757081L191.34534375,237.7007339000702L191.4845625,35.38978195190429L191.65471874999997,127.89420461654663L192.11878124999998,147.35688543319702L192.21159375,115.09384870529176L192.2270625,117.51475524902344L192.31987500000002,139.27200961112976L192.98503125000002,103.69968414306639L193.24800000000002,188.0310468673706L193.75846875000002,145.1220531463623L193.91315625000001,142.2428958415985L194.09878125,124.03902959823607L194.22253125,186.75988173484802L194.4545625,153.3292670249939L194.733,179.70699501037598L195.017625,162.6221625804901L195.1723125,201.45919942855835L195.20325,151.81014823913574L196.16231249999998,118.27461004257202L196.31699999999998,135.16964054107666L196.42528124999998,125.75767040252684L196.502625,92.74178409576416L196.75012500000003,85.9405927658081L196.85840625,141.12728023529053L196.873875,200.8178424835205L197.05949999999999,97.33360385894777L197.1523125,120.83714008331297L197.740125,181.1985149383545L198.25059375,135.4827229976654L199.09209375,217.54619669914246L199.15396875,172.81573462486267L200.314125,12.7564115524292L200.51521875,215.7435917854309L201.0256875,183.38968420028687L201.04115625,100.9690008163452L201.1185,152.43921089172363L201.24225,195.0664346218109L201.5206875,95.10439825057983L202.1394375,36.16046810150147L202.50140625,183.95261931419373L202.59421875,106.44353389739989L202.6096875,195.88314700126648L202.7334375,93.39926147460938L203.13562499999998,145.4577407836914L203.30578125,186.62955379486084L203.95546875000002,187.62835955619812L204.04828125,104.28969764709474L204.1565625,149.18409299850464L204.17203125,141.0998923778534L204.35765625,121.96877765655516L204.63609375,137.26585960388184L205.06921875,109.2292742729187L205.23937500000002,167.0572793483734L205.57968749999998,165.33308219909668L205.78078125000002,193.46339392662048L205.79625000000001,120.6700277328491L205.92,168.03823447227478L206.105625,168.7626552581787L206.2974375,84.25315189361572L206.7615,154.11092519760132L206.9161875,117.29238891601564L206.99353125000002,194.5095763206482L207.51946875,74.26343441009521L207.5968125,64.66629028320312L207.62775,33.057917594909675L207.7515,98.25283432006835L207.79790624999998,132.04511785507202L207.82884375,150.95998525619507L207.89071875000002,172.6830997467041L208.2155625,168.5681128501892L208.2465,167.73888111114502L208.44759375,143.34813022613525L208.803375,162.20059776306152L208.81884375,90.63093566894531L209.2674375,81.74770450592041L209.484,124.68983936309813L209.60775,122.31796932220459L210.10893750000002,105.60729694366454L210.6039375,135.23609161376953L211.42378125,86.90174198150635L211.68675,169.89998984336853L212.04253125,104.45714759826662L212.25909375,132.9489312171936L212.35190624999998,116.01198196411131L212.491125,65.9688663482666L212.78503124999997,91.70318365097047L212.81596875,198.40689516067505L213.2955,105.13046407699585L213.3264375,150.1168556213379L213.3883125,124.37834644317627L213.58940625,144.79498839378357L213.71315625,202.29529571533203L213.75956250000002,216.9205663204193L213.8214375,107.42392635345458L214.05965625,187.43474555015564L214.19887500000002,189.92087936401367L214.2916875,116.34963893890382L214.36903125,36.98362302780152L214.86403125,183.8401279449463L214.941375,120.62388896942139L215.20434375000002,113.71213340759279L215.42090625,161.41708278656006L215.43637500000003,116.16153907775877L215.6529375,208.47274160385132L215.683875,46.61750936508179L215.76121875,228.00444769859314L216.03965625,156.5329852104187L216.302625,200.82725310325623L216.53465625,174.17924761772156L216.84403125,174.08832049369812L216.99871875,118.5976095199585L217.09153125,35.564152717590325L217.16887499999999,176.23366045951843L217.292625,140.28870820999146L218.196,160.85855054855347L218.52084375,125.13580989837645L218.70646875000003,152.05936789512634L218.81475,54.45761060714722L218.876625,142.1598882675171L219.35615625,120.62158203124999L219.742875,134.42305064201355L219.78928125,192.68017435073853L219.91303125000002,117.26189231872559L220.16053125,111.60775566101074L220.29975000000002,156.05682754516602L220.77928125,150.48564219474792L220.81021875000002,162.16658449172974L220.87209375,159.7849521636963L220.96490625,30.271192550659187L220.99584374999998,130.35973072052002L221.0113125,156.4709792137146L221.4444375,220.66741371154785L221.574375,142.26322221755981L221.65171875,146.26663208007812L221.76,197.72921800613403L221.82187499999998,175.78110671043396L222.193125,62.46541500091553L222.25500000000002,219.99250769615173L222.2859375,86.64634704589844L222.61078125,129.21436405181885L222.62625,179.9128189086914L222.85828125,196.02180242538452L222.95109375,103.86094474792482L223.04390625,116.89598941802977L223.4615625,211.12979984283447L223.49249999999998,141.59221267700195L223.5234375,140.3021559715271L224.173125,148.22859859466553L224.668125,198.49188613891602L225.385875,46.53358745574952L226.02009375,206.176029920578L226.11290625,146.16357946395874L226.19025000000002,136.6438021659851L226.25212499999998,153.97210097312927L226.5924375,116.34699440002441L227.04103125,204.44156408309937L227.3349375,170.57537412643433L228.18571875,230.6694676876068L228.3249375,183.41441345214844L229.18190625000003,48.54309940338135L229.3520625,45.7786841392517L230.01721874999998,95.72063207626344L230.07909375,202.34503555297852L230.3420625,220.3826756477356L230.682375,147.9649465084076L231.1155,175.21209478378296L231.177375,191.54060316085815L231.2083125,206.1894073486328L231.25471875,169.06635522842407L231.50221875,46.23475456237793L231.70331249999998,98.55453681945802L231.8270625,172.29097652435303L231.8889375,113.36384201049803L231.919875,187.58389472961426L231.98175,106.90331792831422L232.1055,133.60030364990234L232.12096875,171.43496179580688L232.18284375000002,83.89461994171143L232.27565625,158.17770552635193L232.29112500000002,175.616934299469L232.909875,167.5020682811737L232.96246875,174.74797821044922L234.44746875,152.613525390625L234.60215625,59.55197715759278L234.78778125,111.9666533470154L235.05075,105.00372314453126L235.15903125,198.13151144981384L235.29825,206.37795734405518L235.40653125,172.7559370994568L235.5766875,87.67811107635498L236.10262500000002,76.24526309967041L236.24184375,172.57112884521484L236.92865625000002,125.93164730072021L237.5319375,104.22881698608398L237.7485,178.4171633720398L237.996,152.76533317565918L238.56834375,194.86867094039917L239.1406875,179.7852339744568L239.60475000000002,102.60501384735106L239.74396875,146.36563348770142L239.7594375,103.667555809021L240.037875,193.64648604393005L240.16162500000002,170.8094298839569L240.4400625,151.3274073600769L240.61640624999998,183.13369846343994L240.67828125,179.82262325286865L241.1578125,132.61130237579346L241.45171875,108.4316644668579L241.48265625000002,140.83628249168396L241.51359374999998,114.54896116256715L241.5290625,142.7047758102417L241.73015625,140.513831615448L242.37984375000002,143.94185733795166L242.59640625,169.93249797821045L242.90578125,206.17196464538574L243.601875,180.67959451675415L243.92671875000002,132.65966367721558L244.3753125,159.32834720611572L244.64446875000002,216.3833873271942L244.92290625,192.93662428855896L245.03118750000002,107.0790672302246L245.2786875,138.6657772064209L245.51071875,149.0329463481903L245.68087500000001,150.73925065994263L245.8974375,183.28196144104004L246.37696874999997,227.52568769454956L246.53165625,95.43400907516481L246.670875,131.98074865341187L247.0730625,168.31457471847534L247.52165625,107.14726257324217L247.6918125,188.12692546844482L248.20846874999998,10.197482585906982L248.254875,145.21575140953064L248.54878125,136.25432348251343L248.7189375,202.9513382911682L248.76534375,118.62011623382567L248.9355,131.68343496322632L249.02831250000003,141.4338779449463L249.121125,212.79448080062866L249.13659375,196.5263466835022L249.41503125,166.27995371818542L249.7089375,8.60040616989135L249.7708125,81.25925254821777L249.87909374999998,68.02198505401611L249.97190625000002,135.17054080963135L250.15753125,174.50940704345703L250.2039375,193.2088851928711L250.3276875,136.6993796825409L250.4205,160.28159093856812L250.43596875,141.7040147781372L250.96190625,104.33071613311769L251.0701875,162.3619990348816L251.6270625,78.6458854675293L252.23653125,129.27960538864136L252.36028124999999,211.74170112609863L252.437625,56.110841274261475L252.54590625,234.67836356163025L252.62325,82.1159143447876L252.63871874999998,97.42391204833986L252.76246874999998,102.29793787002565L252.96356250000002,184.7279052734375L253.13371875,54.70917940139771L253.14918749999998,145.0067765712738L253.22653125,115.46048307418825L253.44309375,212.7310118675232L253.56684375,138.01529097557068L253.58231249999997,47.9014892578125L253.7060625,200.0972900390625L254.63418750000002,217.33473205566406L255.0054375,155.2279896736145L255.23746875,65.94574069976807L255.2529375,55.093453407287605L255.4385625,172.58324027061462L255.877875,138.03367614746094L256.5894375,99.81595373153687L256.92975,204.7214069366455L257.74959375,120.2808303833008L258.12084375,187.52156519889832L258.33740625,137.9005630016327L258.476625,204.598464012146L258.70865625,114.72139072418214L258.971625,183.8189435005188L259.095375,99.79299688339233L259.48209375,190.7003993988037L259.6213125,153.65441870689392L259.6275,125.87177944183348" style="fill: none;" fill="none"></path></g><g><path style="fill: none;" fill="none" stroke="none" stroke-width="1px"></path></g></g></g></g></g><g><g opacity="0.272304"><span fill="rgb(0, 0, 0)" stroke="none" stroke-width="1px">Alt + Scroll to Zoom</span></g></g></g><g transform="translate(51, 177)" clip-path="url(#clip_1)"><clipPath id="clip_1"><rect width="278" height="23"></rect></clipPath><g><g><line x1="0" y1="0" x2="0" y2="5" style="visibility: inherit;" fill="rgb(0, 0, 0)" stroke="rgb(204, 204, 204)" stroke-width="1px"></line><line x1="30.9375" y1="0" x2="30.9375" y2="5" style="visibility: inherit;" fill="rgb(0, 0, 0)" stroke="rgb(204, 204, 204)" stroke-width="1px"></line><line x1="61.875" y1="0" x2="61.875" y2="5" style="visibility: inherit;" fill="rgb(0, 0, 0)" stroke="rgb(204, 204, 204)" stroke-width="1px"></line><line x1="92.8125" y1="0" x2="92.8125" y2="5" style="visibility: inherit;" fill="rgb(0, 0, 0)" stroke="rgb(204, 204, 204)" stroke-width="1px"></line><line x1="123.75" y1="0" x2="123.75" y2="5" style="visibility: inherit;" fill="rgb(0, 0, 0)" stroke="rgb(204, 204, 204)" stroke-width="1px"></line><line x1="154.6875" y1="0" x2="154.6875" y2="5" style="visibility: inherit;" fill="rgb(0, 0, 0)" stroke="rgb(204, 204, 204)" stroke-width="1px"></line><line x1="185.625" y1="0" x2="185.625" y2="5" style="visibility: inherit;" fill="rgb(0, 0, 0)" stroke="rgb(204, 204, 204)" stroke-width="1px"></line><line x1="216.5625" y1="0" x2="216.5625" y2="5" style="visibility: inherit;" fill="rgb(0, 0, 0)" stroke="rgb(204, 204, 204)" stroke-width="1px"></line><line x1="247.5" y1="0" x2="247.5" y2="5" style="visibility: inherit;" fill="rgb(0, 0, 0)" stroke="rgb(204, 204, 204)" stroke-width="1px"></line><line x1="278.4375" y1="0" x2="278.4375" y2="5" style="visibility: inherit;" fill="rgb(0, 0, 0)" stroke="rgb(204, 204, 204)" stroke-width="1px"></line></g><g transform="translate(0, 8)"><text x="0" y="0" dx="0em" dy="0.95em" style="text-anchor: middle; visibility: hidden; font-family: Roboto, sans-serif; font-size: 12px; font-weight: 200;" fill="rgb(33, 33, 33)" stroke="none" stroke-width="1px">-20k</text><text x="30.9375" y="0" dx="0em" dy="0.95em" style="text-anchor: middle; visibility: inherit; font-family: Roboto, sans-serif; font-size: 12px; font-weight: 200;" fill="rgb(33, 33, 33)" stroke="none" stroke-width="1px">0</text><text x="61.875" y="0" dx="0em" dy="0.95em" style="text-anchor: middle; visibility: hidden; font-family: Roboto, sans-serif; font-size: 12px; font-weight: 200;" fill="rgb(33, 33, 33)" stroke="none" stroke-width="1px">20k</text><text x="92.8125" y="0" dx="0em" dy="0.95em" style="text-anchor: middle; visibility: inherit; font-family: Roboto, sans-serif; font-size: 12px; font-weight: 200;" fill="rgb(33, 33, 33)" stroke="none" stroke-width="1px">40k</text><text x="123.75" y="0" dx="0em" dy="0.95em" style="text-anchor: middle; visibility: hidden; font-family: Roboto, sans-serif; font-size: 12px; font-weight: 200;" fill="rgb(33, 33, 33)" stroke="none" stroke-width="1px">60k</text><text x="154.6875" y="0" dx="0em" dy="0.95em" style="text-anchor: middle; visibility: inherit; font-family: Roboto, sans-serif; font-size: 12px; font-weight: 200;" fill="rgb(33, 33, 33)" stroke="none" stroke-width="1px">80k</text><text x="185.625" y="0" dx="0em" dy="0.95em" style="text-anchor: middle; visibility: hidden; font-family: Roboto, sans-serif; font-size: 12px; font-weight: 200;" fill="rgb(33, 33, 33)" stroke="none" stroke-width="1px">100k</text><text x="216.5625" y="0" dx="0em" dy="0.95em" style="text-anchor: middle; visibility: inherit; font-family: Roboto, sans-serif; font-size: 12px; font-weight: 200;" fill="rgb(33, 33, 33)" stroke="none" stroke-width="1px">120k</text><text x="247.5" y="0" dx="0em" dy="0.95em" style="text-anchor: middle; visibility: hidden; font-family: Roboto, sans-serif; font-size: 12px; font-weight: 200;" fill="rgb(33, 33, 33)" stroke="none" stroke-width="1px">140k</text><text x="278.4375" y="0" dx="0em" dy="0.95em" style="text-anchor: middle; visibility: hidden; font-family: Roboto, sans-serif; font-size: 12px; font-weight: 200;" fill="rgb(33, 33, 33)" stroke="none" stroke-width="1px">160k</text></g><line x1="0" y1="0" x2="278.4375" y2="0" fill="rgb(0, 0, 0)" stroke="rgb(204, 204, 204)" stroke-width="1px"></line></g></g></g></g></svg>