<svg viewBox="0 0 330 200" xmlns="http://www.w3.org/2000/svg"><g><g><g><g><g><line x1="51.5625" y1="177" x2="46.5625" y2="177" style="visibility: inherit;" fill="rgb(0, 0, 0)" stroke="rgb(204, 204, 204)" stroke-width="1px"></line><line x1="51.5625" y1="162.25" x2="46.5625" y2="162.25" style="visibility: inherit;" fill="rgb(0, 0, 0)" stroke="rgb(204, 204, 204)" stroke-width="1px"></line><line x1="51.5625" y1="147.5" x2="46.5625" y2="147.5" style="visibility: inherit;" fill="rgb(0, 0, 0)" stroke="rgb(204, 204, 204)" stroke-width="1px"></line><line x1="51.5625" y1="132.75" x2="46.5625" y2="132.75" style="visibility: inherit;" fill="rgb(0, 0, 0)" stroke="rgb(204, 204, 204)" stroke-width="1px"></line><line x1="51.5625" y1="118" x2="46.5625" y2="118" style="visibility: inherit;" fill="rgb(0, 0, 0)" stroke="rgb(204, 204, 204)" stroke-width="1px"></line><line x1="51.5625" y1="103.24999999999999" x2="46.5625" y2="103.24999999999999" style="visibility: inherit;" fill="rgb(0, 0, 0)" stroke="rgb(204, 204, 204)" stroke-width="1px"></line><line x1="51.5625" y1="88.49999999999999" x2="46.5625" y2="88.49999999999999" style="visibility: inherit;" fill="rgb(0, 0, 0)" stroke="rgb(204, 204, 204)" stroke-width="1px"></line><line x1="51.5625" y1="73.75" x2="46.5625" y2="73.75" style="visibility: inherit;" fill="rgb(0, 0, 0)" stroke="rgb(204, 204, 204)" stroke-width="1px"></line><line x1="51.5625" y1="58.999999999999986" x2="46.5625" y2="58.999999999999986" style="visibility: inherit;" fill="rgb(0, 0, 0)" stroke="rgb(204, 204, 204)" stroke-width="1px"></line><line x1="51.5625" y1="44.25" x2="46.5625" y2="44.25" style="visibility: inherit;" fill="rgb(0, 0, 0)" stroke="rgb(204, 204, 204)" stroke-width="1px"></line><line x1="51.5625" y1="29.499999999999993" x2="46.5625" y2="29.499999999999993" style="visibility: inherit;" fill="rgb(0, 0, 0)" stroke="rgb(204, 204, 204)" stroke-width="1px"></line><line x1="51.5625" y1="14.749999999999988" x2="46.5625" y2="14.749999999999988" style="visibility: inherit;" fill="rgb(0, 0, 0)" stroke="rgb(204, 204, 204)" stroke-width="1px"></line><line x1="51.5625" y1="0" x2="46.5625" y2="0" style="visibility: inherit;" fill="rgb(0, 0, 0)" stroke="rgb(204, 204, 204)" stroke-width="1px"></line></g><g transform="translate(41.5625, 0)"><text x="0" y="177" dx="0em" dy="0.3em" style="text-anchor: end; visibility: hidden; font-family: Roboto, sans-serif; font-size: 12px; font-weight: 200;" fill="rgb(33, 33, 33)" stroke="none" stroke-width="1px">0.25</text><text x="0" y="162.25" dx="0em" dy="0.3em" style="text-anchor: end; visibility: inherit; font-family: Roboto, sans-serif; font-size: 12px; font-weight: 200;" fill="rgb(33, 33, 33)" stroke="none" stroke-width="1px">0.3</text><text x="0" y="147.5" dx="0em" dy="0.3em" style="text-anchor: end; visibility: hidden; font-family: Roboto, sans-serif; font-size: 12px; font-weight: 200;" fill="rgb(33, 33, 33)" stroke="none" stroke-width="1px">0.35</text><text x="0" y="132.75" dx="0em" dy="0.3em" style="text-anchor: end; visibility: inherit; font-family: Roboto, sans-serif; font-size: 12px; font-weight: 200;" fill="rgb(33, 33, 33)" stroke="none" stroke-width="1px">0.4</text><text x="0" y="118" dx="0em" dy="0.3em" style="text-anchor: end; visibility: hidden; font-family: Roboto, sans-serif; font-size: 12px; font-weight: 200;" fill="rgb(33, 33, 33)" stroke="none" stroke-width="1px">0.45</text><text x="0" y="103.24999999999999" dx="0em" dy="0.3em" style="text-anchor: end; visibility: inherit; font-family: Roboto, sans-serif; font-size: 12px; font-weight: 200;" fill="rgb(33, 33, 33)" stroke="none" stroke-width="1px">0.5</text><text x="0" y="88.49999999999999" dx="0em" dy="0.3em" style="text-anchor: end; visibility: hidden; font-family: Roboto, sans-serif; font-size: 12px; font-weight: 200;" fill="rgb(33, 33, 33)" stroke="none" stroke-width="1px">0.55</text><text x="0" y="73.75" dx="0em" dy="0.3em" style="text-anchor: end; visibility: inherit; font-family: Roboto, sans-serif; font-size: 12px; font-weight: 200;" fill="rgb(33, 33, 33)" stroke="none" stroke-width="1px">0.6</text><text x="0" y="58.999999999999986" dx="0em" dy="0.3em" style="text-anchor: end; visibility: hidden; font-family: Roboto, sans-serif; font-size: 12px; font-weight: 200;" fill="rgb(33, 33, 33)" stroke="none" stroke-width="1px">0.65</text><text x="0" y="44.25" dx="0em" dy="0.3em" style="text-anchor: end; visibility: inherit; font-family: Roboto, sans-serif; font-size: 12px; font-weight: 200;" fill="rgb(33, 33, 33)" stroke="none" stroke-width="1px">0.7</text><text x="0" y="29.499999999999993" dx="0em" dy="0.3em" style="text-anchor: end; visibility: hidden; font-family: Roboto, sans-serif; font-size: 12px; font-weight: 200;" fill="rgb(33, 33, 33)" stroke="none" stroke-width="1px">0.75</text><text x="0" y="14.749999999999988" dx="0em" dy="0.3em" style="text-anchor: end; visibility: inherit; font-family: Roboto, sans-serif; font-size: 12px; font-weight: 200;" fill="rgb(33, 33, 33)" stroke="none" stroke-width="1px">0.8</text><text x="0" y="0" dx="0em" dy="0.3em" style="text-anchor: end; visibility: hidden; font-family: Roboto, sans-serif; font-size: 12px; font-weight: 200;" fill="rgb(33, 33, 33)" stroke="none" stroke-width="1px">0.85</text></g><line x1="51.5625" y1="0" x2="51.5625" y2="177" fill="rgb(0, 0, 0)" stroke="rgb(204, 204, 204)" stroke-width="1px"></line></g></g><g transform="translate(51, 0)" clip-path="url(#clip_0)"><clipPath id="clip_0"><rect width="278" height="176"></rect></clipPath><g><g><g><line x1="0" y1="0" x2="0" y2="177" fill="rgb(0, 0, 0)" stroke="rgb(66, 66, 66)" stroke-width="1px" opacity="0.25"></line><line x1="27.84375" y1="0" x2="27.84375" y2="177" fill="rgb(0, 0, 0)" stroke="rgb(66, 66, 66)" stroke-width="1px" opacity="0.25"></line><line x1="55.6875" y1="0" x2="55.6875" y2="177" fill="rgb(0, 0, 0)" stroke="rgb(66, 66, 66)" stroke-width="1px" opacity="0.25"></line><line x1="83.53125" y1="0" x2="83.53125" y2="177" fill="rgb(0, 0, 0)" stroke="rgb(66, 66, 66)" stroke-width="1px" opacity="0.25"></line><line x1="111.375" y1="0" x2="111.375" y2="177" fill="rgb(0, 0, 0)" stroke="rgb(66, 66, 66)" stroke-width="1px" opacity="0.25"></line><line x1="139.21875" y1="0" x2="139.21875" y2="177" fill="rgb(0, 0, 0)" stroke="rgb(66, 66, 66)" stroke-width="1px" opacity="0.25"></line><line x1="167.0625" y1="0" x2="167.0625" y2="177" fill="rgb(0, 0, 0)" stroke="rgb(66, 66, 66)" stroke-width="1px" opacity="0.25"></line><line x1="194.90625" y1="0" x2="194.90625" y2="177" fill="rgb(0, 0, 0)" stroke="rgb(66, 66, 66)" stroke-width="1px" opacity="0.25"></line><line x1="222.75" y1="0" x2="222.75" y2="177" fill="rgb(0, 0, 0)" stroke="rgb(66, 66, 66)" stroke-width="1px" opacity="0.25"></line><line x1="250.59375" y1="0" x2="250.59375" y2="177" fill="rgb(0, 0, 0)" stroke="rgb(66, 66, 66)" stroke-width="1px" opacity="0.25"></line><line x1="278.4375" y1="0" x2="278.4375" y2="177" fill="rgb(0, 0, 0)" stroke="rgb(66, 66, 66)" stroke-width="1px" opacity="0.25"></line></g><g><line x1="0" y1="177" x2="278.4375" y2="177" fill="rgb(0, 0, 0)" stroke="rgb(66, 66, 66)" stroke-width="1px" opacity="0.25"></line><line x1="0" y1="162.25" x2="278.4375" y2="162.25" fill="rgb(0, 0, 0)" stroke="rgb(66, 66, 66)" stroke-width="1px" opacity="0.25"></line><line x1="0" y1="147.5" x2="278.4375" y2="147.5" fill="rgb(0, 0, 0)" stroke="rgb(66, 66, 66)" stroke-width="1px" opacity="0.25"></line><line x1="0" y1="132.75" x2="278.4375" y2="132.75" fill="rgb(0, 0, 0)" stroke="rgb(66, 66, 66)" stroke-width="1px" opacity="0.25"></line><line x1="0" y1="118" x2="278.4375" y2="118" fill="rgb(0, 0, 0)" stroke="rgb(66, 66, 66)" stroke-width="1px" opacity="0.25"></line><line x1="0" y1="103.24999999999999" x2="278.4375" y2="103.24999999999999" fill="rgb(0, 0, 0)" stroke="rgb(66, 66, 66)" stroke-width="1px" opacity="0.25"></line><line x1="0" y1="88.49999999999999" x2="278.4375" y2="88.49999999999999" fill="rgb(0, 0, 0)" stroke="rgb(66, 66, 66)" stroke-width="1px" opacity="0.25"></line><line x1="0" y1="73.75" x2="278.4375" y2="73.75" fill="rgb(0, 0, 0)" stroke="rgb(66, 66, 66)" stroke-width="1px" opacity="0.25"></line><line x1="0" y1="58.999999999999986" x2="278.4375" y2="58.999999999999986" fill="rgb(0, 0, 0)" stroke="rgb(66, 66, 66)" stroke-width="1px" opacity="0.25"></line><line x1="0" y1="44.25" x2="278.4375" y2="44.25" fill="rgb(0, 0, 0)" stroke="rgb(66, 66, 66)" stroke-width="1px" opacity="0.25"></line><line x1="0" y1="29.499999999999993" x2="278.4375" y2="29.499999999999993" fill="rgb(0, 0, 0)" stroke="rgb(66, 66, 66)" stroke-width="1px" opacity="0.25"></line><line x1="0" y1="14.749999999999988" x2="278.4375" y2="14.749999999999988" fill="rgb(0, 0, 0)" stroke="rgb(66, 66, 66)" stroke-width="1px" opacity="0.25"></line><line x1="0" y1="0" x2="278.4375" y2="0" fill="rgb(0, 0, 0)" stroke="rgb(66, 66, 66)" stroke-width="1px" opacity="0.25"></line></g></g></g><g><g><line x1="0" y1="250.75" x2="278.4375" y2="250.75" fill="rgb(0, 0, 0)" stroke="rgb(153, 153, 153)" stroke-width="1.5px"></line></g></g><g><g><line x1="27.84375" y1="0" x2="27.84375" y2="177" fill="rgb(0, 0, 0)" stroke="rgb(153, 153, 153)" stroke-width="1.5px"></line></g></g><g><g><g><g><g><path stroke="rgb(255, 112, 67)" stroke-width="2px" d="M35.194500000000005,-0.645421827989159L35.41725,2.4216447629173343L35.64,1.7724351259191091L35.86275,-1.405889085325175L36.085499999999996,3.988968523685357L36.308249999999994,2.720458224767994L36.531000000000006,2.3312167977752534L36.753750000000004,4.330887987032016L36.9765,9.069713039276966L37.19925,12.908100052332628L37.422,13.072510796727173L37.644749999999995,10.3937766615422L37.8675,7.643088964336956L38.090250000000005,14.592182606246176L38.313,13.408077638669663L38.53575,14.706559549402488L38.7585,19.766067562525212L38.98125,12.64894031860116L39.204,14.623928889934765L39.42675,22.002374291706488L39.649499999999996,22.068576654536166L39.87225,22.755543098632845L40.095,20.73856967423282L40.317750000000004,23.43032811642959L40.5405,29.18004386536095L40.76325,28.797342980351093L40.986,25.627213034692176L41.208749999999995,26.49855770920113L41.4315,26.940473580226953L41.654250000000005,29.89445274672528L41.877,28.81124794723764L42.09975,28.406093672655157L42.3225,34.11841481479427L42.545249999999996,36.466879000749806L42.767999999999994,31.775499248954855L42.990750000000006,32.16741208178336L43.2135,28.691459879989875L43.43625,33.74105837483675L43.659,32.424089095751945L43.88175,37.83667092043831L44.1045,38.90882657385516L44.32725,35.376435099962606L44.550000000000004,37.98968082962103L44.77275,40.04806234846481L44.9955,41.29389993447015L45.21825,42.4452846502748L45.441,40.266559332982034L45.66375,41.533375836385886L45.8865,42.68364568945028L46.109249999999996,44.35809988964667L46.332,50.41091081658312L46.55475,45.046565921273945L46.7775,42.878667673404486L47.00025,43.32615161515576L47.223,43.49614546217041L47.44575,47.205031762642015L47.668499999999995,47.93517057013866L47.89125,49.66397513509589L48.114000000000004,45.054995866334885L48.33675,53.24695596266891L48.5595,47.560097317220745L48.78225,47.64326545996928L49.004999999999995,53.03629398882024L49.22775,51.49613397836792L49.450500000000005,50.04241737649002L49.67325,56.04645669708009L49.896,58.91738674180478L50.11875,55.50128723514768L50.341499999999996,51.105757958356904L50.56425,48.08704430505884L50.787,50.663910045044716L51.009750000000004,56.75186379444489L51.2325,58.04018518450171L51.45525,55.96234359391076L51.678,57.53418220671939L51.90075,59.63234054055893L52.1235,59.82007577997962L52.34625,54.45096061807651L52.568999999999996,60.223540167100346L52.79175,63.35975312363208L53.014500000000005,61.99234814899078L53.23725,61.52222045030853L53.46,59.32444935612809L53.68275,58.261928716818154L53.905499999999996,59.43420165029067L54.128249999999994,60.35204925461508L54.351000000000006,59.88385728728083L54.573750000000004,62.218844604336645L54.7965,64.35614057053752L55.01925,65.37776855367804L55.242,63.36093397461241L55.464749999999995,65.75397759785393L55.6875,64.78282094207616L55.910250000000005,63.06260830642548L56.133,65.50046377137811L56.35575,66.91872828949454L56.5785,69.72145636422069L56.801249999999996,67.77472834035927L57.024,66.30246473168613L57.24675,63.939428182147346L57.469500000000004,67.54470598030694L57.69225,68.0910805726149L57.915,72.29069996122708L58.137750000000004,72.8476759785705L58.3605,67.90141438273274L58.58325,62.76435298648134L58.806,68.6200985369075L59.028749999999995,72.32118943582856L59.2515,71.25431433420691L59.474250000000005,71.17568299198217L59.697,75.19718913432526L59.91975,76.1514611805079L60.1425,72.90559207767217L60.365249999999996,72.64377361933101L60.587999999999994,72.38936219142174L60.810750000000006,73.22437885387103L61.033500000000004,73.31474963814095L61.25625,72.40697606711056L61.479,71.82203892451338L61.70175,77.74677997234585L61.924499999999995,79.06357857755337L62.14725,76.6723796877966L62.370000000000005,72.77956963772765L62.59275,74.65774905079094L62.8155,76.33868487382016L63.03825,75.32582747036868L63.261,76.37152802361743L63.48375,78.57061442406253L63.7065,78.04885283890341L63.929249999999996,75.66616256621221L64.152,77.70640575111784L64.37474999999999,78.51893958006931L64.5975,78.71118024370519L64.82025,78.94364157561257L65.043,81.0343145940581L65.26575,84.27085918300757L65.4885,82.1219755033689L65.71124999999999,83.43113328662847L65.934,81.65196609316718L66.15675,81.39198126371076L66.37950000000001,76.158618424249L66.60225,81.75061739833431L66.825,81.55185422564601L67.04775,82.59626289187231L67.2705,82.06788428386346L67.49325,83.83812316706445L67.716,84.69100858148374L67.93875,80.96599512658526L68.1615,84.8118726965276L68.38425000000001,84.1746170253465L68.607,85.00565845968364L68.82975,85.61274084134823L69.0525,86.32493039889613L69.27525,85.20574418720362L69.49799999999999,83.73074800076053L69.72075000000001,81.67006634866692L69.9435,80.48154574181234L70.16625,84.6986316164159L70.38900000000001,87.27926571069726L70.61175,90.10964818771572L70.8345,92.52397243864752L71.05725,89.90672523296597L71.28,87.75086032287234L71.50274999999999,86.63679954605497L71.7255,84.95280354629159L71.94825,86.13764281111987L72.17099999999999,87.94983624062478L72.39375,88.58475180908432L72.61649999999999,92.40575904208623L72.83924999999999,87.93633002311705L73.06200000000001,88.19509665322678L73.28475,86.97584363403168L73.50750000000001,86.92274115212044L73.73025,91.75373930198862L73.953,96.82037061115898L74.17575000000001,96.98393406652652L74.3985,93.64881499752637L74.62125,88.39091767354513L74.844,89.441535572054L75.06675,90.13201871993519L75.28949999999999,88.78746369663602L75.51225,93.67174718337662L75.735,92.1159923207207L75.95774999999999,92.29402767217097L76.18050000000001,93.89244772986724L76.40325,93.11932221665612L76.626,96.35541872349192L76.84875000000001,92.53769385976973L77.0715,88.12216123376454L77.29425,95.3069093585269L77.517,97.45845362101507L77.73975,98.54792121360109L77.9625,99.01768725301969L78.18525,94.12281537125776L78.408,97.3285011897188L78.63074999999999,96.49072926212288L78.8535,96.39395355575226L79.07624999999999,98.03143297028429L79.29899999999999,95.00922967723521L79.52175000000001,96.86870895259L79.7445,97.57459684604348L79.96725,94.548318687799L80.19,96.17061072409665L80.41275,98.75590494163934L80.63550000000001,97.64478829904562L80.85825,102.8708825423706L81.081,101.46093743148667L81.30375,100.49558626549188L81.5265,100.28258531408986L81.74925,100.02570248935443L81.972,99.87319486503402L82.19475,100.39501754799085L82.41749999999999,99.79785514417948L82.64025000000001,98.85249799801451L82.863,100.47077085391304L83.08575,102.76380224047462L83.30850000000001,100.51318479302066L83.53125,101.76025072234098L83.754,102.27368835756197L83.97675,98.57036278451528L84.1995,98.46422523413693L84.42225,99.53517676575021L84.645,104.02850912440977L84.86775,103.10645150201302L85.09049999999999,102.30716743827078L85.31325,101.79021488951281L85.53599999999999,100.09426328540128L85.75874999999999,100.24394890344243L85.98150000000001,104.4925680306424L86.20425,104.22841772312773L86.427,105.30090716723052L86.64975,104.10399846282272L86.8725,101.83371708131445L87.09525000000001,99.91706614959077L87.318,103.24741833868971L87.54075,104.8618179029321L87.7635,105.90577523119549L87.98625,107.460557185628L88.209,106.1252793239697L88.43175,105.32527586288286L88.6545,106.59009335472449L88.87724999999999,101.87563884564435L89.10000000000001,102.57028560365953L89.32275,103.40175205245768L89.5455,106.73262203804606L89.76825000000001,106.15897070739284L89.991,108.08884183840955L90.21375,106.84851024852806L90.4365,109.3998318882898L90.65925,103.96524478146165L90.882,109.43119758392324L91.10475,108.01292159637693L91.3275,109.64010771818154L91.55024999999999,109.70471858636301L91.773,108.365293257688L91.99575,107.97236072480538L92.21849999999999,107.91905201816269L92.44125000000001,108.34177731059353L92.664,110.18613306903164L92.88675,110.48890935019155L93.1095,111.42132281333444L93.33225,107.94927769975865L93.555,107.19546031931453L93.77775,107.55023269169205L94.0005,110.96446141945633L94.22325,109.43196726075455L94.446,113.49904235027697L94.66875,113.45797469139893L94.8915,110.97596775829598L95.11425,112.49256535773448L95.33699999999999,111.35504488543836L95.55975000000001,110.73000601225134L95.7825,111.42148384519736L96.00525,111.31466787612759L96.22800000000001,109.83832322023362L96.45075,111.45905945126704L96.6735,117.2832471848241L96.89625,113.20359678242339L97.119,113.85123095021495L97.34175,112.81168962599519L97.5645,112.5776727167475L97.78725,108.64773903434515L98.00999999999999,110.01371269249553L98.23275,109.86179046119464L98.4555,110.40171297492122L98.67824999999999,111.30744810835667L98.90100000000001,111.66966994028556L99.12375,110.91071902336648L99.3465,111.80426816083416L99.56925,113.43824676022653L99.792,109.83227823284346L100.01475,110.1120550055317L100.2375,112.91439962656978L100.46025,114.24854608155013L100.68299999999999,114.88688042482248L100.90575,116.15029041870935L101.1285,115.92897152596713L101.35125,110.21109174882437L101.574,114.46070127977374L101.79674999999999,118.09383837521537L102.01950000000001,115.9387977682154L102.24225000000001,116.35288503431141L102.465,112.32257173061346L102.68775000000001,113.14993647596829L102.9105,116.45165983206758L103.13325,114.72446045921798L103.356,116.22097014977706L103.57875,116.06657775604252L103.8015,116.84259742309068L104.02425,117.23855183224033L104.247,115.77475216743602L104.46974999999999,113.57185631010515L104.6925,117.68234152313904L104.91525,115.69385672441317L105.13799999999999,114.7613111037801L105.36075000000001,116.70775328743153L105.5835,118.80636999994216L105.80625,119.88961563770306L106.02900000000001,120.2611021335731L106.25175,120.24296705555403L106.4745,118.25930403189666L106.69725,115.5761678426264L106.92,116.5159626408748L107.14274999999999,122.93141362189674L107.3655,118.90420818847929L107.58825,117.89601638335004L107.81099999999999,117.1363603588026L108.03375,118.58436077659577L108.25649999999999,120.54940585897154L108.47925000000001,122.24785294898015L108.70200000000001,117.99064532436219L108.92475,120.13142544082955L109.14750000000001,122.71410382682647L109.37025,124.3771470962213L109.593,119.79935964141843L109.81575,119.21930546678367L110.0385,119.53817445923633L110.26125,119.54808571510263L110.484,118.17615375677644L110.70675,122.85864126521872L110.92949999999999,124.61584530713672L111.15225,122.79228255031045L111.375,120.86135436718068L111.59774999999999,120.96023268713839L111.82050000000001,123.73133888638301L112.04325,123.07623464655357L112.266,119.56976893859868L112.48875000000001,121.90335991292321L112.7115,123.94731018155862L112.93425,121.06570567479508L113.157,119.17772530068474L113.37975,121.50872625124084L113.60249999999999,122.0640819958383L113.82525,120.74680342405897L114.048,118.40544040956327L114.27074999999999,122.10614163030317L114.4935,124.18994466106386L114.71624999999999,122.83990791499559L114.93900000000001,123.76146212265235L115.16175000000001,124.132893831175L115.3845,123.06933048795494L115.60725000000001,122.40583185801286L115.83,120.74499285471417L116.05275,124.02291462355558L116.27550000000001,124.3473382353584L116.49825,122.38092160186059L116.721,125.36361317167754L116.94375,124.89756280844914L117.1665,124.83383386143964L117.38924999999999,122.03568152650175L117.612,125.1470834325033L117.83475,128.0061437363683L118.05749999999999,125.45407388818187L118.28025000000001,125.51592633413713L118.503,123.31539979249567L118.72575,128.1311073204541L118.94850000000001,127.54981913346415L119.17125,126.52293777783211L119.394,123.61202888387184L119.61675,128.33019566504552L119.8395,128.67762520004064L120.06225,126.5487110277374L120.285,124.92541020431995L120.50775,127.55024542770308L120.73049999999999,126.28170243001681L120.95325,124.5070184874378L121.17599999999999,127.20300883364597L121.39874999999999,128.8181965980832L121.62150000000001,129.34767088306643L121.84425,130.9093367084714L122.06700000000001,129.77507041629624L122.28975,129.68560027665083L122.5125,126.73922915884538L122.73525000000001,127.32533737615557L122.958,130.2094742068063L123.18075,130.35622330349628L123.4035,126.0770638088756L123.62625,126.344892687771L123.84899999999999,127.35319532278545L124.07175,128.5581100006413L124.2945,127.10420167860846L124.51724999999999,127.30089172177132L124.74000000000001,129.22062688264384L124.96275,130.05605615819252L125.1855,129.2821176446431L125.40825000000001,129.4998328408912L125.631,130.88840765062852L125.85375,131.7597738789338L126.0765,128.69675479496593L126.29925,128.23166514236496L126.522,130.73482661184036L126.74475,131.65012817400836L126.9675,129.2425782102273L127.19024999999999,132.17133417753195L127.413,130.66163979170622L127.63574999999999,129.60786227852554L127.85849999999999,130.46894741375726L128.08125,127.78014547162984L128.304,128.790655325393L128.52675,131.5444514607512L128.74949999999998,130.36493916082617L128.97225,132.40804302225007L129.195,134.05723830986517L129.41774999999998,131.95723443506702L129.6405,131.58704033346137L129.86325,131.31666624815279L130.086,132.24201377559186L130.30875,133.60305400134067L130.5315,132.73939140281058L130.75425,133.58216534265068L130.977,131.54058957181488L131.19975,131.3511316786332L131.42249999999999,131.20205218446296L131.64525,131.79356397584405L131.868,134.37844828491149L132.09074999999999,133.68839302724606L132.3135,135.84715482151012L132.53625,134.95494158408798L132.75900000000001,133.3091070662505L132.98175,134.44755589236436L133.2045,130.76575578395511L133.42725000000002,131.25555833970765L133.65,132.27579073797776L133.87275,131.9233249138796L134.0955,131.00842166510395L134.31825,133.2755977541001L134.541,133.89397483180025L134.76375,131.48155155284385L134.9865,132.9564395467354L135.20925,132.001057373314L135.432,134.979722477308L135.65475,134.65372254212969L135.8775,134.66115707102077L136.10025000000002,137.69268146089303L136.323,135.32459343790654L136.54575,135.844937751311L136.76850000000002,134.40049744981923L136.99125,136.9732449319012L137.214,135.70282150875656L137.43675,136.9253415679467L137.6595,136.65154848109975L137.88225,136.84793923212706L138.105,133.4907111263399L138.32775,131.884680461373L138.5505,133.293192215094L138.77325,134.32308204552444L138.99599999999998,137.31686429606683L139.21875,134.5306879945193L139.44150000000002,135.69204293454325L139.66425,133.26506777517207L139.887,136.6152496101533L140.10975,135.9718628703851L140.3325,135.0798037935724L140.55525,134.5909825920897L140.77800000000002,136.29320715650937L141.00074999999998,139.6154976488299L141.2235,137.5528350820947L141.44625,133.7877188215343L141.669,134.97856158402848L141.89175,137.72961057716483L142.1145,136.18961010948638L142.33724999999998,137.66098409947745L142.56,137.66056865402348L142.78275000000002,136.2482320001681L143.00549999999998,136.56492430299733L143.22825,136.34640352342083L143.451,137.14525626670547L143.67375,136.1336288280026L143.8965,134.76816656298615L144.11925,137.30882216411982L144.34199999999998,136.8937062812136L144.56475,139.0260236958319L144.7875,137.27454763180782L145.01025,138.06629661392697L145.23299999999998,136.96473266994022L145.45575,139.66150313373566L145.67849999999999,138.08091361901356L145.90125,137.18812119065626L146.12400000000002,138.33991526106206L146.34675,137.72857972212591L146.5695,138.17679991401388L146.79225,139.55747344370153L147.01500000000001,137.81906416171856L147.23775,136.86104592942044L147.4605,135.37749901804898L147.68325,137.60667493351414L147.906,139.11094769351968L148.12875,139.2845749741269L148.35150000000002,138.39804419935032L148.57424999999998,136.70798668656212L148.797,137.20118552895457L149.01975000000002,137.06847684531348L149.2425,142.91289205811242L149.46525000000003,143.00992170028297L149.688,140.14492008537707L149.91075,139.84228434161776L150.1335,142.19638991692395L150.35625000000002,138.972060580021L150.57899999999998,139.40643028846566L150.80175,140.03814996736747L151.0245,139.62792468693723L151.24725,139.01010557336772L151.47,140.3149478398467L151.69275,139.32165412091442L151.91549999999998,140.2086141221725L152.13825,140.37065844708968L152.36100000000002,139.35300329024443L152.58375,140.71583133243885L152.8065,140.57219358674683L153.02925,141.4685683447078L153.252,142.43985438427052L153.47475,141.12270864407952L153.69750000000002,139.91390916704756L153.92024999999998,142.12890953278406L154.143,140.92535207420875L154.36575,140.43661527672512L154.5885,140.17520042497634L154.81125,142.99776620750612L155.034,141.83344481398913L155.25674999999998,143.91017527460704L155.4795,142.82747555983417L155.70225000000002,141.0664948301275L155.925,139.38444421753547L156.14775,141.71946083970104L156.3705,142.59227903916772L156.59325,143.76838138702934L156.816,140.85304531599303L157.03875,142.63176682440138L157.26149999999998,140.13900767665885L157.48425,141.31857789724106L157.707,139.0626262613155L157.92975,141.9895820580457L158.15249999999997,144.36201569400848L158.37525,144.642308603989L158.59799999999998,144.46632704727952L158.82075,144.68803246493286L159.04350000000002,141.7364173135395L159.26624999999999,138.25237941416498L159.489,139.75892877164856L159.71175,141.40682210321904L159.9345,144.3344073249426L160.15725,145.0412992196337L160.38,144.47317416659115L160.60275,142.90701710836132L160.8255,144.89948101112793L161.04825,145.51511726971427L161.27100000000002,143.10467940419676L161.49374999999998,135.3731740320376L161.7165,143.24038109692495L161.93925000000002,144.1894229843862L162.162,143.20367270931547L162.38475000000003,142.24423313589972L162.6075,140.7594441872134L162.83025,144.67063487363467L163.053,144.88701387554573L163.27575000000002,144.3341079024714L163.4985,144.36794261164408L163.72125,145.23061206835104L163.944,145.40543904351733L164.16675,145.90094448931342L164.3895,148.28343145640102L164.61225,143.29655010273595L164.83499999999998,143.0559087790083L165.05775,145.189757392977L165.28050000000002,145.44934200715826L165.50325,143.75559483675124L165.726,147.37727458759184L165.94875,145.84025040805653L166.1715,147.98541308045736L166.39425,143.81548363886003L166.61700000000002,140.6662817061358L166.83974999999998,143.96771803711923L167.0625,147.30076424126392L167.28525,145.23042583847706L167.508,146.15197196393154L167.73075,145.8388270911859L167.9535,147.239807550382L168.17624999999998,145.6247406568136L168.399,144.12561083506526L168.62175000000002,144.92338278483223L168.8445,146.807891325815L169.06725,148.33076517134128L169.29,148.81623318982443L169.51275,146.22239348205395L169.7355,145.05078257589378L169.95825000000002,146.1209425923318L170.18099999999998,143.88800415767872L170.40375,146.16837724138318L170.6265,145.23932552778413L170.84925,146.99551095189602L171.07199999999997,147.0795254887483L171.29475,146.31367930552935L171.51749999999998,147.44987500721456L171.74025,147.30460116923916L171.96300000000002,146.27098950154922L172.18574999999998,149.40512412970278L172.4085,149.90492957907782L172.63125,148.91958892647148L172.854,146.5916629985583L173.07675,145.14769960616013L173.2995,146.24750665817595L173.52224999999999,145.84215590315898L173.745,148.18723981139058L173.96775,149.90688321878798L174.19050000000001,149.43558027820728L174.41324999999998,144.96534893470795L174.636,146.82027778298234L174.85875000000001,146.2264997684988L175.0815,149.604628405348L175.30425000000002,149.851262284209L175.527,147.9242170622634L175.74975,150.27836204202617L175.9725,149.18318928512798L176.19525000000002,150.42942817873657L176.418,149.01888021426018L176.64075,149.7675456439296L176.8635,146.97179361442753L177.08625,145.5983738979158L177.309,147.82357786320077L177.53175,148.3054756956417L177.75449999999998,149.47080971845133L177.97725,150.4897818523361L178.20000000000002,149.40194854252994L178.42275,149.19854264549804L178.6455,148.04801290548733L178.86825,150.4224894907158L179.091,148.07157829868046L179.31375,150.09028481040735L179.53650000000002,150.00953141823993L179.75924999999998,149.69588482164647L179.982,147.70902916247505L180.20475,150.12640731368393L180.4275,151.94956990103802L180.65025,149.356886675829L180.873,149.4696637480172L181.09574999999998,149.37820279387452L181.3185,150.81159066971603L181.54125000000002,149.3823890304035L181.764,149.19122276293297L181.98675,150.59199176459504L182.2095,150.49463742237808L182.43225,151.85472954858446L182.655,150.39313865053137L182.87775000000002,152.87697603408202L183.10049999999998,152.8933009052765L183.32325,150.05740980254004L183.546,150.74751283932642L183.76875,152.16059972185266L183.9915,150.85518602701487L184.21425,150.48193152282033L184.43699999999998,151.62274161714205L184.65975,150.7641666612495L184.88250000000002,152.3397469747268L185.10524999999998,152.25743964155916L185.328,152.5155504792053L185.55075,148.60920138373834L185.7735,151.8718135169793L185.99625,151.4039772555974L186.219,151.6163521988835L186.44174999999998,152.2265434413133L186.6645,152.70136849501097L186.88725,153.0077342696283L187.11,149.98773643686337L187.33274999999998,151.37977758113317L187.5555,152.81261740778586L187.77824999999999,150.50488163043136L188.001,151.62768460368343L188.22375000000002,151.65556077817737L188.4465,153.98922486808738L188.66925,152.40519833214714L188.892,151.8225894724782L189.11475000000002,152.41621857835275L189.3375,152.6550387985251L189.56025,152.64529083182813L189.783,154.17990043914023L190.00575,153.57311874075165L190.2285,152.87972597747904L190.45125000000002,153.14463535649847L190.67399999999998,153.05155866645143L190.89675,150.261999320424L191.11950000000002,150.29166058777903L191.34225,151.0086484254616L191.565,153.59122021548285L191.78775,154.91916886103778L192.0105,152.4248455835503L192.23325,151.4500194531313L192.45600000000002,151.6764243569792L192.67874999999998,154.03805171429596L192.9015,151.6098964138895L193.12425,153.35019369083332L193.347,156.1511522283965L193.56975,154.38427122713028L193.7925,154.765074330767L194.01524999999998,154.6814645458452L194.238,152.36955120551508L194.46075000000002,154.06514226387046L194.6835,151.774301526432L194.90625,152.0708392121241L195.129,152.19353937182754L195.35175,154.46959560436326L195.5745,155.34693617962543L195.79725000000002,155.34586930666384L196.01999999999998,153.6375202891456L196.24275,152.64257040726866L196.4655,155.92196498610923L196.68825,154.39181499797317L196.911,153.71919184265616L197.13375,155.7247841846184L197.35649999999998,153.79011291381516L197.57925,154.81547659235775L197.80200000000002,156.26174297929543L198.02475,154.3840312653806L198.2475,152.8303816918406L198.47025,156.4638036596953L198.693,155.26180397225534L198.91575,155.45880692458263L199.1385,154.81816891383306L199.36124999999998,154.8763137190761L199.584,155.44563474663127L199.80675,153.94799297457197L200.0295,153.77642058603237L200.25224999999998,154.33798525684008L200.475,154.90937028184774L200.69774999999998,154.66144369821217L200.9205,156.03075594089276L201.14325000000002,155.98669140938856L201.36599999999999,155.70892894522152L201.58875,156.36250473601686L201.8115,155.68547206256122L202.03425000000001,156.19670383242234L202.257,155.26770676670728L202.47975,156.82361820941549L202.7025,156.8073635469627L202.92525,156.96110503768796L203.148,156.23100334945255L203.37075000000002,154.24990319098316L203.59349999999998,154.55860006903765L203.81625,155.40116723666466L204.03900000000002,154.63105505155718L204.26175,156.4074852252722L204.48450000000003,156.16844013835592L204.70725,155.9422129337787L204.93,157.67279275567816L205.15275,157.91193050391365L205.37550000000002,153.64280450014166L205.59824999999998,155.3027388677773L205.821,156.9487773425556L206.04375,156.46611640409577L206.2665,157.14616467803634L206.48925,157.6808603620228L206.712,157.0136463030565L206.93474999999998,157.3030547078095L207.1575,154.49591831077421L207.38025000000002,157.70600679517295L207.603,158.487419701578L207.82575,155.25376394065063L208.0485,155.70151022365863L208.27125,158.96708110876537L208.494,157.89860821103184L208.71675000000002,156.93691322647834L208.93949999999998,156.6830501144113L209.16225,158.66536880181766L209.385,158.7777694952703L209.60775,158.13979516411118L209.8305,158.59389819386016L210.05325,157.80263069116015L210.27599999999998,158.4321624896932L210.49875,158.09069144484153L210.72150000000002,157.73784137615962L210.94425,156.74782152023303L211.167,156.84095034564052L211.38975,157.531138696402L211.6125,159.06587804759954L211.83525,161.1383899703853L212.05800000000002,158.06058481654154L212.28074999999998,160.048870618762L212.5035,159.26829184889917L212.72625,159.52081878953024L212.949,159.23928434926603L213.17174999999997,157.85975850211668L213.3945,158.31352433793745L213.61724999999998,157.8526639937058L213.84,156.64859601242694L214.06275000000002,158.6606843522437L214.28549999999998,158.48309567990344L214.50825,157.20025037461903L214.731,159.57937754564924L214.95375,156.2097781899864L215.1765,157.52964833259313L215.39925,159.6344252017059L215.62199999999999,158.63595378455946L215.84475,157.1712405707483L216.0675,157.298095266548L216.29025000000001,159.23993971159823L216.51299999999998,157.93612664360836L216.73575,160.1057180356699L216.95850000000002,160.58886287067844L217.18125,158.8439937804322L217.40400000000002,159.14290986339333L217.62675,158.87045029319634L217.8495,160.2709278158363L218.07225,158.60646345646757L218.29500000000002,159.4143942039176L218.51775,158.51308101310167L218.7405,159.697466022116L218.96325,161.03895310506996L219.186,161.2312674213717L219.40875,159.23282943031987L219.6315,159.25166728586754L219.85424999999998,160.04080659900828L220.077,159.92845144085766L220.29975000000002,159.07899031897102L220.5225,159.78808212953862L220.74525,161.0682852653403L220.968,159.36336421370854L221.19075,160.5592174372924L221.4135,160.36660540796316L221.63625000000002,161.06363589628666L221.85899999999998,162.804580857464L222.08175,161.13493353565391L222.3045,158.55335032010663L222.52725,157.1697862671911L222.75,156.48001274840507L222.97275,158.03709996201619L223.19549999999998,159.128449027966L223.41825,160.6124004587552L223.64100000000002,158.54403473364786L223.86375,157.41881269745213L224.0865,159.38260322556354L224.30925,160.816138904625L224.532,160.46421255238337L224.75475,158.65155535310532L224.97750000000002,159.90900872341524L225.20024999999998,162.98696856562552L225.423,159.1770164896615L225.64575,159.33038192774114L225.8685,161.16662116427773L226.09125,161.0116296578479L226.314,160.51531567408398L226.53674999999998,160.29233664944982L226.7595,160.88878793168442L226.98225000000002,161.37319889774744L227.20499999999998,159.41404940882774L227.42775,159.6236311166585L227.6505,159.8762902508775L227.87325,160.5492937220984L228.096,161.47219407037613L228.31875,161.32480056255415L228.54149999999998,162.99325198634756L228.76425,161.80090853034184L228.987,160.85137738286758L229.20975,159.74138567143433L229.43249999999998,163.7286666679042L229.65525,162.65369389785988L229.87800000000001,160.55094634146278L230.10075,161.3327196761338L230.32350000000002,161.5627127962783L230.54625,160.74088058614544L230.769,162.75173379052478L230.99175,161.32982066532466L231.21450000000002,161.57286289271448L231.43725,163.57450506700553L231.66,162.01578385772706L231.88275,160.45620166073934L232.1055,160.23037956723178L232.32825,161.0531984204692L232.55100000000002,161.73597960765485L232.77374999999998,160.23897217537896L232.9965,160.2091434327566L233.21925000000002,160.69436615625006L233.442,161.05682255501705L233.66475,161.51618606790262L233.8875,162.00235972762297L234.11025,160.34755612009593L234.333,163.11766975386342L234.55575000000002,160.55140734543176L234.77849999999998,161.91646716458993L235.00125,161.93064954647392L235.224,161.47900837816547L235.44675,160.81507292421816L235.6695,162.10808952998568L235.89225,161.2777914884996L236.11499999999998,161.5842576958397L236.33775,162.51339867808485L236.56050000000002,161.79916043602339L236.78325,161.98581914105173L237.006,160.64102641291763L237.22875,160.78070090630507L237.4515,161.6992012019268L237.67425,162.41507114522562L237.89700000000002,161.86387791396015L238.11974999999998,160.9186702685481L238.3425,164.51907246947542L238.56525,161.5892068008575L238.788,162.31186634546094L239.01075,161.77507633856362L239.2335,161.5312729790742L239.45624999999998,160.6808149633921L239.679,159.98212473631398L239.90175000000002,161.26792092198548L240.1245,160.75117021439962L240.34725,163.52468879202308L240.57,164.07145094978642L240.79275,161.7330057177781L241.0155,163.53831627877221L241.23825,163.0683070472931L241.46099999999998,162.74831210487403L241.68375,163.47655940887472L241.9065,161.84152057443086L242.12925,162.71693592814557L242.35199999999998,165.0851528142201L242.57475,163.6091745380137L242.79749999999999,163.0219612023187L243.02025,163.91517826528738L243.24300000000002,163.75627764159097L243.46574999999999,162.46466241527935L243.6885,163.28291269887256L243.91125,165.13582597381435L244.13400000000001,164.28395991764003L244.35675,165.09563182169185L244.5795,162.5477647732212L244.80225,163.6336936169051L245.025,160.80328611881467L245.24775,163.61777458430262L245.47050000000002,163.78226064419124L245.69324999999998,163.89010404404038L245.916,162.66613128698614L246.13875000000002,162.99950203842283L246.3615,162.39034616270172L246.58425000000003,162.4832632077673L246.807,161.48937920659048L247.02975,161.45295954448795L247.2525,163.96185360406042L247.47525000000002,162.2953562895387L247.69799999999998,160.68836383228847L247.92075,160.91624795052513L248.1435,162.696975700145L248.36625,164.47331661015974L248.589,162.90853001378738L248.81175,161.9216356828827L249.03449999999998,162.95597563524908L249.25725,163.95708171555393L249.48000000000002,163.72449070877155L249.70275,164.3386388079843L249.9255,165.03842479885833L250.14825,164.51248729750347L250.371,164.26912201363683L250.59375,164.98663018551574" style="fill: none;" fill="none"></path></g></g></g></g><g opacity="0.2"><g><g><g><path stroke="rgb(255, 112, 67)" stroke-width="2px" d="M34.52625,-13.33430308103564L34.748999999999995,0.200689554214471L34.97175,-0.613174319267286L35.194500000000005,0.19493979215621293L35.41725,4.117103934288025L35.64,1.4135552644729614L35.86275,-3.162850916385664L36.085499999999996,6.971219003200525L36.308249999999994,2.0192320346832275L36.531000000000006,2.1160460710525446L36.753750000000004,5.436296284198755L36.9765,11.68931198120116L37.19925,15.029941320419312L37.422,13.163396239280694L37.644749999999995,8.912985742092133L37.8675,6.12252247333526L38.090250000000005,18.433607041835778L38.313,12.753510296344757L38.53575,15.424353897571564L38.7585,22.56293845176696L38.98125,8.714627742767322L39.204,15.71569275856018L39.42675,26.081142246723175L39.649499999999996,22.105172991752617L39.87225,23.135294735431657L40.095,19.62359678745269L40.317750000000004,24.918318808078766L40.5405,32.358458161354065L40.76325,28.585787832736962L40.986,23.874780952930443L41.208749999999995,26.980232715606682L41.4315,27.18476247787474L41.654250000000005,31.52739775180816L41.877,28.212457716464996L42.09975,28.18212640285492L42.3225,37.27615755796432L42.545249999999996,37.76509833335876L42.767999999999994,29.182127833366387L42.990750000000006,32.384059548377984L43.2135,26.769970774650567L43.43625,36.532451331615434L43.659,31.69607502222061L43.88175,40.8287192583084L44.1045,39.50150889158249L44.32725,33.42374664545059L44.550000000000004,39.43427008390426L44.77275,41.18592542409897L44.9955,41.98259276151656L45.21825,43.08176440000534L45.441,39.0621708035469L45.66375,42.233665704727166L45.8865,43.31950914859772L46.109249999999996,45.28372985124587L46.332,53.75687462091445L46.55475,42.08118271827696L46.7775,41.680264294147484L47.00025,43.57351851463317L47.223,43.59011721611023L47.44575,49.25528568029403L47.668499999999995,48.33878767490387L47.89125,50.61964970827103L48.114000000000004,42.50717502832412L48.33675,57.77543079853057L48.5595,44.416430115699754L48.78225,47.68924039602279L49.004999999999995,56.01753336191177L49.22775,50.644741177558885L49.450500000000005,49.23881006240845L49.67325,59.36545979976654L49.896,60.504422605037675L50.11875,53.61288440227507L50.341499999999996,48.67593121528625L50.56425,46.41831439733505L50.787,52.08838862180709L51.009750000000004,60.11725437641144L51.2325,58.75236284732818L51.45525,54.813723087310784L51.678,58.40308678150177L51.90075,60.79219204187393L52.1235,59.92385488748549L52.34625,51.48294043540953L52.568999999999996,63.414593458175645L52.79175,65.09343606233597L53.014500000000005,61.23645347356796L53.23725,61.262336194515214L53.46,58.10953241586685L53.68275,57.67457258701324L53.905499999999996,60.08222830295563L54.128249999999994,60.85943084955214L54.351000000000006,59.62504309415817L54.573750000000004,63.50961399078369L54.7965,65.53762716054915L55.01925,65.94251942634583L55.242,62.2460378408432L55.464749999999995,67.07684022188187L55.6875,64.24597036838531L55.910250000000005,62.11168330907822L56.133,66.84809815883635L56.35575,67.70273786783218L56.5785,71.27079051733017L56.801249999999996,66.69858676195145L57.024,65.4886047244072L57.24675,62.63315331935881L57.469500000000004,69.53768563270569L57.69225,68.39311373233795L57.915,74.6122286915779L58.137750000000004,73.15556955337524L58.3605,65.167145550251L58.58325,59.92461097240448L58.806,71.85712558031082L59.028749999999995,74.36713409423828L59.2515,70.66455107927322L59.474250000000005,71.13221597671509L59.697,77.42025774717331L59.91975,76.67897802591322L60.1425,71.11129176616669L60.365249999999996,72.4990416765213L60.587999999999994,72.24872481822968L60.810750000000006,73.6859719157219L61.033500000000004,73.364706158638L61.25625,71.9051633477211L61.479,71.49868857860565L61.70175,81.0219473838806L61.924499999999995,79.79149830341338L62.14725,75.3505368232727L62.370000000000005,70.62764358520506L62.59275,75.69599729776382L62.8155,77.26789784431458L63.03825,74.76592493057251L63.261,76.94958609342574L63.48375,79.78625845909119L63.7065,77.7604256272316L63.929249999999996,74.34902322292328L64.152,78.83424204587935L64.37474999999999,78.9681042432785L64.5975,78.81744992733002L64.82025,79.0721450448036L65.043,82.19002825021744L65.26575,86.06000494956969L65.4885,80.93408328294754L65.71124999999999,84.15482920408247L65.934,80.6684513092041L66.15675,81.24826294183731L66.37950000000001,73.26564145088196L66.60225,84.84184664487837L66.825,81.441978931427L67.04775,83.17360681295395L67.2705,81.77579921483992L67.49325,84.81670242547989L67.716,85.16247940063477L67.93875,78.90682619810103L68.1615,86.93785470724106L68.38425000000001,83.8223452568054L68.607,85.46505403518677L68.82975,85.94833296537398L69.0525,86.71862524747849L69.27525,84.58706361055373L69.49799999999999,82.91537743806839L69.72075000000001,80.53093177080154L69.9435,79.82453745603561L70.16625,87.02981573343276L70.38900000000001,88.70582741498947L70.61175,91.6742695569992L70.8345,93.85859888792038L71.05725,88.45992398262023L71.28,86.5591089129448L71.50274999999999,86.02095228433609L71.7255,84.0218989253044L71.94825,86.79261606931686L72.17099999999999,88.95160776376723L72.39375,88.93572998046874L72.61649999999999,94.51799285411835L72.83924999999999,85.46565186977386L73.06200000000001,88.3381415605545L73.28475,86.30184662342072L73.50750000000001,86.89338636398315L73.73025,94.42429107427597L73.953,99.62117922306061L74.17575000000001,97.07435113191605L74.3985,91.80517774820326L74.62125,85.48437815904617L74.844,90.02231192588806L75.06675,90.51371437311172L75.28949999999999,88.04420036077498L75.51225,96.37175482511519L75.735,91.25597876310349L75.95774999999999,92.39244472980498L76.18050000000001,94.77604639530182L76.40325,92.69194227457047L76.626,98.14431679248808L76.84875000000001,90.42727452516556L77.0715,85.68127673864365L77.29425,99.27860242128371L77.517,98.64781659841536L77.73975,99.15017348527908L77.9625,99.27737158536911L78.18525,91.4169545173645L78.408,99.10058838129044L78.63074999999999,96.02761310338973L78.8535,96.34045642614365L79.07624999999999,98.93662345409392L79.29899999999999,93.33857071399687L79.52175000000001,97.89661985635757L79.7445,97.96480816602705L79.96725,92.87540715932846L80.19,97.0674057006836L80.41275,100.18504273891449L80.63550000000001,97.03056854009628L80.85825,105.75984147191048L81.081,100.68152678012848L81.30375,99.961944937706L81.5265,100.16483944654465L81.74925,99.88369894027709L81.972,99.78888940811157L82.19475,100.68347853422165L82.41749999999999,99.46774673461914L82.64025000000001,98.32990926504135L82.863,101.36534404754637L83.08575,104.0313785970211L83.30850000000001,99.26905465126036L83.53125,102.44962257146834L83.754,102.55751413106918L83.97675,96.52318280935287L84.1995,98.40555292367935L84.42225,100.12719345092772L84.645,106.51240092515945L84.86775,102.59674263000487L85.09049999999999,101.86532717943192L85.31325,101.50444608926772L85.53599999999999,99.15674966573714L85.75874999999999,100.32669436931609L85.98150000000001,106.84118357300758L86.20425,104.08239674568175L86.427,105.89377400279045L86.64975,103.4423532783985L86.8725,100.57871681451797L87.09525000000001,98.85755103826521L87.318,105.08842048048972L87.54075,105.7542499601841L87.7635,106.48286965489386L87.98625,108.32003292441368L88.209,105.387144356966L88.43175,104.88303792476653L88.6545,107.28927817940712L88.87724999999999,99.2695118188858L89.10000000000001,102.95428287982939L89.32275,103.861382573843L89.5455,108.57391041517256L89.76825000000001,105.84185910224915L89.991,109.15566501021384L90.21375,106.1628611087799L90.4365,110.81018981337547L90.65925,100.96103203296661L90.882,112.45274913311005L91.10475,107.22890567779541L91.3275,110.53960812091827L91.55024999999999,109.74043515324593L91.773,107.62486559152603L91.99575,107.75514957308768L92.21849999999999,107.8895832300186L92.44125000000001,108.57545775175095L92.664,111.20568376779556L92.88675,110.65628257393837L93.1095,111.93675634264945L93.33225,106.02994841337204L93.555,106.77875381708145L93.77775,107.74634909629822L94.0005,112.85183009505272L94.22325,108.584812104702L94.446,115.74730125069618L94.66875,113.43527269363403L94.8915,109.60392665863037L95.11425,113.33093297481537L95.33699999999999,110.72622922062874L95.55975000000001,110.38448762893677L95.7825,111.80372935533524L96.00525,111.25562053918837L96.22800000000001,109.0222072303295L96.45075,112.35499438643456L96.6735,120.50282922387123L96.89625,110.94838631153107L97.119,114.20923990011215L97.34175,112.2370363473892L97.5645,112.44830933213234L97.78725,106.47529122233391L98.00999999999999,110.7688161432743L98.23275,109.7778086066246L98.4555,110.70017945766449L98.67824999999999,111.80813398957253L98.90100000000001,111.86990436911583L99.12375,110.4911747276783L99.3465,112.29821768403053L99.56925,114.34150201082228L99.792,107.83891674876212L100.01475,110.26671421527861L100.2375,114.46352180838585L100.46025,114.98605561256407L100.68299999999999,115.23974847793579L100.90575,116.84869718551636L101.1285,115.80662754178047L101.35125,107.0502762198448L101.574,116.80986431241034L101.79674999999999,120.1022185087204L102.01950000000001,114.74750202894211L102.24225000000001,116.58179041743279L102.465,110.09463456273079L102.68775000000001,113.60729959607123L102.9105,118.27683609724045L103.13325,113.76967322826385L103.356,117.04823327064514L103.57875,115.98123040795326L103.8015,117.27157723903656L104.02425,117.45743346214294L104.247,114.9655709862709L104.46974999999999,112.35410642623901L104.6925,119.95459732413292L104.91525,114.59463220834732L105.13799999999999,114.24580451846123L105.36075000000001,117.78373685479163L105.5835,119.96647489070892L105.80625,120.48842844367027L106.02900000000001,120.46645802259445L106.25175,120.23294207453728L106.4745,117.16274496912956L106.69725,114.09294348955153L106.92,117.03547653555869L107.14274999999999,126.47784304618835L107.3655,116.67798903584479L107.58825,117.33869296312332L107.81099999999999,116.71642628312111L108.03375,119.38480821251868L108.25649999999999,121.63567301630974L108.47925000000001,123.18674606084822L108.70200000000001,115.63728210330008L108.92475,121.31483805179596L109.14750000000001,124.14179560542107L109.37025,125.29646915197372L109.593,117.26878148317337L109.81575,118.89865440130234L110.0385,119.71444365382193L110.26125,119.55356460809708L110.484,117.41775658726691L110.70675,125.4470970928669L110.92949999999999,125.58721897006033L111.15225,121.78422611951827L111.375,119.79394686222076L111.59774999999999,121.01489213109015L111.82050000000001,125.26319262385368L112.04325,122.7140962779522L112.266,117.63141211867332L112.48875000000001,123.19335740804672L112.7115,125.07719573378563L112.93425,119.4727690219879L113.157,118.13405913114548L113.37975,122.79729199409483L113.60249999999999,122.37107989192009L113.82525,120.01861837506294L114.048,117.111146569252L114.27074999999999,124.15187087655067L114.4935,125.34186062216759L114.71624999999999,122.09361431002617L114.93900000000001,124.27089270949362L115.16175000000001,124.3382194340229L115.3845,122.48139795660971L115.60725000000001,122.03905311226845L115.83,119.82688930630684L116.05275,125.83493348956107L116.27550000000001,124.52667799592017L116.49825,121.29389625787735L116.721,127.01243025064468L116.94375,124.63993248343466L117.1665,124.79860481619833L117.38924999999999,120.4888768196106L117.612,126.86705094575882L117.83475,129.58661806583405L118.05749999999999,124.0433023571968L118.28025000000001,125.5501180589199L118.503,122.09895965456961L118.72575,130.793206512928L118.94850000000001,127.22848591208457L119.17125,125.95528286695479L119.394,122.00289291143417L119.61675,130.93837481737137L119.8395,128.86968252062798L120.06225,125.3718578517437L120.285,124.02805757522582L120.50775,129.00124129652977L120.73049999999999,125.58045816421509L120.95325,123.52598202228545L121.17599999999999,128.69333890080452L121.39874999999999,129.7110643684864L121.62150000000001,129.64036163687706L121.84425,131.77261781692505L122.06700000000001,129.14805364608765L122.28975,129.63614162802696L122.5125,125.11048984527586L122.73525000000001,127.64933508634567L122.958,131.80381071567535L123.18075,130.43734547495842L123.4035,123.71156570315361L123.62625,126.49294716119766L123.84899999999999,127.91058000922203L124.07175,129.2241808474064L124.2945,126.3004883825779L124.51724999999999,127.40962100028992L124.74000000000001,130.28184694051743L124.96275,130.51787731051445L125.1855,128.85428828001022L125.40825000000001,129.62018471956253L125.631,131.65600490570068L125.85375,132.2414608001709L126.0765,127.00353306531905L126.29925,127.97456589341164L126.522,132.1185618340969L126.74475,132.15610232949257L126.9675,127.91169655323029L127.19024999999999,133.7903359234333L127.413,129.82708823680878L127.63574999999999,129.02533930540085L127.85849999999999,130.94495099782944L128.08125,126.29378911852837L128.304,129.34926015138626L128.52675,133.06673628091812L128.74949999999998,129.71291062235832L128.97225,133.5374606847763L129.195,134.96890527009964L129.41774999999998,130.79636272788048L129.6405,131.38239887356758L129.86325,131.1672047972679L130.086,132.75354129076004L130.30875,134.3554302752018L130.5315,132.2619630098343L130.75425,134.0480465888977L130.977,130.41201663017273L131.19975,131.24640029668808L131.42249999999999,131.11964178085327L131.64525,132.1205487549305L131.868,135.8073594868183L132.09074999999999,133.30693390965462L132.3135,137.04050761461258L132.53625,134.46173053979874L132.75900000000001,132.39929792284966L132.98175,135.0768847465515L133.2045,128.73047497868538L133.42725000000002,131.52631875872612L133.65,132.8397701382637L133.87275,131.7284835577011L134.0955,130.5026676952839L134.31825,134.52888143062592L134.541,134.23581060767174L134.76375,130.14797595143318L134.9865,133.77175030112267L135.20925,131.47292685508728L135.432,136.6263137459755L135.65475,134.4735113978386L135.8775,134.66526684165L136.10025000000002,139.36849308013916L136.323,134.01552614569664L136.54575,136.13258150219917L136.76850000000002,133.6020180284977L136.99125,138.39544695615768L137.214,135.00053775310516L137.43675,137.60114458203316L137.6595,136.5001970231533L137.88225,136.95650306344032L138.105,131.63485211133957L138.32775,130.99687469005585L138.5505,134.07181051373482L138.77325,134.8924000263214L138.99599999999998,138.97181224822998L139.21875,132.99050357937813L139.44150000000002,136.3340341746807L139.66425,131.92344796657562L139.887,138.46721348166466L140.10975,135.616201877594L140.3325,134.58667796850204L140.55525,134.32076466083527L140.77800000000002,137.23418843746185L141.00074999999998,141.45204332470894L141.2235,136.41260546445847L141.44625,131.70638126134872L141.669,135.63685354590416L141.89175,139.25037679076195L142.1145,135.33830550312996L142.33724999999998,138.4743523299694L142.56,137.66033899784088L142.78275000000002,135.46749931573868L143.00549999999998,136.739990234375L143.22825,136.2256063222885L143.451,137.58685809373856L143.67375,135.57440620660782L143.8965,134.01334580779076L144.11925,138.71328395605087L144.34199999999998,136.66423228383064L144.56475,140.20475816726685L144.7875,136.30634036660194L145.01025,138.50397151708603L145.23299999999998,136.35579359531403L145.45575,141.15226444602013L145.67849999999999,137.20717158913612L145.90125,136.69458997249603L146.12400000000002,138.97662129998207L146.34675,137.39063647389412L146.5695,138.42457380890846L146.79225,140.32070291042328L147.01500000000001,136.8580801486969L147.23775,136.33145821094513L147.4605,134.5574016571045L147.68325,138.83895230293274L147.906,139.94250220060349L148.12875,139.38055527210236L148.35150000000002,137.90797439217567L148.57424999999998,135.7737312912941L148.797,137.47382339835167L149.01975000000002,136.99511614441872L149.2425,146.14365574717522L149.46525000000003,143.06355920433998L149.688,138.56116142868996L149.91075,139.6749888062477L150.1335,143.4977277815342L150.35625000000002,137.18966734409332L150.57899999999998,139.64654770493507L150.80175,140.3873614668846L151.0245,139.4011541903019L151.24725,138.66857823729515L151.47,141.03625816106796L151.69275,138.77256628870964L151.91549999999998,140.69892120361328L152.13825,140.46023574471474L152.36100000000002,138.79044857621193L152.58375,141.46919590234756L152.8065,140.49279135465622L153.02925,141.96407985687256L153.252,142.97677648067474L153.47475,140.3945970237255L153.69750000000002,139.24569082260132L153.92024999999998,143.35335072875023L154.143,140.26003149151802L154.36575,140.166444003582L154.5885,140.03069159388542L154.81125,144.55806654691696L155.034,141.1898137331009L155.25674999999998,145.05818155407906L155.4795,142.22896453738213L155.70225000000002,140.0930334329605L155.925,138.4546149969101L156.14775,143.01024642586708L156.3705,143.07476860284805L156.59325,144.4185249209404L156.816,139.24146202206612L157.03875,143.6150352358818L157.26149999999998,138.7610228061676L157.48425,141.97063845396042L157.707,137.81554740667343L157.92975,143.6075886785984L158.15249999999997,145.6734852194786L158.37525,144.79725313186646L158.59799999999998,144.369045317173L158.82075,144.81059011816978L159.04350000000002,140.10477912425995L159.26624999999999,136.32642057538033L159.489,140.5917417705059L159.71175,142.31776934862137L159.9345,145.95276188850403L160.15725,145.4320655465126L160.38,144.15911746025085L160.60275,142.04125326871872L160.8255,146.00090515613556L161.04825,145.85543793439865L161.27100000000002,141.77220132946968L161.49374999999998,131.09923627972603L161.7165,147.58933407068253L161.93925000000002,144.7140486240387L162.162,142.65875485539436L162.38475000000003,141.71385970711708L162.6075,139.93866023421288L162.83025,146.83272165060043L163.053,145.00662711262703L163.27575000000002,144.0284642279148L163.4985,144.38664627075195L163.72125,145.7074914574623L163.944,145.5020825266838L164.16675,146.17485743761063L164.3895,149.6004584133625L164.61225,140.5398268699646L164.83499999999998,142.92288345098495L165.05775,146.3693383038044L165.28050000000002,145.59283909201622L165.50325,142.81929981708527L165.726,149.37932115793228L165.94875,144.99059107899666L166.1715,149.17124834656715L166.39425,141.51036736369133L166.61700000000002,138.92541852593422L166.83974999999998,145.79273563623428L167.0625,149.14325562119484L167.28525,144.0859530568123L167.508,146.66139808297157L167.73075,145.66572216153145L167.9535,148.01426258683205L168.17624999999998,144.7319397032261L168.399,143.29689931869507L168.62175000000002,145.36438715457916L168.8445,147.84963828325272L169.06725,149.17260226607323L169.29,149.08459749817848L169.51275,144.78853178024292L169.7355,144.40312188863754L169.95825000000002,146.71252173185349L170.18099999999998,142.65364688634872L170.40375,147.4289561510086L170.6265,144.7257503569126L170.84925,147.96632152795792L171.07199999999997,147.1259683072567L171.29475,145.8903233408928L171.51749999999998,148.0779583454132L171.74025,147.22429451346397L171.96300000000002,145.6996141076088L172.18574999999998,151.1376581788063L172.4085,150.18121954798698L172.63125,148.3748975098133L172.854,145.30479711294174L173.07675,144.34948381781578L173.2995,146.85547453165054L173.52224999999999,145.61808001995087L173.745,149.4835905432701L173.96775,150.85749354958534L174.19050000000001,149.17504635453224L174.41324999999998,142.49422726035118L174.636,147.84567323327065L174.85875000000001,145.89826223254204L175.0815,151.47204113006592L175.30425000000002,149.98760026693344L175.527,146.85895603895187L175.74975,151.57972168922424L175.9725,148.57778322696686L176.19525000000002,151.118342846632L176.418,148.23913630843163L176.64075,150.18140417337418L176.8635,145.42631578445435L177.08625,144.83915430307388L177.309,149.0536595582962L177.53175,148.57186642289162L177.75449999999998,150.11500057578087L177.97725,151.05306458473206L178.20000000000002,148.800599694252L178.42275,149.08610087633133L178.6455,147.41200578212738L178.86825,151.73508834838867L179.091,146.77200627326965L179.31375,151.20621573925018L179.53650000000002,149.96489134430885L179.75924999999998,149.52250254154205L179.982,146.61070522665977L180.20475,151.46272194385529L180.4275,152.95740512013435L180.65025,147.9236642718315L180.873,149.53200635313988L181.09574999999998,149.3276436328888L181.3185,151.603960365057L181.54125000000002,148.5923334658146L181.764,149.08554700016975L181.98675,151.36632990837097L182.2095,150.44082042574883L182.43225,152.60658171772957L182.655,149.5851784646511L182.87775000000002,154.25002899765968L183.10049999999998,152.90232521295547L183.32325,148.4897432923317L183.546,151.1289983689785L183.76875,152.94174712896347L183.9915,150.1335598230362L184.21425,150.2755982875824L184.43699999999998,152.2533757686615L184.65975,150.28955069184303L184.88250000000002,153.21071994304657L185.10524999999998,152.2119405567646L185.328,152.65823286771774L185.55075,146.4497910141945L185.7735,153.67536929249763L185.99625,151.14535969495773L186.219,151.7337520122528L186.44174999999998,152.56385412812233L186.6645,152.96384942531586L186.88725,153.17709174752235L187.11,148.31829664111137L187.33274999999998,152.14929100871086L187.5555,153.6046841442585L187.77824999999999,149.22917675971985L188.001,152.248364508152L188.22375000000002,151.6709705889225L188.4465,155.2792627811432L188.66925,151.5295563340187L188.892,151.50052618980408L189.11475000000002,152.74437379837036L189.3375,152.78705742955208L189.56025,152.63990220427513L189.783,155.028225004673L190.00575,153.23769283294678L190.2285,152.4964219033718L190.45125000000002,153.2910759449005L190.67399999999998,153.00010633468628L190.89675,148.71994477510452L191.11950000000002,150.30805718898773L191.34225,151.40499573946L191.565,155.01885306835175L191.78775,155.653252273798L192.0105,151.04599606990814L192.23325,150.9111404120922L192.45600000000002,151.80157986283302L192.67874999999998,155.34354758262634L192.9015,150.26762422919273L193.12425,154.312221378088L193.347,157.69950819015503L193.56975,153.4075481891632L193.7925,154.97558039426804L194.01524999999998,154.63524547219276L194.238,151.09153699874878L194.46075000000002,155.0024565756321L194.6835,150.5079361498356L194.90625,152.23476377129555L195.129,152.26136741042137L195.35175,155.72778818011284L195.5745,155.8319256901741L195.79725000000002,155.3452795445919L196.01999999999998,152.6931534409523L196.24275,152.09256705641747L196.4655,157.73479801416397L196.68825,153.5459556877613L196.911,153.3473691046238L197.13375,156.83346566557884L197.35649999999998,152.72063624858856L197.57925,155.3822925388813L197.80200000000002,157.06123185157776L198.02475,153.34604156017303L198.2475,151.9715319275856L198.47025,158.47234126925468L198.693,154.59734451770782L198.91575,155.56770917773247L199.1385,154.46402740478516L199.36124999999998,154.90845587849617L199.584,155.76035258173943L199.80675,153.12010404467583L200.0295,153.68157622218132L200.25224999999998,154.6484154164791L200.475,155.22522908449173L200.69774999999998,154.52439111471176L200.9205,156.7877049446106L201.14325000000002,155.96233275532722L201.36599999999999,155.55538323521614L201.58875,156.72379818558693L201.8115,155.31121176481247L202.03425000000001,156.4793102145195L202.257,154.75416180491447L202.47975,157.68371832370758L202.7025,156.7983780503273L202.92525,157.04609256982803L203.148,155.82740676403046L203.37075000000002,153.15476086735725L203.59349999999998,154.7292461693287L203.81625,155.8669341802597L204.03900000000002,154.20534086227417L204.26175,157.38948699831963L204.48450000000003,156.0362972021103L204.70725,155.81715565919876L204.93,158.62944868206978L205.15275,158.04412466287613L205.37550000000002,151.28285285830498L205.59824999999998,156.22034233808517L205.821,157.85869923233986L206.04375,156.19930383563042L206.2665,157.52209198474884L206.48925,157.97643747925758L206.712,156.64481368660927L206.93474999999998,157.4630382359028L207.1575,152.94414725899696L207.38025000000002,159.48052775859833L207.603,158.9193808734417L207.82575,153.46621510386467L208.0485,155.9490221440792L208.27125,160.77227246761322L208.494,157.3079617023468L208.71675000000002,156.4052930176258L208.93949999999998,156.54271584749222L209.16225,159.76118472218513L209.385,158.8399040400982L209.60775,157.78712612390518L209.8305,158.84492409229279L210.05325,157.36522194743156L210.27599999999998,158.780164539814L210.49875,157.90192794799805L210.72150000000002,157.54278761148453L210.94425,156.20054346323013L211.167,156.89243149757385L211.38975,157.9126713871956L211.6125,159.91427433490753L211.83525,162.2840642631054L212.05800000000002,156.3591894209385L212.28074999999998,161.14798513054848L212.5035,158.83679178357124L212.72625,159.66041442751884L212.949,159.08365350961685L213.17174999999997,157.09716346859932L213.3945,158.56436383724213L213.61724999999998,157.59790268540382L213.84,155.9829932153225L214.06275000000002,159.7729567885399L214.28549999999998,158.38492554426193L214.50825,156.49109986424446L214.731,160.8945472240448L214.95375,154.34708040952682L215.1765,158.25926598906517L215.39925,160.79793539643288L215.62199999999999,158.08400374650955L215.84475,156.36155438423157L216.0675,157.36821991205215L216.29025000000001,160.31338167190552L216.51299999999998,157.21538525819778L216.73575,161.30505737662315L216.95850000000002,160.8559429347515L217.18125,157.87943881750107L217.40400000000002,159.30814918875694L217.62675,158.7198359966278L217.8495,161.04510483145714L218.07225,157.6863558292389L218.29500000000002,159.86101430654526L218.51775,158.01483955979347L218.7405,160.3521881699562L218.96325,161.7805204987526L219.186,161.33757781982422L219.40875,158.12810283899307L219.6315,159.26208075881004L219.85424999999998,160.47703889012337L220.077,159.8663420677185L220.29975000000002,158.60941243171692L220.5225,160.18006455898285L220.74525,161.77597519755363L220.968,158.4208923280239L221.19075,161.2202791571617L221.4135,160.26013043522835L221.63625000000002,161.44895088672638L221.85899999999998,163.7669665813446L222.08175,160.2119607925415L222.3045,157.12626394629478L222.52725,156.40495893359184L222.75,156.0987093746662L222.97275,158.8978500366211L223.19549999999998,159.7317413687706L223.41825,161.4327214360237L223.64100000000002,157.40065243840218L223.86375,156.79679554700851L224.0865,160.46817687153816L224.30925,161.60859030485153L224.532,160.2696694135666L224.75475,157.64952746033669L224.97750000000002,160.60412269830704L225.20024999999998,164.68844947218895L225.423,157.07089391350746L225.64575,159.41516157984734L225.8685,162.181685090065L226.09125,160.9259511232376L226.314,160.24095577001572L226.53674999999998,160.1690749526024L226.7595,161.21850323677063L226.98225000000002,161.64097887277603L227.20499999999998,158.33104130625725L227.42775,159.73948684334755L227.6505,160.01595896482468L227.87325,160.9213266968727L228.096,161.98236879706383L228.31875,161.24332216382027L228.54149999999998,163.91556364297867L228.76425,161.1417869925499L228.987,160.32648128271103L229.20975,159.1277877688408L229.43249999999998,165.9328157901764L229.65525,162.05945429205894L229.87800000000001,159.3885579407215L230.10075,161.76488009095192L230.32350000000002,161.68985185027122L230.54625,160.2865758240223L230.769,163.8633234500885L230.99175,160.54379415512085L231.21450000000002,161.70721542835236L231.43725,164.68100291490555L231.66,161.15413051843643L231.88275,159.59407237172127L232.1055,160.1055462360382L232.32825,161.50804859399796L232.55100000000002,162.11341765522957L232.77374999999998,159.41143390536308L232.9965,160.1926542520523L233.21925000000002,160.96259486675262L233.442,161.25718665122986L233.66475,161.77011993527412L233.8875,162.27111411094666L234.11025,159.4327889084816L234.333,164.64897480607033L234.55575000000002,159.13279023766518L234.77849999999998,162.67106544971466L235.00125,161.93848949670792L235.224,161.22934338450432L235.44675,160.44805270433426L235.6695,162.82286268472672L235.89225,160.81880685687065L236.11499999999998,161.75367069244385L236.33775,163.0270231962204L236.56050000000002,161.4043330848217L236.78325,162.08900314569473L237.006,159.89763167500496L237.22875,160.8579122722149L237.4515,162.20694360136986L237.67425,162.81080049276352L237.89700000000002,161.55918103456497L238.11974999999998,160.39616417884827L238.3425,166.50935691595078L238.56525,159.96959161758423L238.788,162.71134895086288L239.01075,161.4783414900303L239.2335,161.3964996933937L239.45624999999998,160.21068599820137L239.679,159.59589225053787L239.90175000000002,161.9787026643753L240.1245,160.46551299095154L240.34725,165.05787608027458L240.57,164.3736983537674L240.79275,160.44032481312752L241.0155,164.5362829864025L241.23825,162.80848827958107L241.46099999999998,162.57142049074173L241.68375,163.87913089990616L241.9065,160.93767923116684L242.12925,163.2008611857891L242.35199999999998,166.39429134130478L242.57475,162.7932610809803L242.79749999999999,162.69735258817673L243.02025,164.40894421935081L243.24300000000002,163.66843816637993L243.46574999999999,161.75066393613815L243.6885,163.73523738980293L243.91125,166.16010722517967L244.13400000000001,163.8130525946617L244.35675,165.54432001709938L244.5795,161.13931652903557L244.80225,164.23398968577385L245.025,159.2386509180069L245.24775,165.1736098229885L245.47050000000002,163.8731877207756L245.69324999999998,163.94971933960915L245.916,161.98952522873878L246.13875000000002,163.18378773331642L246.3615,162.05360782146454L246.58425000000003,162.53462728857994L246.807,160.93996506929398L247.02975,161.43282693624496L247.2525,165.34875777363777L247.47525000000002,161.37412485480309L247.69799999999998,159.80002638697624L247.92075,161.0422211587429L248.1435,163.68135315179825L248.36625,165.45526903867722L248.589,162.04352375864983L248.81175,161.37608540058136L249.03449999999998,163.5277536213398L249.25725,164.5104881823063L249.48000000000002,163.59591555595398L249.70275,164.67813682556152L249.9255,165.425263017416L250.14825,164.22175166010857L250.371,164.13459089398384L250.59375,165.38326513767242" style="fill: none;" fill="none"></path></g></g></g></g></g></g><g transform="translate(51, 177)" clip-path="url(#clip_1)"><clipPath id="clip_1"><rect width="278" height="22"></rect></clipPath><g><g><line x1="0" y1="0" x2="0" y2="5" style="visibility: inherit;" fill="rgb(0, 0, 0)" stroke="rgb(204, 204, 204)" stroke-width="1px"></line><line x1="27.84375" y1="0" x2="27.84375" y2="5" style="visibility: inherit;" fill="rgb(0, 0, 0)" stroke="rgb(204, 204, 204)" stroke-width="1px"></line><line x1="55.6875" y1="0" x2="55.6875" y2="5" style="visibility: inherit;" fill="rgb(0, 0, 0)" stroke="rgb(204, 204, 204)" stroke-width="1px"></line><line x1="83.53125" y1="0" x2="83.53125" y2="5" style="visibility: inherit;" fill="rgb(0, 0, 0)" stroke="rgb(204, 204, 204)" stroke-width="1px"></line><line x1="111.375" y1="0" x2="111.375" y2="5" style="visibility: inherit;" fill="rgb(0, 0, 0)" stroke="rgb(204, 204, 204)" stroke-width="1px"></line><line x1="139.21875" y1="0" x2="139.21875" y2="5" style="visibility: inherit;" fill="rgb(0, 0, 0)" stroke="rgb(204, 204, 204)" stroke-width="1px"></line><line x1="167.0625" y1="0" x2="167.0625" y2="5" style="visibility: inherit;" fill="rgb(0, 0, 0)" stroke="rgb(204, 204, 204)" stroke-width="1px"></line><line x1="194.90625" y1="0" x2="194.90625" y2="5" style="visibility: inherit;" fill="rgb(0, 0, 0)" stroke="rgb(204, 204, 204)" stroke-width="1px"></line><line x1="222.75" y1="0" x2="222.75" y2="5" style="visibility: inherit;" fill="rgb(0, 0, 0)" stroke="rgb(204, 204, 204)" stroke-width="1px"></line><line x1="250.59375" y1="0" x2="250.59375" y2="5" style="visibility: inherit;" fill="rgb(0, 0, 0)" stroke="rgb(204, 204, 204)" stroke-width="1px"></line><line x1="278.4375" y1="0" x2="278.4375" y2="5" style="visibility: inherit;" fill="rgb(0, 0, 0)" stroke="rgb(204, 204, 204)" stroke-width="1px"></line></g><g transform="translate(0, 8)"><text x="0" y="0" dx="0em" dy="0.95em" style="text-anchor: middle; visibility: hidden; font-family: Roboto, sans-serif; font-size: 12px; font-weight: 200;" fill="rgb(33, 33, 33)" stroke="none" stroke-width="1px">-20k</text><text x="27.84375" y="0" dx="0em" dy="0.95em" style="text-anchor: middle; visibility: inherit; font-family: Roboto, sans-serif; font-size: 12px; font-weight: 200;" fill="rgb(33, 33, 33)" stroke="none" stroke-width="1px">0</text><text x="55.6875" y="0" dx="0em" dy="0.95em" style="text-anchor: middle; visibility: hidden; font-family: Roboto, sans-serif; font-size: 12px; font-weight: 200;" fill="rgb(33, 33, 33)" stroke="none" stroke-width="1px">20k</text><text x="83.53125" y="0" dx="0em" dy="0.95em" style="text-anchor: middle; visibility: inherit; font-family: Roboto, sans-serif; font-size: 12px; font-weight: 200;" fill="rgb(33, 33, 33)" stroke="none" stroke-width="1px">40k</text><text x="111.375" y="0" dx="0em" dy="0.95em" style="text-anchor: middle; visibility: hidden; font-family: Roboto, sans-serif; font-size: 12px; font-weight: 200;" fill="rgb(33, 33, 33)" stroke="none" stroke-width="1px">60k</text><text x="139.21875" y="0" dx="0em" dy="0.95em" style="text-anchor: middle; visibility: inherit; font-family: Roboto, sans-serif; font-size: 12px; font-weight: 200;" fill="rgb(33, 33, 33)" stroke="none" stroke-width="1px">80k</text><text x="167.0625" y="0" dx="0em" dy="0.95em" style="text-anchor: middle; visibility: hidden; font-family: Roboto, sans-serif; font-size: 12px; font-weight: 200;" fill="rgb(33, 33, 33)" stroke="none" stroke-width="1px">100k</text><text x="194.90625" y="0" dx="0em" dy="0.95em" style="text-anchor: middle; visibility: inherit; font-family: Roboto, sans-serif; font-size: 12px; font-weight: 200;" fill="rgb(33, 33, 33)" stroke="none" stroke-width="1px">120k</text><text x="222.75" y="0" dx="0em" dy="0.95em" style="text-anchor: middle; visibility: hidden; font-family: Roboto, sans-serif; font-size: 12px; font-weight: 200;" fill="rgb(33, 33, 33)" stroke="none" stroke-width="1px">140k</text><text x="250.59375" y="0" dx="0em" dy="0.95em" style="text-anchor: middle; visibility: inherit; font-family: Roboto, sans-serif; font-size: 12px; font-weight: 200;" fill="rgb(33, 33, 33)" stroke="none" stroke-width="1px">160k</text><text x="278.4375" y="0" dx="0em" dy="0.95em" style="text-anchor: middle; visibility: hidden; font-family: Roboto, sans-serif; font-size: 12px; font-weight: 200;" fill="rgb(33, 33, 33)" stroke="none" stroke-width="1px">180k</text></g><line x1="0" y1="0" x2="278.4375" y2="0" fill="rgb(0, 0, 0)" stroke="rgb(204, 204, 204)" stroke-width="1px"></line></g></g></g></g></svg>